SplineFontDB: 3.2
FontName: Atari-825-Regular
FullName: Atari 825 Regular Regular
FamilyName: Atari 825 Regular
Weight: Book
Copyright: Copyright jeffpiep 2020
Version: 1.0
ItalicAngle: 0
UnderlinePosition: 74.707
UnderlineWidth: 49.8047
Ascent: 800
Descent: 200
InvalidEm: 0
sfntRevision: 0x00010000
LayerCount: 2
Layer: 0 1 "Back" 1
Layer: 1 1 "Fore" 0
XUID: [1021 991 -801047843 6674]
StyleMap: 0x0040
FSType: 4
OS2Version: 2
OS2_WeightWidthSlopeOnly: 0
OS2_UseTypoMetrics: 0
CreationTime: 1592073065
ModificationTime: 1592074195
PfmFamily: 81
TTFWeight: 400
TTFWidth: 5
LineGap: 0
VLineGap: 0
Panose: 0 0 4 0 0 0 0 0 0 0
OS2TypoAscent: 889
OS2TypoAOffset: 0
OS2TypoDescent: -111
OS2TypoDOffset: 0
OS2TypoLinegap: 0
OS2WinAscent: 889
OS2WinAOffset: 0
OS2WinDescent: 111
OS2WinDOffset: 0
HheadAscent: 889
HheadAOffset: 0
HheadDescent: -111
HheadDOffset: 0
OS2SubXSize: 500
OS2SubYSize: 500
OS2SubXOff: 0
OS2SubYOff: -55
OS2SupXSize: 500
OS2SupYSize: 500
OS2SupXOff: 0
OS2SupYOff: 500
OS2StrikeYSize: 50
OS2StrikeYPos: 200
OS2CapHeight: 789
OS2XHeight: 566
OS2Vendor: 'FSTR'
OS2CodePages: 00000001.00000000
OS2UnicodeRanges: 80000001.00000000.00000000.00000000
MarkAttachClasses: 1
DEI: 91125
ShortTable: maxp 16
  1
  0
  102
  318
  14
  0
  0
  2
  0
  0
  0
  0
  0
  0
  0
  0
EndShort
LangName: 1033 "" "" "Regular" "Atari 825 Regular" "" "Version 1.0" "" "FontStruct is a trademark of FontStruct.com" "https://fontstruct.com" "jeffpiep" "+IBwA-Atari 825 Regular+IB0A was built with FontStruct+AAoA" "https://fontstruct.com/fontstructions/show/1773439/atari-825-regular" "https://fontstruct.com/fontstructors/show/1011029/jeffpiep" "Open Font License" "" "" "" "" "" "Five big quacking zephyrs jolt my wax bed"
Encoding: win
UnicodeInterp: none
NameList: AGL For New Fonts
DisplaySize: -48
AntiAlias: 1
FitToEm: 0
WinInfo: 0 22 7
BeginPrivate: 0
EndPrivate
BeginChars: 256 99

StartChar: exclam
Encoding: 33 33 1
Width: 600
VWidth: 750
Flags: W
LayerCount: 2
Fore
SplineSet
226 0 m 1,0,1
 208 0 208 0 194 14 c 128,-1,2
 180 28 180 28 180 46 c 0,3,4
 180 65 180 65 194 78 c 0,5,6
 208 92 208 92 226 92 c 256,7,8
 245 92 245 92 258 78 c 256,9,10
 272 64 272 64 272 46 c 128,-1,11
 272 28 272 28 258 14 c 128,-1,12
 244 0 244 0 226 0 c 1,13,-1
 226 0 l 1,0,1
226 250 m 1,14,15
 208 250 208 250 194 263 c 0,16,17
 180 278 180 278 180 296 c 0,18,19
 180 316 180 316 194 328 c 0,20,21
 200 334 200 334 206 338 c 1,22,-1
 206 338 l 1,23,24
 200 340 200 340 194 346 c 0,25,26
 180 360 180 360 180 379 c 256,27,28
 180 398 180 398 194 411 c 0,29,30
 200 417 200 417 206 421 c 1,31,-1
 206 421 l 1,32,33
 200 424 200 424 194 430 c 0,34,35
 180 444 180 444 180 462 c 0,36,37
 180 481 180 481 194 495 c 0,38,39
 200 501 200 501 206 504 c 1,40,-1
 206 504 l 1,41,42
 200 507 200 507 194 513 c 0,43,44
 180 527 180 527 180 546 c 256,45,46
 180 565 180 565 194 578 c 0,47,48
 208 592 208 592 226 592 c 256,49,50
 245 592 245 592 258 578 c 0,51,52
 272 564 272 564 272 546 c 256,53,54
 272 527 272 527 258 513 c 0,55,56
 252 507 252 507 245 504 c 1,57,-1
 245 504 l 1,58,59
 252 501 252 501 258 495 c 0,60,61
 272 481 272 481 272 462 c 128,-1,62
 272 443 272 443 258 430 c 0,63,64
 252 424 252 424 245 421 c 1,65,-1
 245 421 l 1,66,67
 252 418 252 418 258 411 c 0,68,69
 272 397 272 397 272 379 c 256,70,71
 272 360 272 360 258 346 c 0,72,73
 252 340 252 340 245 338 c 1,74,-1
 245 338 l 1,75,76
 252 334 252 334 258 328 c 0,77,78
 272 314 272 314 272 296 c 0,79,80
 272 277 272 277 258 263 c 256,81,82
 244.933333333 249.933333333 244.933333333 249.933333333 228.382222222 249.933333333 c 0,83,84
 227.2 249.933333333 227.2 249.933333333 226 250 c 1,85,-1
 226 250 l 1,14,15
EndSplineSet
EndChar

StartChar: quotedbl
Encoding: 34 34 2
Width: 600
VWidth: 750
Flags: W
LayerCount: 2
Fore
SplineSet
166 333 m 1,0,1
 164.8 332.933333333 164.8 332.933333333 163.617777778 332.933333333 c 0,2,3
 147.066666667 332.933333333 147.066666667 332.933333333 134 346 c 0,4,5
 120 360 120 360 120 379 c 256,6,7
 120 398 120 398 134 411 c 0,8,9
 140 417 140 417 146 421 c 1,10,-1
 146 421 l 1,11,12
 140 424 140 424 134 430 c 0,13,14
 120 444 120 444 120 462 c 0,15,16
 120 481 120 481 134 495 c 0,17,18
 140 501 140 501 146 504 c 1,19,-1
 146 504 l 1,20,21
 140 507 140 507 134 513 c 0,22,23
 120 527 120 527 120 546 c 256,24,25
 120 565 120 565 134 578 c 0,26,27
 148 592 148 592 166 592 c 0,28,29
 185 592 185 592 198 578 c 0,30,31
 212 564 212 564 212 546 c 256,32,33
 212 527 212 527 198 513 c 0,34,35
 192 507 192 507 185 504 c 1,36,-1
 185 504 l 1,37,38
 192 501 192 501 198 495 c 0,39,40
 212 481 212 481 212 462 c 128,-1,41
 212 443 212 443 198 430 c 0,42,43
 192 424 192 424 185 421 c 1,44,-1
 185 421 l 1,45,46
 192 418 192 418 198 411 c 0,47,48
 212 397 212 397 212 379 c 256,49,50
 212 360 212 360 198 346 c 0,51,52
 184.933333333 332.933333333 184.933333333 332.933333333 168.382222222 332.933333333 c 0,53,54
 167.2 332.933333333 167.2 332.933333333 166 333 c 1,55,-1
 166 333 l 1,0,1
406 333 m 1,56,57
 404.8 332.933333333 404.8 332.933333333 403.617777778 332.933333333 c 0,58,59
 387.066666667 332.933333333 387.066666667 332.933333333 374 346 c 0,60,61
 360 360 360 360 360 379 c 256,62,63
 360 398 360 398 374 411 c 0,64,65
 380 417 380 417 386 421 c 1,66,-1
 386 421 l 1,67,68
 378 424 378 424 374 430 c 0,69,70
 360 444 360 444 360 462 c 0,71,72
 360 481 360 481 374 495 c 0,73,74
 380 501 380 501 386 504 c 1,75,-1
 386 504 l 1,76,77
 378 507 378 507 374 513 c 0,78,79
 360 527 360 527 360 546 c 256,80,81
 360 565 360 565 374 578 c 0,82,83
 388 592 388 592 406 592 c 256,84,85
 425 592 425 592 438 578 c 0,86,87
 452 564 452 564 452 546 c 256,88,89
 452 527 452 527 438 513 c 0,90,91
 432 507 432 507 425 504 c 1,92,-1
 425 504 l 1,93,94
 432 501 432 501 438 495 c 0,95,96
 452 481 452 481 452 462 c 128,-1,97
 452 443 452 443 438 430 c 0,98,99
 432 424 432 424 425 421 c 1,100,-1
 425 421 l 1,101,102
 432 418 432 418 438 411 c 0,103,104
 452 397 452 397 452 379 c 256,105,106
 452 360 452 360 438 346 c 0,107,108
 424.933333333 332.933333333 424.933333333 332.933333333 408.382222222 332.933333333 c 0,109,110
 407.2 332.933333333 407.2 332.933333333 406 333 c 1,111,-1
 406 333 l 1,56,57
EndSplineSet
EndChar

StartChar: numbersign
Encoding: 35 35 3
Width: 600
VWidth: 750
Flags: W
LayerCount: 2
Fore
SplineSet
46 166 m 1,0,1
 28 166 28 166 14 180 c 128,-1,2
 0 194 0 194 0 212 c 256,3,4
 0 230 0 230 14 244 c 128,-1,5
 28 258 28 258 46 258 c 256,6,7
 65 258 65 258 78 244 c 0,8,9
 92 230 92 230 92 212 c 256,10,11
 92 193 92 193 78 180 c 0,12,13
 64 166 64 166 46 166 c 1,14,-1
 46 166 l 1,0,1
406 166 m 1,15,16
 388 166 388 166 374 180 c 128,-1,17
 360 194 360 194 360 212 c 256,18,19
 360 230 360 230 374 244 c 128,-1,20
 388 258 388 258 406 258 c 256,21,22
 425 258 425 258 438 244 c 0,23,24
 452 230 452 230 452 212 c 256,25,26
 452 193 452 193 438 180 c 0,27,28
 424 166 424 166 406 166 c 1,29,-1
 406 166 l 1,15,16
46 333 m 1,30,31
 44.8 332.933333333 44.8 332.933333333 43.6177777778 332.933333333 c 0,32,33
 27.0666666667 332.933333333 27.0666666667 332.933333333 14 346 c 0,34,35
 0 360 0 360 0 379 c 256,36,37
 0 398 0 398 14 411 c 128,-1,38
 28 424 28 424 46 424 c 256,39,40
 65 424 65 424 78 411 c 0,41,42
 92 397 92 397 92 379 c 256,43,44
 92 360 92 360 78 346 c 0,45,46
 64.9333333333 332.933333333 64.9333333333 332.933333333 48.3822222222 332.933333333 c 0,47,48
 47.2 332.933333333 47.2 332.933333333 46 333 c 1,49,-1
 46 333 l 1,30,31
406 333 m 1,50,51
 404.8 332.933333333 404.8 332.933333333 403.617777778 332.933333333 c 0,52,53
 387.066666667 332.933333333 387.066666667 332.933333333 374 346 c 0,54,55
 360 360 360 360 360 379 c 256,56,57
 360 398 360 398 374 411 c 128,-1,58
 388 424 388 424 406 424 c 256,59,60
 425 424 425 424 438 411 c 0,61,62
 452 397 452 397 452 379 c 256,63,64
 452 360 452 360 438 346 c 0,65,66
 424.933333333 332.933333333 424.933333333 332.933333333 408.382222222 332.933333333 c 0,67,68
 407.2 332.933333333 407.2 332.933333333 406 333 c 1,69,-1
 406 333 l 1,50,51
166 0 m 1,70,71
 148 0 148 0 134 14 c 128,-1,72
 120 28 120 28 120 46 c 0,73,74
 120 65 120 65 134 78 c 0,75,76
 140 84 140 84 146 87 c 1,77,-1
 146 87 l 1,78,79
 140 90 140 90 134 97 c 0,80,81
 120 111 120 111 120 129 c 256,82,83
 120 148 120 148 134 161 c 0,84,85
 140 167 140 167 146 171 c 1,86,-1
 146 171 l 1,87,88
 140 174 140 174 134 180 c 0,89,90
 120 194 120 194 120 212 c 256,91,92
 120 230 120 230 134 244 c 0,93,94
 140 250 140 250 146 254 c 1,95,-1
 146 254 l 1,96,97
 140 257 140 257 134 263 c 0,98,99
 120 278 120 278 120 296 c 0,100,101
 120 316 120 316 134 328 c 0,102,103
 140 334 140 334 146 338 c 1,104,-1
 146 338 l 1,105,106
 140 340 140 340 134 346 c 0,107,108
 120 360 120 360 120 379 c 256,109,110
 120 398 120 398 134 411 c 0,111,112
 140 417 140 417 146 421 c 1,113,-1
 146 421 l 1,114,115
 140 424 140 424 134 430 c 0,116,117
 120 444 120 444 120 462 c 0,118,119
 120 481 120 481 134 495 c 0,120,121
 140 501 140 501 146 504 c 1,122,-1
 146 504 l 1,123,124
 140 507 140 507 134 513 c 0,125,126
 120 527 120 527 120 546 c 256,127,128
 120 565 120 565 134 578 c 0,129,130
 148 592 148 592 166 592 c 0,131,132
 185 592 185 592 198 578 c 0,133,134
 212 564 212 564 212 546 c 256,135,136
 212 527 212 527 198 513 c 0,137,138
 192 507 192 507 185 504 c 1,139,-1
 185 504 l 1,140,141
 192 501 192 501 198 495 c 0,142,143
 212 481 212 481 212 462 c 128,-1,144
 212 443 212 443 198 430 c 0,145,146
 192 424 192 424 185 421 c 1,147,-1
 185 421 l 1,148,149
 192 418 192 418 198 411 c 0,150,151
 212 397 212 397 212 379 c 256,152,153
 212 360 212 360 198 346 c 0,154,155
 192 340 192 340 185 338 c 1,156,-1
 185 338 l 1,157,158
 192 334 192 334 198 328 c 0,159,160
 212 314 212 314 212 296 c 0,161,162
 212 277 212 277 198 263 c 0,163,164
 192 257 192 257 185 254 c 1,165,-1
 185 254 l 1,166,167
 192 250 192 250 198 244 c 0,168,169
 212 230 212 230 212 212 c 256,170,171
 212 193 212 193 198 180 c 0,172,173
 192 174 192 174 185 171 c 1,174,-1
 185 171 l 1,175,176
 192 168 192 168 198 161 c 0,177,178
 212 147 212 147 212 129 c 256,179,180
 212 110 212 110 198 97 c 0,181,182
 192 91 192 91 185 87 c 1,183,-1
 185 87 l 1,184,185
 192 84 192 84 198 78 c 0,186,187
 212 64 212 64 212 46 c 128,-1,188
 212 28 212 28 198 14 c 128,-1,189
 184 0 184 0 166 0 c 1,190,-1
 166 0 l 1,70,71
286 0 m 1,191,192
 267 0 267 0 253 14 c 0,193,194
 239.933333333 27.0666666667 239.933333333 27.0666666667 239.933333333 43.6177777778 c 0,195,196
 239.933333333 64.9333333333 239.933333333 64.9333333333 253 78 c 0,197,198
 259 84 259 84 266 87 c 1,199,-1
 266 87 l 1,200,201
 259 90 259 90 253 97 c 0,202,203
 239.933333333 110.066666667 239.933333333 110.066666667 239.933333333 126.617777778 c 0,204,205
 239.933333333 147.933333333 239.933333333 147.933333333 253 161 c 0,206,207
 259 167 259 167 266 171 c 1,208,-1
 266 171 l 1,209,210
 259 174 259 174 253 180 c 0,211,212
 239.933333333 193.066666667 239.933333333 193.066666667 239.933333333 209.617777778 c 0,213,214
 239.933333333 229.928205128 239.933333333 229.928205128 253 244 c 0,215,216
 259 250 259 250 266 254 c 1,217,-1
 266 254 l 1,218,219
 259 257 259 257 253 263 c 0,220,221
 239.933333333 277 239.933333333 277 239.933333333 293.613333333 c 0,222,223
 239.933333333 315.938461538 239.933333333 315.938461538 253 328 c 0,224,225
 259 334 259 334 266 338 c 1,226,-1
 266 338 l 1,227,228
 259 340 259 340 253 346 c 0,229,230
 239.933333333 359.066666667 239.933333333 359.066666667 239.933333333 376.488888889 c 0,231,232
 239.933333333 397.933333333 239.933333333 397.933333333 253 411 c 0,233,234
 259 417 259 417 266 421 c 1,235,-1
 266 421 l 1,236,237
 259 424 259 424 253 430 c 0,238,239
 239.933333333 443.066666667 239.933333333 443.066666667 239.933333333 459.617777778 c 0,240,241
 239.933333333 480.928205128 239.933333333 480.928205128 253 495 c 0,242,243
 259 501 259 501 266 504 c 1,244,-1
 266 504 l 1,245,246
 259 507 259 507 253 513 c 0,247,248
 239.933333333 526.066666667 239.933333333 526.066666667 239.933333333 543.488888889 c 0,249,250
 239.933333333 564.933333333 239.933333333 564.933333333 253 578 c 0,251,252
 267 592 267 592 286 592 c 256,253,254
 305 592 305 592 318 578 c 0,255,256
 332 564 332 564 332 546 c 256,257,258
 332 527 332 527 318 513 c 0,259,260
 312 507 312 507 305 504 c 1,261,-1
 305 504 l 1,262,263
 313 501 313 501 318 495 c 0,264,265
 332 481 332 481 332 462 c 128,-1,266
 332 443 332 443 318 430 c 0,267,268
 312 424 312 424 305 421 c 1,269,-1
 305 421 l 1,270,271
 313 418 313 418 318 411 c 0,272,273
 332 397 332 397 332 379 c 256,274,275
 332 360 332 360 318 346 c 0,276,277
 312 340 312 340 305 338 c 1,278,-1
 305 338 l 1,279,280
 313 334 313 334 318 328 c 0,281,282
 332 314 332 314 332 296 c 0,283,284
 332 277 332 277 318 263 c 0,285,286
 312 257 312 257 305 254 c 1,287,-1
 305 254 l 1,288,289
 313 250 313 250 318 244 c 0,290,291
 332 230 332 230 332 212 c 256,292,293
 332 193 332 193 318 180 c 0,294,295
 312 174 312 174 305 171 c 1,296,-1
 305 171 l 1,297,298
 313 168 313 168 318 161 c 0,299,300
 332 147 332 147 332 129 c 256,301,302
 332 110 332 110 318 97 c 0,303,304
 312 91 312 91 305 87 c 1,305,-1
 305 87 l 1,306,307
 313 84 313 84 318 78 c 0,308,309
 332 64 332 64 332 46 c 128,-1,310
 332 28 332 28 318 14 c 128,-1,311
 304 0 304 0 286 0 c 1,312,-1
 286 0 l 1,191,192
EndSplineSet
EndChar

StartChar: dollar
Encoding: 36 36 4
Width: 600
VWidth: 750
Flags: W
LayerCount: 2
Fore
SplineSet
106 83 m 1,0,1
 88 83 88 83 74 97 c 128,-1,2
 60 111 60 111 60 129 c 256,3,4
 60 148 60 148 74 161 c 0,5,6
 88 175 88 175 106 175 c 256,7,8
 125 175 125 175 138 161 c 0,9,10
 152 147 152 147 152 129 c 256,11,12
 152 110 152 110 138 97 c 0,13,14
 124 83 124 83 106 83 c 1,15,-1
 106 83 l 1,0,1
346 83 m 1,16,17
 327 83 327 83 313 97 c 0,18,19
 299.933333333 110.066666667 299.933333333 110.066666667 299.933333333 126.617777778 c 0,20,21
 299.933333333 147.933333333 299.933333333 147.933333333 313 161 c 0,22,23
 327 175 327 175 346 175 c 256,24,25
 365 175 365 175 378 161 c 0,26,27
 392 147 392 147 392 129 c 256,28,29
 392 110 392 110 378 97 c 0,30,31
 364 83 364 83 346 83 c 1,32,-1
 346 83 l 1,16,17
406 166 m 1,33,34
 388 166 388 166 374 180 c 128,-1,35
 360 194 360 194 360 212 c 256,36,37
 360 230 360 230 374 244 c 128,-1,38
 388 258 388 258 406 258 c 256,39,40
 425 258 425 258 438 244 c 0,41,42
 452 230 452 230 452 212 c 256,43,44
 452 193 452 193 438 180 c 0,45,46
 424 166 424 166 406 166 c 1,47,-1
 406 166 l 1,33,34
106 250 m 1,48,49
 88 250 88 250 74 263 c 256,50,51
 60 278 60 278 60 296 c 0,52,53
 60 316 60 316 74 328 c 0,54,55
 87.0666666667 341.066666667 87.0666666667 341.066666667 103.617777778 341.066666667 c 0,56,57
 104.8 341.066666667 104.8 341.066666667 106 341 c 256,58,59
 107.266666667 341.066666667 107.266666667 341.066666667 108.506666667 341.066666667 c 0,60,61
 125.866666667 341.066666667 125.866666667 341.066666667 138 328 c 0,62,63
 152 314 152 314 152 296 c 0,64,65
 152 277 152 277 138 263 c 0,66,67
 124.933333333 249.933333333 124.933333333 249.933333333 108.382222222 249.933333333 c 0,68,69
 107.2 249.933333333 107.2 249.933333333 106 250 c 1,70,-1
 106 250 l 1,48,49
346 250 m 1,71,72
 327 250 327 250 313 263 c 0,73,74
 299.933333333 277 299.933333333 277 299.933333333 293.613333333 c 0,75,76
 299.933333333 315.938461538 299.933333333 315.938461538 313 328 c 0,77,78
 326.066666667 341.066666667 326.066666667 341.066666667 343.488888889 341.066666667 c 0,79,80
 344.733333333 341.066666667 344.733333333 341.066666667 346 341 c 256,81,82
 347.266666667 341.066666667 347.266666667 341.066666667 348.506666667 341.066666667 c 0,83,84
 365.866666667 341.066666667 365.866666667 341.066666667 378 328 c 0,85,86
 392 314 392 314 392 296 c 0,87,88
 392 277 392 277 378 263 c 0,89,90
 364.933333333 249.933333333 364.933333333 249.933333333 348.382222222 249.933333333 c 0,91,92
 347.2 249.933333333 347.2 249.933333333 346 250 c 1,93,-1
 346 250 l 1,71,72
46 333 m 1,94,95
 44.8 332.933333333 44.8 332.933333333 43.6177777778 332.933333333 c 0,96,97
 27.0666666667 332.933333333 27.0666666667 332.933333333 14 346 c 0,98,99
 0 360 0 360 0 379 c 256,100,101
 0 398 0 398 14 411 c 128,-1,102
 28 424 28 424 46 424 c 256,103,104
 65 424 65 424 78 411 c 0,105,106
 92 397 92 397 92 379 c 256,107,108
 92 360 92 360 78 346 c 0,109,110
 64.9333333333 332.933333333 64.9333333333 332.933333333 48.3822222222 332.933333333 c 0,111,112
 47.2 332.933333333 47.2 332.933333333 46 333 c 1,113,-1
 46 333 l 1,94,95
106 416 m 1,114,115
 88 416 88 416 74 430 c 256,116,117
 60 444 60 444 60 462 c 0,118,119
 60 481 60 481 74 495 c 256,120,121
 88 508 88 508 106 508 c 256,122,123
 125 508 125 508 138 495 c 0,124,125
 152 481 152 481 152 462 c 128,-1,126
 152 443 152 443 138 430 c 0,127,128
 124 416 124 416 106 416 c 1,129,-1
 106 416 l 1,114,115
346 416 m 1,130,131
 327 416 327 416 313 430 c 0,132,133
 299.933333333 443.066666667 299.933333333 443.066666667 299.933333333 459.617777778 c 0,134,135
 299.933333333 480.928205128 299.933333333 480.928205128 313 495 c 0,136,137
 327 508 327 508 346 508 c 256,138,139
 365 508 365 508 378 495 c 0,140,141
 392 481 392 481 392 462 c 128,-1,142
 392 443 392 443 378 430 c 0,143,144
 364 416 364 416 346 416 c 1,145,-1
 346 416 l 1,130,131
226 0 m 1,146,147
 208 0 208 0 194 14 c 128,-1,148
 180 28 180 28 180 46 c 0,149,150
 180 65 180 65 194 78 c 0,151,152
 200 84 200 84 206 87 c 1,153,-1
 206 87 l 1,154,155
 200 90 200 90 194 97 c 0,156,157
 180 111 180 111 180 129 c 256,158,159
 180 148 180 148 194 161 c 0,160,161
 200 167 200 167 206 171 c 1,162,-1
 206 171 l 1,163,164
 200 174 200 174 194 180 c 0,165,166
 180 194 180 194 180 212 c 256,167,168
 180 230 180 230 194 244 c 0,169,170
 200 250 200 250 206 254 c 1,171,-1
 206 254 l 1,172,173
 200 257 200 257 194 263 c 0,174,175
 180 278 180 278 180 296 c 0,176,177
 180 316 180 316 194 328 c 0,178,179
 200 334 200 334 206 338 c 1,180,-1
 206 338 l 1,181,182
 200 340 200 340 194 346 c 0,183,184
 180 360 180 360 180 379 c 256,185,186
 180 398 180 398 194 411 c 0,187,188
 200 417 200 417 206 421 c 1,189,-1
 206 421 l 1,190,191
 200 424 200 424 194 430 c 0,192,193
 180 444 180 444 180 462 c 0,194,195
 180 481 180 481 194 495 c 0,196,197
 200 501 200 501 206 504 c 1,198,-1
 206 504 l 1,199,200
 200 507 200 507 194 513 c 0,201,202
 180 527 180 527 180 546 c 256,203,204
 180 565 180 565 194 578 c 0,205,206
 208 592 208 592 226 592 c 256,207,208
 245 592 245 592 258 578 c 0,209,210
 272 564 272 564 272 546 c 256,211,212
 272 527 272 527 258 513 c 0,213,214
 252 507 252 507 245 504 c 1,215,-1
 245 504 l 1,216,217
 252 501 252 501 258 495 c 0,218,219
 272 481 272 481 272 462 c 128,-1,220
 272 443 272 443 258 430 c 0,221,222
 252 424 252 424 245 421 c 1,223,-1
 245 421 l 1,224,225
 252 418 252 418 258 411 c 0,226,227
 272 397 272 397 272 379 c 256,228,229
 272 360 272 360 258 346 c 0,230,231
 252 340 252 340 245 338 c 1,232,-1
 245 338 l 1,233,234
 252 334 252 334 258 328 c 0,235,236
 272 314 272 314 272 296 c 0,237,238
 272 277 272 277 258 263 c 0,239,240
 252 257 252 257 245 254 c 1,241,-1
 245 254 l 1,242,243
 252 250 252 250 258 244 c 0,244,245
 272 230 272 230 272 212 c 256,246,247
 272 193 272 193 258 180 c 0,248,249
 252 174 252 174 245 171 c 1,250,-1
 245 171 l 1,251,252
 252 168 252 168 258 161 c 0,253,254
 272 147 272 147 272 129 c 256,255,256
 272 110 272 110 258 97 c 0,257,258
 252 91 252 91 245 87 c 1,259,-1
 245 87 l 1,260,261
 252 84 252 84 258 78 c 0,262,263
 272 64 272 64 272 46 c 128,-1,264
 272 28 272 28 258 14 c 128,-1,265
 244 0 244 0 226 0 c 1,266,-1
 226 0 l 1,146,147
EndSplineSet
EndChar

StartChar: percent
Encoding: 37 37 5
Width: 600
VWidth: 750
Flags: W
LayerCount: 2
Fore
SplineSet
46 0 m 1,0,1
 28 0 28 0 14 14 c 128,-1,2
 0 28 0 28 0 46 c 0,3,4
 0 65 0 65 14 78 c 0,5,6
 28 92 28 92 46 92 c 256,7,8
 65 92 65 92 78 78 c 0,9,10
 92 64 92 64 92 46 c 128,-1,11
 92 28 92 28 78 14 c 128,-1,12
 64 0 64 0 46 0 c 1,13,-1
 46 0 l 1,0,1
106 83 m 1,14,15
 88 83 88 83 74 97 c 128,-1,16
 60 111 60 111 60 129 c 256,17,18
 60 148 60 148 74 161 c 0,19,20
 88 175 88 175 106 175 c 256,21,22
 125 175 125 175 138 161 c 0,23,24
 152 147 152 147 152 129 c 256,25,26
 152 110 152 110 138 97 c 0,27,28
 124 83 124 83 106 83 c 1,29,-1
 106 83 l 1,14,15
286 0 m 1,30,31
 267 0 267 0 253 14 c 0,32,33
 239.933333333 27.0666666667 239.933333333 27.0666666667 239.933333333 43.6177777778 c 0,34,35
 239.933333333 64.9333333333 239.933333333 64.9333333333 253 78 c 0,36,37
 259 84 259 84 266 87 c 1,38,-1
 266 87 l 1,39,40
 259 90 259 90 253 97 c 0,41,42
 239.933333333 110.066666667 239.933333333 110.066666667 239.933333333 126.617777778 c 0,43,44
 239.933333333 147.933333333 239.933333333 147.933333333 253 161 c 0,45,46
 267 175 267 175 286 175 c 256,47,48
 305 175 305 175 318 161 c 0,49,50
 332 147 332 147 332 129 c 256,51,52
 332 110 332 110 318 97 c 0,53,54
 312 91 312 91 305 87 c 1,55,-1
 305 87 l 1,56,57
 313 84 313 84 318 78 c 0,58,59
 332 64 332 64 332 46 c 128,-1,60
 332 28 332 28 318 14 c 128,-1,61
 304 0 304 0 286 0 c 1,62,-1
 286 0 l 1,30,31
406 0 m 1,63,64
 388 0 388 0 374 14 c 128,-1,65
 360 28 360 28 360 46 c 0,66,67
 360 65 360 65 374 78 c 0,68,69
 380 84 380 84 386 87 c 1,70,-1
 386 87 l 1,71,72
 378 90 378 90 374 97 c 0,73,74
 360 111 360 111 360 129 c 256,75,76
 360 148 360 148 374 161 c 0,77,78
 388 175 388 175 406 175 c 256,79,80
 425 175 425 175 438 161 c 0,81,82
 452 147 452 147 452 129 c 256,83,84
 452 110 452 110 438 97 c 0,85,86
 432 91 432 91 425 87 c 1,87,-1
 425 87 l 1,88,89
 432 84 432 84 438 78 c 0,90,91
 452 64 452 64 452 46 c 128,-1,92
 452 28 452 28 438 14 c 128,-1,93
 424 0 424 0 406 0 c 1,94,-1
 406 0 l 1,63,64
166 166 m 1,95,96
 148 166 148 166 134 180 c 128,-1,97
 120 194 120 194 120 212 c 256,98,99
 120 230 120 230 134 244 c 128,-1,100
 148 258 148 258 166 258 c 0,101,102
 185 258 185 258 198 244 c 0,103,104
 212 230 212 230 212 212 c 256,105,106
 212 193 212 193 198 180 c 0,107,108
 184 166 184 166 166 166 c 1,109,-1
 166 166 l 1,95,96
226 250 m 1,110,111
 208 250 208 250 194 263 c 0,112,113
 180 278 180 278 180 296 c 0,114,115
 180 316 180 316 194 328 c 0,116,117
 207.066666667 341.066666667 207.066666667 341.066666667 223.617777778 341.066666667 c 0,118,119
 224.8 341.066666667 224.8 341.066666667 226 341 c 256,120,121
 227.266666667 341.066666667 227.266666667 341.066666667 228.506666667 341.066666667 c 0,122,123
 245.866666667 341.066666667 245.866666667 341.066666667 258 328 c 0,124,125
 272 314 272 314 272 296 c 0,126,127
 272 277 272 277 258 263 c 256,128,129
 244.933333333 249.933333333 244.933333333 249.933333333 228.382222222 249.933333333 c 0,130,131
 227.2 249.933333333 227.2 249.933333333 226 250 c 1,132,-1
 226 250 l 1,110,111
286 333 m 1,133,134
 284.733333333 332.933333333 284.733333333 332.933333333 283.488888889 332.933333333 c 0,135,136
 266.066666667 332.933333333 266.066666667 332.933333333 253 346 c 128,-1,137
 239.933333333 359.066666667 239.933333333 359.066666667 239.933333333 376.488888889 c 0,138,139
 239.933333333 397.933333333 239.933333333 397.933333333 253 411 c 0,140,141
 267 424 267 424 286 424 c 256,142,143
 305 424 305 424 318 411 c 0,144,145
 332 397 332 397 332 379 c 256,146,147
 332 360 332 360 318 346 c 0,148,149
 304.933333333 332.933333333 304.933333333 332.933333333 288.382222222 332.933333333 c 0,150,151
 287.2 332.933333333 287.2 332.933333333 286 333 c 1,152,-1
 286 333 l 1,133,134
346 416 m 1,153,154
 327 416 327 416 313 430 c 0,155,156
 299.933333333 443.066666667 299.933333333 443.066666667 299.933333333 459.617777778 c 0,157,158
 299.933333333 480.928205128 299.933333333 480.928205128 313 495 c 0,159,160
 327 508 327 508 346 508 c 256,161,162
 365 508 365 508 378 495 c 0,163,164
 392 481 392 481 392 462 c 128,-1,165
 392 443 392 443 378 430 c 0,166,167
 364 416 364 416 346 416 c 1,168,-1
 346 416 l 1,153,154
46 416 m 1,169,170
 28 416 28 416 14 430 c 128,-1,171
 0 444 0 444 0 462 c 0,172,173
 0 481 0 481 14 495 c 0,174,175
 20 501 20 501 26 504 c 1,176,-1
 26 504 l 1,177,178
 18 507 18 507 14 513 c 0,179,180
 0 527 0 527 0 546 c 256,181,182
 0 565 0 565 14 578 c 0,183,184
 28 592 28 592 46 592 c 256,185,186
 65 592 65 592 78 578 c 0,187,188
 92 564 92 564 92 546 c 256,189,190
 92 527 92 527 78 513 c 0,191,192
 72 507 72 507 65 504 c 1,193,-1
 65 504 l 1,194,195
 72 501 72 501 78 495 c 0,196,197
 92 481 92 481 92 462 c 128,-1,198
 92 443 92 443 78 430 c 0,199,200
 64 416 64 416 46 416 c 1,201,-1
 46 416 l 1,169,170
166 416 m 1,202,203
 148 416 148 416 134 430 c 256,204,205
 120 444 120 444 120 462 c 0,206,207
 120 481 120 481 134 495 c 0,208,209
 140 501 140 501 146 504 c 1,210,-1
 146 504 l 1,211,212
 140 507 140 507 134 513 c 0,213,214
 120 527 120 527 120 546 c 256,215,216
 120 565 120 565 134 578 c 0,217,218
 148 592 148 592 166 592 c 0,219,220
 185 592 185 592 198 578 c 0,221,222
 212 564 212 564 212 546 c 256,223,224
 212 527 212 527 198 513 c 0,225,226
 192 507 192 507 185 504 c 1,227,-1
 185 504 l 1,228,229
 192 501 192 501 198 495 c 0,230,231
 212 481 212 481 212 462 c 128,-1,232
 212 443 212 443 198 430 c 256,233,234
 184 416 184 416 166 416 c 1,235,-1
 166 416 l 1,202,203
406 500 m 1,236,237
 388 500 388 500 374 513 c 0,238,239
 360 527 360 527 360 546 c 256,240,241
 360 565 360 565 374 578 c 0,242,243
 388 592 388 592 406 592 c 256,244,245
 425 592 425 592 438 578 c 0,246,247
 452 564 452 564 452 546 c 256,248,249
 452 527 452 527 438 513 c 0,250,251
 424.933333333 499.933333333 424.933333333 499.933333333 408.382222222 499.933333333 c 0,252,253
 407.2 499.933333333 407.2 499.933333333 406 500 c 1,254,-1
 406 500 l 1,236,237
EndSplineSet
EndChar

StartChar: ampersand
Encoding: 38 38 6
Width: 600
VWidth: 750
Flags: W
LayerCount: 2
Fore
SplineSet
106 0 m 1,0,1
 88 0 88 0 74 14 c 128,-1,2
 60 28 60 28 60 46 c 0,3,4
 60 65 60 65 74 78 c 256,5,6
 88 92 88 92 106 92 c 256,7,8
 125 92 125 92 138 78 c 0,9,10
 152 64 152 64 152 46 c 128,-1,11
 152 28 152 28 138 14 c 128,-1,12
 124 0 124 0 106 0 c 1,13,-1
 106 0 l 1,0,1
226 0 m 1,14,15
 208 0 208 0 194 14 c 128,-1,16
 180 28 180 28 180 46 c 0,17,18
 180 65 180 65 194 78 c 0,19,20
 208 92 208 92 226 92 c 256,21,22
 245 92 245 92 258 78 c 256,23,24
 272 64 272 64 272 46 c 128,-1,25
 272 28 272 28 258 14 c 128,-1,26
 244 0 244 0 226 0 c 1,27,-1
 226 0 l 1,14,15
406 0 m 1,28,29
 388 0 388 0 374 14 c 128,-1,30
 360 28 360 28 360 46 c 0,31,32
 360 65 360 65 374 78 c 0,33,34
 388 92 388 92 406 92 c 256,35,36
 425 92 425 92 438 78 c 0,37,38
 452 64 452 64 452 46 c 128,-1,39
 452 28 452 28 438 14 c 128,-1,40
 424 0 424 0 406 0 c 1,41,-1
 406 0 l 1,28,29
346 83 m 1,42,43
 327 83 327 83 313 97 c 0,44,45
 299.933333333 110.066666667 299.933333333 110.066666667 299.933333333 126.617777778 c 0,46,47
 299.933333333 147.933333333 299.933333333 147.933333333 313 161 c 0,48,49
 327 175 327 175 346 175 c 256,50,51
 365 175 365 175 378 161 c 0,52,53
 392 147 392 147 392 129 c 256,54,55
 392 110 392 110 378 97 c 0,56,57
 364 83 364 83 346 83 c 1,58,-1
 346 83 l 1,42,43
46 83 m 1,59,60
 28 83 28 83 14 97 c 128,-1,61
 0 111 0 111 0 129 c 256,62,63
 0 148 0 148 14 161 c 0,64,65
 20 167 20 167 26 171 c 1,66,-1
 26 171 l 1,67,68
 18 174 18 174 14 180 c 0,69,70
 0 194 0 194 0 212 c 256,71,72
 0 230 0 230 14 244 c 128,-1,73
 28 258 28 258 46 258 c 256,74,75
 65 258 65 258 78 244 c 0,76,77
 92 230 92 230 92 212 c 256,78,79
 92 193 92 193 78 180 c 0,80,81
 72 174 72 174 65 171 c 1,82,-1
 65 171 l 1,83,84
 72 168 72 168 78 161 c 0,85,86
 92 147 92 147 92 129 c 256,87,88
 92 110 92 110 78 97 c 0,89,90
 64 83 64 83 46 83 c 1,91,-1
 46 83 l 1,59,60
286 166 m 1,92,93
 267 166 267 166 253 180 c 0,94,95
 239.933333333 193.066666667 239.933333333 193.066666667 239.933333333 209.617777778 c 0,96,97
 239.933333333 229.928205128 239.933333333 229.928205128 253 244 c 0,98,99
 267 258 267 258 286 258 c 256,100,101
 305 258 305 258 318 244 c 0,102,103
 332 230 332 230 332 212 c 256,104,105
 332 193 332 193 318 180 c 0,106,107
 304 166 304 166 286 166 c 1,108,-1
 286 166 l 1,92,93
106 250 m 1,109,110
 88 250 88 250 74 263 c 256,111,112
 60 278 60 278 60 296 c 0,113,114
 60 316 60 316 74 328 c 0,115,116
 87.0666666667 341.066666667 87.0666666667 341.066666667 103.617777778 341.066666667 c 0,117,118
 104.8 341.066666667 104.8 341.066666667 106 341 c 256,119,120
 107.266666667 341.066666667 107.266666667 341.066666667 108.506666667 341.066666667 c 0,121,122
 125.866666667 341.066666667 125.866666667 341.066666667 138 328 c 0,123,124
 152 314 152 314 152 296 c 0,125,126
 152 277 152 277 138 263 c 0,127,128
 124.933333333 249.933333333 124.933333333 249.933333333 108.382222222 249.933333333 c 0,129,130
 107.2 249.933333333 107.2 249.933333333 106 250 c 1,131,-1
 106 250 l 1,109,110
226 250 m 1,132,133
 208 250 208 250 194 263 c 0,134,135
 180 278 180 278 180 296 c 0,136,137
 180 316 180 316 194 328 c 0,138,139
 207.066666667 341.066666667 207.066666667 341.066666667 223.617777778 341.066666667 c 0,140,141
 224.8 341.066666667 224.8 341.066666667 226 341 c 256,142,143
 227.266666667 341.066666667 227.266666667 341.066666667 228.506666667 341.066666667 c 0,144,145
 245.866666667 341.066666667 245.866666667 341.066666667 258 328 c 0,146,147
 272 314 272 314 272 296 c 0,148,149
 272 277 272 277 258 263 c 256,150,151
 244.933333333 249.933333333 244.933333333 249.933333333 228.382222222 249.933333333 c 0,152,153
 227.2 249.933333333 227.2 249.933333333 226 250 c 1,154,-1
 226 250 l 1,132,133
166 333 m 1,155,156
 164.8 332.933333333 164.8 332.933333333 163.617777778 332.933333333 c 0,157,158
 147.066666667 332.933333333 147.066666667 332.933333333 134 346 c 0,159,160
 120 360 120 360 120 379 c 256,161,162
 120 398 120 398 134 411 c 128,-1,163
 148 424 148 424 166 424 c 0,164,165
 185 424 185 424 198 411 c 0,166,167
 212 397 212 397 212 379 c 256,168,169
 212 360 212 360 198 346 c 0,170,171
 184.933333333 332.933333333 184.933333333 332.933333333 168.382222222 332.933333333 c 0,172,173
 167.2 332.933333333 167.2 332.933333333 166 333 c 1,174,-1
 166 333 l 1,155,156
286 333 m 1,175,176
 284.733333333 332.933333333 284.733333333 332.933333333 283.488888889 332.933333333 c 0,177,178
 266.066666667 332.933333333 266.066666667 332.933333333 253 346 c 128,-1,179
 239.933333333 359.066666667 239.933333333 359.066666667 239.933333333 376.488888889 c 0,180,181
 239.933333333 397.933333333 239.933333333 397.933333333 253 411 c 0,182,183
 267 424 267 424 286 424 c 256,184,185
 305 424 305 424 318 411 c 0,186,187
 332 397 332 397 332 379 c 256,188,189
 332 360 332 360 318 346 c 0,190,191
 304.933333333 332.933333333 304.933333333 332.933333333 288.382222222 332.933333333 c 0,192,193
 287.2 332.933333333 287.2 332.933333333 286 333 c 1,194,-1
 286 333 l 1,175,176
106 416 m 1,195,196
 88 416 88 416 74 430 c 256,197,198
 60 444 60 444 60 462 c 0,199,200
 60 481 60 481 74 495 c 256,201,202
 88 508 88 508 106 508 c 256,203,204
 125 508 125 508 138 495 c 0,205,206
 152 481 152 481 152 462 c 128,-1,207
 152 443 152 443 138 430 c 0,208,209
 124 416 124 416 106 416 c 1,210,-1
 106 416 l 1,195,196
346 416 m 1,211,212
 327 416 327 416 313 430 c 0,213,214
 299.933333333 443.066666667 299.933333333 443.066666667 299.933333333 459.617777778 c 0,215,216
 299.933333333 480.928205128 299.933333333 480.928205128 313 495 c 0,217,218
 327 508 327 508 346 508 c 256,219,220
 365 508 365 508 378 495 c 0,221,222
 392 481 392 481 392 462 c 128,-1,223
 392 443 392 443 378 430 c 0,224,225
 364 416 364 416 346 416 c 1,226,-1
 346 416 l 1,211,212
166 500 m 1,227,228
 148 500 148 500 134 513 c 0,229,230
 120 527 120 527 120 546 c 256,231,232
 120 565 120 565 134 578 c 0,233,234
 148 592 148 592 166 592 c 0,235,236
 185 592 185 592 198 578 c 0,237,238
 212 564 212 564 212 546 c 256,239,240
 212 527 212 527 198 513 c 0,241,242
 184.933333333 499.933333333 184.933333333 499.933333333 168.382222222 499.933333333 c 0,243,244
 167.2 499.933333333 167.2 499.933333333 166 500 c 1,245,-1
 166 500 l 1,227,228
286 500 m 1,246,247
 267 500 267 500 253 513 c 0,248,249
 239.933333333 526.066666667 239.933333333 526.066666667 239.933333333 543.488888889 c 0,250,251
 239.933333333 564.933333333 239.933333333 564.933333333 253 578 c 0,252,253
 267 592 267 592 286 592 c 256,254,255
 305 592 305 592 318 578 c 0,256,257
 332 564 332 564 332 546 c 256,258,259
 332 527 332 527 318 513 c 0,260,261
 304.933333333 499.933333333 304.933333333 499.933333333 288.382222222 499.933333333 c 0,262,263
 287.2 499.933333333 287.2 499.933333333 286 500 c 1,264,-1
 286 500 l 1,246,247
EndSplineSet
EndChar

StartChar: quotesingle
Encoding: 39 39 7
Width: 600
VWidth: 750
Flags: W
LayerCount: 2
Fore
SplineSet
166 333 m 1,0,1
 164.8 332.933333333 164.8 332.933333333 163.617777778 332.933333333 c 0,2,3
 147.066666667 332.933333333 147.066666667 332.933333333 134 346 c 0,4,5
 120 360 120 360 120 379 c 256,6,7
 120 398 120 398 134 411 c 128,-1,8
 148 424 148 424 166 424 c 0,9,10
 185 424 185 424 198 411 c 0,11,12
 212 397 212 397 212 379 c 256,13,14
 212 360 212 360 198 346 c 0,15,16
 184.933333333 332.933333333 184.933333333 332.933333333 168.382222222 332.933333333 c 0,17,18
 167.2 332.933333333 167.2 332.933333333 166 333 c 1,19,-1
 166 333 l 1,0,1
226 416 m 1,20,21
 208 416 208 416 194 430 c 128,-1,22
 180 444 180 444 180 462 c 0,23,24
 180 481 180 481 194 495 c 0,25,26
 208 508 208 508 226 508 c 256,27,28
 245 508 245 508 258 495 c 256,29,30
 272 481 272 481 272 462 c 128,-1,31
 272 443 272 443 258 430 c 256,32,33
 244 416 244 416 226 416 c 1,34,-1
 226 416 l 1,20,21
286 500 m 1,35,36
 267 500 267 500 253 513 c 0,37,38
 239.933333333 526.066666667 239.933333333 526.066666667 239.933333333 543.488888889 c 0,39,40
 239.933333333 564.933333333 239.933333333 564.933333333 253 578 c 0,41,42
 267 592 267 592 286 592 c 256,43,44
 305 592 305 592 318 578 c 0,45,46
 332 564 332 564 332 546 c 256,47,48
 332 527 332 527 318 513 c 0,49,50
 304.933333333 499.933333333 304.933333333 499.933333333 288.382222222 499.933333333 c 0,51,52
 287.2 499.933333333 287.2 499.933333333 286 500 c 1,53,-1
 286 500 l 1,35,36
EndSplineSet
EndChar

StartChar: parenleft
Encoding: 40 40 8
Width: 600
VWidth: 750
Flags: W
LayerCount: 2
Fore
SplineSet
286 0 m 1,0,1
 267 0 267 0 253 14 c 0,2,3
 239.933333333 27.0666666667 239.933333333 27.0666666667 239.933333333 43.6177777778 c 0,4,5
 239.933333333 64.9333333333 239.933333333 64.9333333333 253 78 c 0,6,7
 267 92 267 92 286 92 c 256,8,9
 305 92 305 92 318 78 c 256,10,11
 332 64 332 64 332 46 c 128,-1,12
 332 28 332 28 318 14 c 128,-1,13
 304 0 304 0 286 0 c 1,14,-1
 286 0 l 1,0,1
226 83 m 1,15,16
 208 83 208 83 194 97 c 128,-1,17
 180 111 180 111 180 129 c 256,18,19
 180 148 180 148 194 161 c 0,20,21
 208 175 208 175 226 175 c 256,22,23
 245 175 245 175 258 161 c 0,24,25
 272 147 272 147 272 129 c 256,26,27
 272 110 272 110 258 97 c 0,28,29
 244 83 244 83 226 83 c 1,30,-1
 226 83 l 1,15,16
166 166 m 1,31,32
 148 166 148 166 134 180 c 128,-1,33
 120 194 120 194 120 212 c 256,34,35
 120 230 120 230 134 244 c 0,36,37
 140 250 140 250 146 254 c 1,38,-1
 146 254 l 1,39,40
 140 257 140 257 134 263 c 0,41,42
 120 278 120 278 120 296 c 0,43,44
 120 316 120 316 134 328 c 0,45,46
 140 334 140 334 146 338 c 1,47,-1
 146 338 l 1,48,49
 140 340 140 340 134 346 c 0,50,51
 120 360 120 360 120 379 c 256,52,53
 120 398 120 398 134 411 c 128,-1,54
 148 424 148 424 166 424 c 0,55,56
 185 424 185 424 198 411 c 0,57,58
 212 397 212 397 212 379 c 256,59,60
 212 360 212 360 198 346 c 0,61,62
 192 340 192 340 185 338 c 1,63,-1
 185 338 l 1,64,65
 192 334 192 334 198 328 c 0,66,67
 212 314 212 314 212 296 c 0,68,69
 212 277 212 277 198 263 c 0,70,71
 192 257 192 257 185 254 c 1,72,-1
 185 254 l 1,73,74
 192 250 192 250 198 244 c 0,75,76
 212 230 212 230 212 212 c 256,77,78
 212 193 212 193 198 180 c 0,79,80
 184 166 184 166 166 166 c 1,81,-1
 166 166 l 1,31,32
226 416 m 1,82,83
 208 416 208 416 194 430 c 128,-1,84
 180 444 180 444 180 462 c 0,85,86
 180 481 180 481 194 495 c 0,87,88
 208 508 208 508 226 508 c 256,89,90
 245 508 245 508 258 495 c 256,91,92
 272 481 272 481 272 462 c 128,-1,93
 272 443 272 443 258 430 c 256,94,95
 244 416 244 416 226 416 c 1,96,-1
 226 416 l 1,82,83
286 500 m 1,97,98
 267 500 267 500 253 513 c 0,99,100
 239.933333333 526.066666667 239.933333333 526.066666667 239.933333333 543.488888889 c 0,101,102
 239.933333333 564.933333333 239.933333333 564.933333333 253 578 c 0,103,104
 267 592 267 592 286 592 c 256,105,106
 305 592 305 592 318 578 c 0,107,108
 332 564 332 564 332 546 c 256,109,110
 332 527 332 527 318 513 c 0,111,112
 304.933333333 499.933333333 304.933333333 499.933333333 288.382222222 499.933333333 c 0,113,114
 287.2 499.933333333 287.2 499.933333333 286 500 c 1,115,-1
 286 500 l 1,97,98
EndSplineSet
EndChar

StartChar: parenright
Encoding: 41 41 9
Width: 600
VWidth: 750
Flags: W
LayerCount: 2
Fore
SplineSet
166 0 m 1,0,1
 148 0 148 0 134 14 c 128,-1,2
 120 28 120 28 120 46 c 0,3,4
 120 65 120 65 134 78 c 256,5,6
 148 92 148 92 166 92 c 0,7,8
 185 92 185 92 198 78 c 256,9,10
 212 64 212 64 212 46 c 128,-1,11
 212 28 212 28 198 14 c 128,-1,12
 184 0 184 0 166 0 c 1,13,-1
 166 0 l 1,0,1
226 83 m 1,14,15
 208 83 208 83 194 97 c 128,-1,16
 180 111 180 111 180 129 c 256,17,18
 180 148 180 148 194 161 c 0,19,20
 208 175 208 175 226 175 c 256,21,22
 245 175 245 175 258 161 c 0,23,24
 272 147 272 147 272 129 c 256,25,26
 272 110 272 110 258 97 c 0,27,28
 244 83 244 83 226 83 c 1,29,-1
 226 83 l 1,14,15
286 166 m 1,30,31
 267 166 267 166 253 180 c 0,32,33
 239.933333333 193.066666667 239.933333333 193.066666667 239.933333333 209.617777778 c 0,34,35
 239.933333333 229.928205128 239.933333333 229.928205128 253 244 c 0,36,37
 259 250 259 250 266 254 c 1,38,-1
 266 254 l 1,39,40
 259 257 259 257 253 263 c 0,41,42
 239.933333333 277 239.933333333 277 239.933333333 293.613333333 c 0,43,44
 239.933333333 315.938461538 239.933333333 315.938461538 253 328 c 0,45,46
 259 334 259 334 266 338 c 1,47,-1
 266 338 l 1,48,49
 259 340 259 340 253 346 c 0,50,51
 239.933333333 359.066666667 239.933333333 359.066666667 239.933333333 376.488888889 c 0,52,53
 239.933333333 397.933333333 239.933333333 397.933333333 253 411 c 0,54,55
 267 424 267 424 286 424 c 256,56,57
 305 424 305 424 318 411 c 0,58,59
 332 397 332 397 332 379 c 256,60,61
 332 360 332 360 318 346 c 0,62,63
 312 340 312 340 305 338 c 1,64,-1
 305 338 l 1,65,66
 313 334 313 334 318 328 c 0,67,68
 332 314 332 314 332 296 c 0,69,70
 332 277 332 277 318 263 c 0,71,72
 312 257 312 257 305 254 c 1,73,-1
 305 254 l 1,74,75
 313 250 313 250 318 244 c 0,76,77
 332 230 332 230 332 212 c 256,78,79
 332 193 332 193 318 180 c 0,80,81
 304 166 304 166 286 166 c 1,82,-1
 286 166 l 1,30,31
226 416 m 1,83,84
 208 416 208 416 194 430 c 128,-1,85
 180 444 180 444 180 462 c 0,86,87
 180 481 180 481 194 495 c 0,88,89
 208 508 208 508 226 508 c 256,90,91
 245 508 245 508 258 495 c 256,92,93
 272 481 272 481 272 462 c 128,-1,94
 272 443 272 443 258 430 c 256,95,96
 244 416 244 416 226 416 c 1,97,-1
 226 416 l 1,83,84
166 500 m 1,98,99
 148 500 148 500 134 513 c 0,100,101
 120 527 120 527 120 546 c 256,102,103
 120 565 120 565 134 578 c 0,104,105
 148 592 148 592 166 592 c 0,106,107
 185 592 185 592 198 578 c 0,108,109
 212 564 212 564 212 546 c 256,110,111
 212 527 212 527 198 513 c 0,112,113
 184.933333333 499.933333333 184.933333333 499.933333333 168.382222222 499.933333333 c 0,114,115
 167.2 499.933333333 167.2 499.933333333 166 500 c 1,116,-1
 166 500 l 1,98,99
EndSplineSet
EndChar

StartChar: asterisk
Encoding: 42 42 10
Width: 600
VWidth: 750
Flags: W
LayerCount: 2
Fore
SplineSet
46 83 m 1,0,1
 28 83 28 83 14 97 c 128,-1,2
 0 111 0 111 0 129 c 256,3,4
 0 148 0 148 14 161 c 0,5,6
 28 175 28 175 46 175 c 256,7,8
 65 175 65 175 78 161 c 0,9,10
 92 147 92 147 92 129 c 256,11,12
 92 110 92 110 78 97 c 0,13,14
 64 83 64 83 46 83 c 1,15,-1
 46 83 l 1,0,1
406 83 m 1,16,17
 388 83 388 83 374 97 c 128,-1,18
 360 111 360 111 360 129 c 256,19,20
 360 148 360 148 374 161 c 0,21,22
 388 175 388 175 406 175 c 256,23,24
 425 175 425 175 438 161 c 0,25,26
 452 147 452 147 452 129 c 256,27,28
 452 110 452 110 438 97 c 0,29,30
 424 83 424 83 406 83 c 1,31,-1
 406 83 l 1,16,17
106 166 m 1,32,33
 88 166 88 166 74 180 c 128,-1,34
 60 194 60 194 60 212 c 256,35,36
 60 230 60 230 74 244 c 128,-1,37
 88 258 88 258 106 258 c 256,38,39
 125 258 125 258 138 244 c 0,40,41
 152 230 152 230 152 212 c 256,42,43
 152 193 152 193 138 180 c 0,44,45
 124 166 124 166 106 166 c 1,46,-1
 106 166 l 1,32,33
226 83 m 1,47,48
 208 83 208 83 194 97 c 128,-1,49
 180 111 180 111 180 129 c 256,50,51
 180 148 180 148 194 161 c 0,52,53
 200 167 200 167 206 171 c 1,54,-1
 206 171 l 1,55,56
 200 174 200 174 194 180 c 0,57,58
 180 194 180 194 180 212 c 256,59,60
 180 230 180 230 194 244 c 128,-1,61
 208 258 208 258 226 258 c 256,62,63
 245 258 245 258 258 244 c 0,64,65
 272 230 272 230 272 212 c 256,66,67
 272 193 272 193 258 180 c 0,68,69
 252 174 252 174 245 171 c 1,70,-1
 245 171 l 1,71,72
 252 168 252 168 258 161 c 0,73,74
 272 147 272 147 272 129 c 256,75,76
 272 110 272 110 258 97 c 0,77,78
 244 83 244 83 226 83 c 1,79,-1
 226 83 l 1,47,48
346 166 m 1,80,81
 327 166 327 166 313 180 c 0,82,83
 299.933333333 193.066666667 299.933333333 193.066666667 299.933333333 209.617777778 c 0,84,85
 299.933333333 229.928205128 299.933333333 229.928205128 313 244 c 0,86,87
 327 258 327 258 346 258 c 256,88,89
 365 258 365 258 378 244 c 0,90,91
 392 230 392 230 392 212 c 256,92,93
 392 193 392 193 378 180 c 0,94,95
 364 166 364 166 346 166 c 1,96,-1
 346 166 l 1,80,81
166 250 m 1,97,98
 148 250 148 250 134 263 c 256,99,100
 120 278 120 278 120 296 c 0,101,102
 120 316 120 316 134 328 c 0,103,104
 147.066666667 341.066666667 147.066666667 341.066666667 163.617777778 341.066666667 c 0,105,106
 164.8 341.066666667 164.8 341.066666667 166 341 c 128,-1,107
 167.266666667 341.066666667 167.266666667 341.066666667 168.506666667 341.066666667 c 0,108,109
 185.866666667 341.066666667 185.866666667 341.066666667 198 328 c 0,110,111
 212 314 212 314 212 296 c 0,112,113
 212 277 212 277 198 263 c 256,114,115
 184.933333333 249.933333333 184.933333333 249.933333333 168.382222222 249.933333333 c 0,116,117
 167.2 249.933333333 167.2 249.933333333 166 250 c 1,118,-1
 166 250 l 1,97,98
286 250 m 1,119,120
 267 250 267 250 253 263 c 0,121,122
 239.933333333 277 239.933333333 277 239.933333333 293.613333333 c 0,123,124
 239.933333333 315.938461538 239.933333333 315.938461538 253 328 c 0,125,126
 266.066666667 341.066666667 266.066666667 341.066666667 283.488888889 341.066666667 c 0,127,128
 284.733333333 341.066666667 284.733333333 341.066666667 286 341 c 256,129,130
 287.266666667 341.066666667 287.266666667 341.066666667 288.506666667 341.066666667 c 0,131,132
 305.866666667 341.066666667 305.866666667 341.066666667 318 328 c 0,133,134
 332 314 332 314 332 296 c 0,135,136
 332 277 332 277 318 263 c 256,137,138
 304.933333333 249.933333333 304.933333333 249.933333333 288.382222222 249.933333333 c 0,139,140
 287.2 249.933333333 287.2 249.933333333 286 250 c 1,141,-1
 286 250 l 1,119,120
106 333 m 1,142,143
 104.8 332.933333333 104.8 332.933333333 103.617777778 332.933333333 c 0,144,145
 87.0666666667 332.933333333 87.0666666667 332.933333333 74 346 c 0,146,147
 60 360 60 360 60 379 c 256,148,149
 60 398 60 398 74 411 c 128,-1,150
 88 424 88 424 106 424 c 256,151,152
 125 424 125 424 138 411 c 0,153,154
 152 397 152 397 152 379 c 256,155,156
 152 360 152 360 138 346 c 0,157,158
 124.933333333 332.933333333 124.933333333 332.933333333 108.382222222 332.933333333 c 0,159,160
 107.2 332.933333333 107.2 332.933333333 106 333 c 1,161,-1
 106 333 l 1,142,143
346 333 m 1,162,163
 344.733333333 332.933333333 344.733333333 332.933333333 343.488888889 332.933333333 c 0,164,165
 326.066666667 332.933333333 326.066666667 332.933333333 313 346 c 128,-1,166
 299.933333333 359.066666667 299.933333333 359.066666667 299.933333333 376.488888889 c 0,167,168
 299.933333333 397.933333333 299.933333333 397.933333333 313 411 c 0,169,170
 327 424 327 424 346 424 c 256,171,172
 365 424 365 424 378 411 c 0,173,174
 392 397 392 397 392 379 c 256,175,176
 392 360 392 360 378 346 c 0,177,178
 364.933333333 332.933333333 364.933333333 332.933333333 348.382222222 332.933333333 c 0,179,180
 347.2 332.933333333 347.2 332.933333333 346 333 c 1,181,-1
 346 333 l 1,162,163
46 416 m 1,182,183
 28 416 28 416 14 430 c 128,-1,184
 0 444 0 444 0 462 c 0,185,186
 0 481 0 481 14 495 c 0,187,188
 28 508 28 508 46 508 c 256,189,190
 65 508 65 508 78 495 c 0,191,192
 92 481 92 481 92 462 c 128,-1,193
 92 443 92 443 78 430 c 0,194,195
 64 416 64 416 46 416 c 1,196,-1
 46 416 l 1,182,183
226 333 m 1,197,198
 224.8 332.933333333 224.8 332.933333333 223.617777778 332.933333333 c 0,199,200
 207.066666667 332.933333333 207.066666667 332.933333333 194 346 c 0,201,202
 180 360 180 360 180 379 c 256,203,204
 180 398 180 398 194 411 c 0,205,206
 200 417 200 417 206 421 c 1,207,-1
 206 421 l 1,208,209
 200 424 200 424 194 430 c 0,210,211
 180 444 180 444 180 462 c 0,212,213
 180 481 180 481 194 495 c 0,214,215
 208 508 208 508 226 508 c 256,216,217
 245 508 245 508 258 495 c 256,218,219
 272 481 272 481 272 462 c 128,-1,220
 272 443 272 443 258 430 c 0,221,222
 252 424 252 424 245 421 c 1,223,-1
 245 421 l 1,224,225
 252 418 252 418 258 411 c 0,226,227
 272 397 272 397 272 379 c 256,228,229
 272 360 272 360 258 346 c 0,230,231
 244.933333333 332.933333333 244.933333333 332.933333333 228.382222222 332.933333333 c 0,232,233
 227.2 332.933333333 227.2 332.933333333 226 333 c 1,234,-1
 226 333 l 1,197,198
406 416 m 1,235,236
 388 416 388 416 374 430 c 128,-1,237
 360 444 360 444 360 462 c 0,238,239
 360 481 360 481 374 495 c 0,240,241
 388 508 388 508 406 508 c 256,242,243
 425 508 425 508 438 495 c 0,244,245
 452 481 452 481 452 462 c 128,-1,246
 452 443 452 443 438 430 c 0,247,248
 424 416 424 416 406 416 c 1,249,-1
 406 416 l 1,235,236
EndSplineSet
EndChar

StartChar: plus
Encoding: 43 43 11
Width: 600
VWidth: 750
Flags: W
LayerCount: 2
Fore
SplineSet
226 83 m 1,0,1
 208 83 208 83 194 97 c 128,-1,2
 180 111 180 111 180 129 c 256,3,4
 180 148 180 148 194 161 c 0,5,6
 200 167 200 167 206 171 c 1,7,-1
 206 171 l 1,8,9
 200 174 200 174 194 180 c 0,10,11
 180 194 180 194 180 212 c 256,12,13
 180 230 180 230 194 244 c 128,-1,14
 208 258 208 258 226 258 c 256,15,16
 245 258 245 258 258 244 c 0,17,18
 272 230 272 230 272 212 c 256,19,20
 272 193 272 193 258 180 c 0,21,22
 252 174 252 174 245 171 c 1,23,-1
 245 171 l 1,24,25
 252 168 252 168 258 161 c 0,26,27
 272 147 272 147 272 129 c 256,28,29
 272 110 272 110 258 97 c 0,30,31
 244 83 244 83 226 83 c 1,32,-1
 226 83 l 1,0,1
46 250 m 1,33,34
 28 250 28 250 14 263 c 0,35,36
 0 278 0 278 0 296 c 0,37,38
 0 316 0 316 14 328 c 0,39,40
 27.0666666667 341.066666667 27.0666666667 341.066666667 43.6177777778 341.066666667 c 0,41,42
 44.8 341.066666667 44.8 341.066666667 46 341 c 256,43,44
 47.2666666667 341.066666667 47.2666666667 341.066666667 48.5066666667 341.066666667 c 0,45,46
 65.8666666667 341.066666667 65.8666666667 341.066666667 78 328 c 0,47,48
 92 314 92 314 92 296 c 0,49,50
 92 277 92 277 78 263 c 0,51,52
 64.9333333333 249.933333333 64.9333333333 249.933333333 48.3822222222 249.933333333 c 0,53,54
 47.2 249.933333333 47.2 249.933333333 46 250 c 1,55,-1
 46 250 l 1,33,34
166 250 m 1,56,57
 148 250 148 250 134 263 c 256,58,59
 120 278 120 278 120 296 c 0,60,61
 120 316 120 316 134 328 c 0,62,63
 147.066666667 341.066666667 147.066666667 341.066666667 163.617777778 341.066666667 c 0,64,65
 164.8 341.066666667 164.8 341.066666667 166 341 c 128,-1,66
 167.266666667 341.066666667 167.266666667 341.066666667 168.506666667 341.066666667 c 0,67,68
 185.866666667 341.066666667 185.866666667 341.066666667 198 328 c 0,69,70
 212 314 212 314 212 296 c 0,71,72
 212 277 212 277 198 263 c 256,73,74
 184.933333333 249.933333333 184.933333333 249.933333333 168.382222222 249.933333333 c 0,75,76
 167.2 249.933333333 167.2 249.933333333 166 250 c 1,77,-1
 166 250 l 1,56,57
286 250 m 1,78,79
 267 250 267 250 253 263 c 0,80,81
 239.933333333 277 239.933333333 277 239.933333333 293.613333333 c 0,82,83
 239.933333333 315.938461538 239.933333333 315.938461538 253 328 c 0,84,85
 266.066666667 341.066666667 266.066666667 341.066666667 283.488888889 341.066666667 c 0,86,87
 284.733333333 341.066666667 284.733333333 341.066666667 286 341 c 256,88,89
 287.266666667 341.066666667 287.266666667 341.066666667 288.506666667 341.066666667 c 0,90,91
 305.866666667 341.066666667 305.866666667 341.066666667 318 328 c 0,92,93
 332 314 332 314 332 296 c 0,94,95
 332 277 332 277 318 263 c 256,96,97
 304.933333333 249.933333333 304.933333333 249.933333333 288.382222222 249.933333333 c 0,98,99
 287.2 249.933333333 287.2 249.933333333 286 250 c 1,100,-1
 286 250 l 1,78,79
406 250 m 1,101,102
 388 250 388 250 374 263 c 0,103,104
 360 278 360 278 360 296 c 0,105,106
 360 316 360 316 374 328 c 0,107,108
 387.066666667 341.066666667 387.066666667 341.066666667 403.617777778 341.066666667 c 0,109,110
 404.8 341.066666667 404.8 341.066666667 406 341 c 256,111,112
 407.266666667 341.066666667 407.266666667 341.066666667 408.506666667 341.066666667 c 0,113,114
 425.866666667 341.066666667 425.866666667 341.066666667 438 328 c 0,115,116
 452 314 452 314 452 296 c 0,117,118
 452 277 452 277 438 263 c 0,119,120
 424.933333333 249.933333333 424.933333333 249.933333333 408.382222222 249.933333333 c 0,121,122
 407.2 249.933333333 407.2 249.933333333 406 250 c 1,123,-1
 406 250 l 1,101,102
226 333 m 1,124,125
 224.8 332.933333333 224.8 332.933333333 223.617777778 332.933333333 c 0,126,127
 207.066666667 332.933333333 207.066666667 332.933333333 194 346 c 0,128,129
 180 360 180 360 180 379 c 256,130,131
 180 398 180 398 194 411 c 0,132,133
 200 417 200 417 206 421 c 1,134,-1
 206 421 l 1,135,136
 200 424 200 424 194 430 c 0,137,138
 180 444 180 444 180 462 c 0,139,140
 180 481 180 481 194 495 c 0,141,142
 208 508 208 508 226 508 c 256,143,144
 245 508 245 508 258 495 c 256,145,146
 272 481 272 481 272 462 c 128,-1,147
 272 443 272 443 258 430 c 0,148,149
 252 424 252 424 245 421 c 1,150,-1
 245 421 l 1,151,152
 252 418 252 418 258 411 c 0,153,154
 272 397 272 397 272 379 c 256,155,156
 272 360 272 360 258 346 c 0,157,158
 244.933333333 332.933333333 244.933333333 332.933333333 228.382222222 332.933333333 c 0,159,160
 227.2 332.933333333 227.2 332.933333333 226 333 c 1,161,-1
 226 333 l 1,124,125
EndSplineSet
EndChar

StartChar: comma
Encoding: 44 44 12
Width: 600
VWidth: 750
Flags: W
LayerCount: 2
Fore
SplineSet
166 -83 m 1,0,1
 148 -83 148 -83 134 -70 c 0,2,3
 120 -56 120 -56 120 -38 c 256,4,5
 120 -18 120 -18 134 -4 c 0,6,7
 147 8.07142857143 147 8.07142857143 163.448979592 8.07142857143 c 0,8,9
 164.714285714 8.07142857143 164.714285714 8.07142857143 166 8 c 0,10,11
 185 8 185 8 198 -4 c 0,12,13
 212 -18 212 -18 212 -38 c 256,14,15
 212 -57 212 -57 198 -70 c 0,16,17
 184.933333333 -83.0666666667 184.933333333 -83.0666666667 168.382222222 -83.0666666667 c 0,18,19
 167.2 -83.0666666667 167.2 -83.0666666667 166 -83 c 1,20,-1
 166 -83 l 1,0,1
226 0 m 1,21,22
 208 0 208 0 194 14 c 128,-1,23
 180 28 180 28 180 46 c 0,24,25
 180 65 180 65 194 78 c 0,26,27
 208 92 208 92 226 92 c 256,28,29
 245 92 245 92 258 78 c 256,30,31
 272 64 272 64 272 46 c 128,-1,32
 272 28 272 28 258 14 c 128,-1,33
 244 0 244 0 226 0 c 1,34,-1
 226 0 l 1,21,22
166 83 m 1,35,36
 148 83 148 83 134 97 c 128,-1,37
 120 111 120 111 120 129 c 256,38,39
 120 148 120 148 134 161 c 0,40,41
 148 175 148 175 166 175 c 0,42,43
 185 175 185 175 198 161 c 0,44,45
 212 147 212 147 212 129 c 256,46,47
 212 110 212 110 198 97 c 0,48,49
 184 83 184 83 166 83 c 1,50,-1
 166 83 l 1,35,36
286 83 m 1,51,52
 267 83 267 83 253 97 c 0,53,54
 239.933333333 110.066666667 239.933333333 110.066666667 239.933333333 126.617777778 c 0,55,56
 239.933333333 147.933333333 239.933333333 147.933333333 253 161 c 0,57,58
 267 175 267 175 286 175 c 256,59,60
 305 175 305 175 318 161 c 0,61,62
 332 147 332 147 332 129 c 256,63,64
 332 110 332 110 318 97 c 0,65,66
 304 83 304 83 286 83 c 1,67,-1
 286 83 l 1,51,52
226 166 m 1,68,69
 208 166 208 166 194 180 c 128,-1,70
 180 194 180 194 180 212 c 256,71,72
 180 230 180 230 194 244 c 128,-1,73
 208 258 208 258 226 258 c 256,74,75
 245 258 245 258 258 244 c 0,76,77
 272 230 272 230 272 212 c 256,78,79
 272 193 272 193 258 180 c 0,80,81
 244 166 244 166 226 166 c 1,82,-1
 226 166 l 1,68,69
EndSplineSet
EndChar

StartChar: hyphen
Encoding: 45 45 13
Width: 600
VWidth: 750
Flags: W
LayerCount: 2
Fore
SplineSet
46 250 m 1,0,1
 28 250 28 250 14 263 c 0,2,3
 0 278 0 278 0 296 c 0,4,5
 0 316 0 316 14 328 c 0,6,7
 27.0666666667 341.066666667 27.0666666667 341.066666667 43.6177777778 341.066666667 c 0,8,9
 44.8 341.066666667 44.8 341.066666667 46 341 c 256,10,11
 47.2666666667 341.066666667 47.2666666667 341.066666667 48.5066666667 341.066666667 c 0,12,13
 65.8666666667 341.066666667 65.8666666667 341.066666667 78 328 c 0,14,15
 92 314 92 314 92 296 c 0,16,17
 92 277 92 277 78 263 c 0,18,19
 64.9333333333 249.933333333 64.9333333333 249.933333333 48.3822222222 249.933333333 c 0,20,21
 47.2 249.933333333 47.2 249.933333333 46 250 c 1,22,-1
 46 250 l 1,0,1
166 250 m 1,23,24
 148 250 148 250 134 263 c 256,25,26
 120 278 120 278 120 296 c 0,27,28
 120 316 120 316 134 328 c 0,29,30
 147.066666667 341.066666667 147.066666667 341.066666667 163.617777778 341.066666667 c 0,31,32
 164.8 341.066666667 164.8 341.066666667 166 341 c 128,-1,33
 167.266666667 341.066666667 167.266666667 341.066666667 168.506666667 341.066666667 c 0,34,35
 185.866666667 341.066666667 185.866666667 341.066666667 198 328 c 0,36,37
 212 314 212 314 212 296 c 0,38,39
 212 277 212 277 198 263 c 256,40,41
 184.933333333 249.933333333 184.933333333 249.933333333 168.382222222 249.933333333 c 0,42,43
 167.2 249.933333333 167.2 249.933333333 166 250 c 1,44,-1
 166 250 l 1,23,24
286 250 m 1,45,46
 267 250 267 250 253 263 c 0,47,48
 239.933333333 277 239.933333333 277 239.933333333 293.613333333 c 0,49,50
 239.933333333 315.938461538 239.933333333 315.938461538 253 328 c 0,51,52
 266.066666667 341.066666667 266.066666667 341.066666667 283.488888889 341.066666667 c 0,53,54
 284.733333333 341.066666667 284.733333333 341.066666667 286 341 c 256,55,56
 287.266666667 341.066666667 287.266666667 341.066666667 288.506666667 341.066666667 c 0,57,58
 305.866666667 341.066666667 305.866666667 341.066666667 318 328 c 0,59,60
 332 314 332 314 332 296 c 0,61,62
 332 277 332 277 318 263 c 256,63,64
 304.933333333 249.933333333 304.933333333 249.933333333 288.382222222 249.933333333 c 0,65,66
 287.2 249.933333333 287.2 249.933333333 286 250 c 1,67,-1
 286 250 l 1,45,46
406 250 m 1,68,69
 388 250 388 250 374 263 c 0,70,71
 360 278 360 278 360 296 c 0,72,73
 360 316 360 316 374 328 c 0,74,75
 387.066666667 341.066666667 387.066666667 341.066666667 403.617777778 341.066666667 c 0,76,77
 404.8 341.066666667 404.8 341.066666667 406 341 c 256,78,79
 407.266666667 341.066666667 407.266666667 341.066666667 408.506666667 341.066666667 c 0,80,81
 425.866666667 341.066666667 425.866666667 341.066666667 438 328 c 0,82,83
 452 314 452 314 452 296 c 0,84,85
 452 277 452 277 438 263 c 0,86,87
 424.933333333 249.933333333 424.933333333 249.933333333 408.382222222 249.933333333 c 0,88,89
 407.2 249.933333333 407.2 249.933333333 406 250 c 1,90,-1
 406 250 l 1,68,69
EndSplineSet
EndChar

StartChar: period
Encoding: 46 46 14
Width: 600
VWidth: 750
Flags: W
LayerCount: 2
Fore
SplineSet
226 0 m 1,0,1
 208 0 208 0 194 14 c 128,-1,2
 180 28 180 28 180 46 c 0,3,4
 180 65 180 65 194 78 c 0,5,6
 208 92 208 92 226 92 c 256,7,8
 245 92 245 92 258 78 c 256,9,10
 272 64 272 64 272 46 c 128,-1,11
 272 28 272 28 258 14 c 128,-1,12
 244 0 244 0 226 0 c 1,13,-1
 226 0 l 1,0,1
166 83 m 1,14,15
 148 83 148 83 134 97 c 128,-1,16
 120 111 120 111 120 129 c 256,17,18
 120 148 120 148 134 161 c 0,19,20
 148 175 148 175 166 175 c 0,21,22
 185 175 185 175 198 161 c 0,23,24
 212 147 212 147 212 129 c 256,25,26
 212 110 212 110 198 97 c 0,27,28
 184 83 184 83 166 83 c 1,29,-1
 166 83 l 1,14,15
286 83 m 1,30,31
 267 83 267 83 253 97 c 0,32,33
 239.933333333 110.066666667 239.933333333 110.066666667 239.933333333 126.617777778 c 0,34,35
 239.933333333 147.933333333 239.933333333 147.933333333 253 161 c 0,36,37
 267 175 267 175 286 175 c 256,38,39
 305 175 305 175 318 161 c 0,40,41
 332 147 332 147 332 129 c 256,42,43
 332 110 332 110 318 97 c 0,44,45
 304 83 304 83 286 83 c 1,46,-1
 286 83 l 1,30,31
226 166 m 1,47,48
 208 166 208 166 194 180 c 128,-1,49
 180 194 180 194 180 212 c 256,50,51
 180 230 180 230 194 244 c 128,-1,52
 208 258 208 258 226 258 c 256,53,54
 245 258 245 258 258 244 c 0,55,56
 272 230 272 230 272 212 c 256,57,58
 272 193 272 193 258 180 c 0,59,60
 244 166 244 166 226 166 c 1,61,-1
 226 166 l 1,47,48
EndSplineSet
EndChar

StartChar: slash
Encoding: 47 47 15
Width: 600
VWidth: 750
Flags: W
LayerCount: 2
Fore
SplineSet
46 0 m 1,0,1
 28 0 28 0 14 14 c 128,-1,2
 0 28 0 28 0 46 c 0,3,4
 0 65 0 65 14 78 c 0,5,6
 28 92 28 92 46 92 c 256,7,8
 65 92 65 92 78 78 c 0,9,10
 92 64 92 64 92 46 c 128,-1,11
 92 28 92 28 78 14 c 128,-1,12
 64 0 64 0 46 0 c 1,13,-1
 46 0 l 1,0,1
106 83 m 1,14,15
 88 83 88 83 74 97 c 128,-1,16
 60 111 60 111 60 129 c 256,17,18
 60 148 60 148 74 161 c 0,19,20
 88 175 88 175 106 175 c 256,21,22
 125 175 125 175 138 161 c 0,23,24
 152 147 152 147 152 129 c 256,25,26
 152 110 152 110 138 97 c 0,27,28
 124 83 124 83 106 83 c 1,29,-1
 106 83 l 1,14,15
166 166 m 1,30,31
 148 166 148 166 134 180 c 128,-1,32
 120 194 120 194 120 212 c 256,33,34
 120 230 120 230 134 244 c 128,-1,35
 148 258 148 258 166 258 c 0,36,37
 185 258 185 258 198 244 c 0,38,39
 212 230 212 230 212 212 c 256,40,41
 212 193 212 193 198 180 c 0,42,43
 184 166 184 166 166 166 c 1,44,-1
 166 166 l 1,30,31
226 250 m 1,45,46
 208 250 208 250 194 263 c 0,47,48
 180 278 180 278 180 296 c 0,49,50
 180 316 180 316 194 328 c 0,51,52
 207.066666667 341.066666667 207.066666667 341.066666667 223.617777778 341.066666667 c 0,53,54
 224.8 341.066666667 224.8 341.066666667 226 341 c 256,55,56
 227.266666667 341.066666667 227.266666667 341.066666667 228.506666667 341.066666667 c 0,57,58
 245.866666667 341.066666667 245.866666667 341.066666667 258 328 c 0,59,60
 272 314 272 314 272 296 c 0,61,62
 272 277 272 277 258 263 c 256,63,64
 244.933333333 249.933333333 244.933333333 249.933333333 228.382222222 249.933333333 c 0,65,66
 227.2 249.933333333 227.2 249.933333333 226 250 c 1,67,-1
 226 250 l 1,45,46
286 333 m 1,68,69
 284.733333333 332.933333333 284.733333333 332.933333333 283.488888889 332.933333333 c 0,70,71
 266.066666667 332.933333333 266.066666667 332.933333333 253 346 c 128,-1,72
 239.933333333 359.066666667 239.933333333 359.066666667 239.933333333 376.488888889 c 0,73,74
 239.933333333 397.933333333 239.933333333 397.933333333 253 411 c 0,75,76
 267 424 267 424 286 424 c 256,77,78
 305 424 305 424 318 411 c 0,79,80
 332 397 332 397 332 379 c 256,81,82
 332 360 332 360 318 346 c 0,83,84
 304.933333333 332.933333333 304.933333333 332.933333333 288.382222222 332.933333333 c 0,85,86
 287.2 332.933333333 287.2 332.933333333 286 333 c 1,87,-1
 286 333 l 1,68,69
346 416 m 1,88,89
 327 416 327 416 313 430 c 0,90,91
 299.933333333 443.066666667 299.933333333 443.066666667 299.933333333 459.617777778 c 0,92,93
 299.933333333 480.928205128 299.933333333 480.928205128 313 495 c 0,94,95
 327 508 327 508 346 508 c 256,96,97
 365 508 365 508 378 495 c 0,98,99
 392 481 392 481 392 462 c 128,-1,100
 392 443 392 443 378 430 c 0,101,102
 364 416 364 416 346 416 c 1,103,-1
 346 416 l 1,88,89
406 500 m 1,104,105
 388 500 388 500 374 513 c 0,106,107
 360 527 360 527 360 546 c 256,108,109
 360 565 360 565 374 578 c 0,110,111
 388 592 388 592 406 592 c 256,112,113
 425 592 425 592 438 578 c 0,114,115
 452 564 452 564 452 546 c 256,116,117
 452 527 452 527 438 513 c 0,118,119
 424.933333333 499.933333333 424.933333333 499.933333333 408.382222222 499.933333333 c 0,120,121
 407.2 499.933333333 407.2 499.933333333 406 500 c 1,122,-1
 406 500 l 1,104,105
EndSplineSet
EndChar

StartChar: zero
Encoding: 48 48 16
Width: 600
VWidth: 750
Flags: W
LayerCount: 2
Fore
SplineSet
166 0 m 1,0,1
 148 0 148 0 134 14 c 128,-1,2
 120 28 120 28 120 46 c 0,3,4
 120 65 120 65 134 78 c 256,5,6
 148 92 148 92 166 92 c 0,7,8
 185 92 185 92 198 78 c 256,9,10
 212 64 212 64 212 46 c 128,-1,11
 212 28 212 28 198 14 c 128,-1,12
 184 0 184 0 166 0 c 1,13,-1
 166 0 l 1,0,1
286 0 m 1,14,15
 267 0 267 0 253 14 c 0,16,17
 239.933333333 27.0666666667 239.933333333 27.0666666667 239.933333333 43.6177777778 c 0,18,19
 239.933333333 64.9333333333 239.933333333 64.9333333333 253 78 c 0,20,21
 267 92 267 92 286 92 c 256,22,23
 305 92 305 92 318 78 c 256,24,25
 332 64 332 64 332 46 c 128,-1,26
 332 28 332 28 318 14 c 128,-1,27
 304 0 304 0 286 0 c 1,28,-1
 286 0 l 1,14,15
106 83 m 1,29,30
 88 83 88 83 74 97 c 128,-1,31
 60 111 60 111 60 129 c 256,32,33
 60 148 60 148 74 161 c 0,34,35
 80 167 80 167 86 171 c 1,36,-1
 86 171 l 1,37,38
 80 174 80 174 74 180 c 0,39,40
 60 194 60 194 60 212 c 256,41,42
 60 230 60 230 74 244 c 0,43,44
 80 250 80 250 86 254 c 1,45,-1
 86 254 l 1,46,47
 80 257 80 257 74 263 c 0,48,49
 60 278 60 278 60 296 c 0,50,51
 60 316 60 316 74 328 c 0,52,53
 80 334 80 334 86 338 c 1,54,-1
 86 338 l 1,55,56
 80 340 80 340 74 346 c 0,57,58
 60 360 60 360 60 379 c 256,59,60
 60 398 60 398 74 411 c 0,61,62
 80 417 80 417 86 421 c 1,63,-1
 86 421 l 1,64,65
 80 424 80 424 74 430 c 0,66,67
 60 444 60 444 60 462 c 0,68,69
 60 481 60 481 74 495 c 256,70,71
 88 508 88 508 106 508 c 256,72,73
 125 508 125 508 138 495 c 0,74,75
 152 481 152 481 152 462 c 128,-1,76
 152 443 152 443 138 430 c 0,77,78
 132 424 132 424 125 421 c 1,79,-1
 125 421 l 1,80,81
 132 418 132 418 138 411 c 0,82,83
 152 397 152 397 152 379 c 256,84,85
 152 360 152 360 138 346 c 0,86,87
 132 340 132 340 125 338 c 1,88,-1
 125 338 l 1,89,90
 132 334 132 334 138 328 c 0,91,92
 152 314 152 314 152 296 c 0,93,94
 152 277 152 277 138 263 c 0,95,96
 132 257 132 257 125 254 c 1,97,-1
 125 254 l 1,98,99
 132 250 132 250 138 244 c 0,100,101
 152 230 152 230 152 212 c 256,102,103
 152 193 152 193 138 180 c 0,104,105
 132 174 132 174 125 171 c 1,106,-1
 125 171 l 1,107,108
 132 168 132 168 138 161 c 0,109,110
 152 147 152 147 152 129 c 256,111,112
 152 110 152 110 138 97 c 0,113,114
 124 83 124 83 106 83 c 1,115,-1
 106 83 l 1,29,30
346 83 m 1,116,117
 327 83 327 83 313 97 c 0,118,119
 299.933333333 110.066666667 299.933333333 110.066666667 299.933333333 126.617777778 c 0,120,121
 299.933333333 147.933333333 299.933333333 147.933333333 313 161 c 0,122,123
 319 167 319 167 326 171 c 1,124,-1
 326 171 l 1,125,126
 319 174 319 174 313 180 c 0,127,128
 299.933333333 193.066666667 299.933333333 193.066666667 299.933333333 209.617777778 c 0,129,130
 299.933333333 229.928205128 299.933333333 229.928205128 313 244 c 0,131,132
 319 250 319 250 326 254 c 1,133,-1
 326 254 l 1,134,135
 319 257 319 257 313 263 c 0,136,137
 299.933333333 277 299.933333333 277 299.933333333 293.613333333 c 0,138,139
 299.933333333 315.938461538 299.933333333 315.938461538 313 328 c 0,140,141
 319 334 319 334 326 338 c 1,142,-1
 326 338 l 1,143,144
 319 340 319 340 313 346 c 0,145,146
 299.933333333 359.066666667 299.933333333 359.066666667 299.933333333 376.488888889 c 0,147,148
 299.933333333 397.933333333 299.933333333 397.933333333 313 411 c 0,149,150
 319 417 319 417 326 421 c 1,151,-1
 326 421 l 1,152,153
 319 424 319 424 313 430 c 0,154,155
 299.933333333 443.066666667 299.933333333 443.066666667 299.933333333 459.617777778 c 0,156,157
 299.933333333 480.928205128 299.933333333 480.928205128 313 495 c 0,158,159
 327 508 327 508 346 508 c 256,160,161
 365 508 365 508 378 495 c 0,162,163
 392 481 392 481 392 462 c 128,-1,164
 392 443 392 443 378 430 c 0,165,166
 372 424 372 424 365 421 c 1,167,-1
 365 421 l 1,168,169
 372 418 372 418 378 411 c 0,170,171
 392 397 392 397 392 379 c 256,172,173
 392 360 392 360 378 346 c 0,174,175
 372 340 372 340 365 338 c 1,176,-1
 365 338 l 1,177,178
 372 334 372 334 378 328 c 0,179,180
 392 314 392 314 392 296 c 0,181,182
 392 277 392 277 378 263 c 0,183,184
 372 257 372 257 365 254 c 1,185,-1
 365 254 l 1,186,187
 372 250 372 250 378 244 c 0,188,189
 392 230 392 230 392 212 c 256,190,191
 392 193 392 193 378 180 c 0,192,193
 372 174 372 174 365 171 c 1,194,-1
 365 171 l 1,195,196
 372 168 372 168 378 161 c 0,197,198
 392 147 392 147 392 129 c 256,199,200
 392 110 392 110 378 97 c 0,201,202
 364 83 364 83 346 83 c 1,203,-1
 346 83 l 1,116,117
166 500 m 1,204,205
 148 500 148 500 134 513 c 0,206,207
 120 527 120 527 120 546 c 256,208,209
 120 565 120 565 134 578 c 0,210,211
 148 592 148 592 166 592 c 0,212,213
 185 592 185 592 198 578 c 0,214,215
 212 564 212 564 212 546 c 256,216,217
 212 527 212 527 198 513 c 0,218,219
 184.933333333 499.933333333 184.933333333 499.933333333 168.382222222 499.933333333 c 0,220,221
 167.2 499.933333333 167.2 499.933333333 166 500 c 1,222,-1
 166 500 l 1,204,205
286 500 m 1,223,224
 267 500 267 500 253 513 c 0,225,226
 239.933333333 526.066666667 239.933333333 526.066666667 239.933333333 543.488888889 c 0,227,228
 239.933333333 564.933333333 239.933333333 564.933333333 253 578 c 0,229,230
 267 592 267 592 286 592 c 256,231,232
 305 592 305 592 318 578 c 0,233,234
 332 564 332 564 332 546 c 256,235,236
 332 527 332 527 318 513 c 0,237,238
 304.933333333 499.933333333 304.933333333 499.933333333 288.382222222 499.933333333 c 0,239,240
 287.2 499.933333333 287.2 499.933333333 286 500 c 1,241,-1
 286 500 l 1,223,224
EndSplineSet
EndChar

StartChar: one
Encoding: 49 49 17
Width: 600
VWidth: 750
Flags: W
LayerCount: 2
Fore
SplineSet
106 0 m 1,0,1
 88 0 88 0 74 14 c 128,-1,2
 60 28 60 28 60 46 c 0,3,4
 60 65 60 65 74 78 c 256,5,6
 88 92 88 92 106 92 c 256,7,8
 125 92 125 92 138 78 c 0,9,10
 152 64 152 64 152 46 c 128,-1,11
 152 28 152 28 138 14 c 128,-1,12
 124 0 124 0 106 0 c 1,13,-1
 106 0 l 1,0,1
346 0 m 1,14,15
 327 0 327 0 313 14 c 0,16,17
 299.933333333 27.0666666667 299.933333333 27.0666666667 299.933333333 43.6177777778 c 0,18,19
 299.933333333 64.9333333333 299.933333333 64.9333333333 313 78 c 0,20,21
 327 92 327 92 346 92 c 256,22,23
 365 92 365 92 378 78 c 0,24,25
 392 64 392 64 392 46 c 128,-1,26
 392 28 392 28 378 14 c 128,-1,27
 364 0 364 0 346 0 c 1,28,-1
 346 0 l 1,14,15
106 416 m 1,29,30
 88 416 88 416 74 430 c 256,31,32
 60 444 60 444 60 462 c 0,33,34
 60 481 60 481 74 495 c 256,35,36
 88 508 88 508 106 508 c 256,37,38
 125 508 125 508 138 495 c 0,39,40
 152 481 152 481 152 462 c 128,-1,41
 152 443 152 443 138 430 c 0,42,43
 124 416 124 416 106 416 c 1,44,-1
 106 416 l 1,29,30
226 0 m 1,45,46
 208 0 208 0 194 14 c 128,-1,47
 180 28 180 28 180 46 c 0,48,49
 180 65 180 65 194 78 c 0,50,51
 200 84 200 84 206 87 c 1,52,-1
 206 87 l 1,53,54
 200 90 200 90 194 97 c 0,55,56
 180 111 180 111 180 129 c 256,57,58
 180 148 180 148 194 161 c 0,59,60
 200 167 200 167 206 171 c 1,61,-1
 206 171 l 1,62,63
 200 174 200 174 194 180 c 0,64,65
 180 194 180 194 180 212 c 256,66,67
 180 230 180 230 194 244 c 0,68,69
 200 250 200 250 206 254 c 1,70,-1
 206 254 l 1,71,72
 200 257 200 257 194 263 c 0,73,74
 180 278 180 278 180 296 c 0,75,76
 180 316 180 316 194 328 c 0,77,78
 200 334 200 334 206 338 c 1,79,-1
 206 338 l 1,80,81
 200 340 200 340 194 346 c 0,82,83
 180 360 180 360 180 379 c 256,84,85
 180 398 180 398 194 411 c 0,86,87
 200 417 200 417 206 421 c 1,88,-1
 206 421 l 1,89,90
 200 424 200 424 194 430 c 0,91,92
 180 444 180 444 180 462 c 0,93,94
 180 481 180 481 194 495 c 0,95,96
 200 501 200 501 206 504 c 1,97,-1
 206 504 l 1,98,99
 200 507 200 507 194 513 c 0,100,101
 180 527 180 527 180 546 c 256,102,103
 180 565 180 565 194 578 c 0,104,105
 208 592 208 592 226 592 c 256,106,107
 245 592 245 592 258 578 c 0,108,109
 272 564 272 564 272 546 c 256,110,111
 272 527 272 527 258 513 c 0,112,113
 252 507 252 507 245 504 c 1,114,-1
 245 504 l 1,115,116
 252 501 252 501 258 495 c 0,117,118
 272 481 272 481 272 462 c 128,-1,119
 272 443 272 443 258 430 c 0,120,121
 252 424 252 424 245 421 c 1,122,-1
 245 421 l 1,123,124
 252 418 252 418 258 411 c 0,125,126
 272 397 272 397 272 379 c 256,127,128
 272 360 272 360 258 346 c 0,129,130
 252 340 252 340 245 338 c 1,131,-1
 245 338 l 1,132,133
 252 334 252 334 258 328 c 0,134,135
 272 314 272 314 272 296 c 0,136,137
 272 277 272 277 258 263 c 0,138,139
 252 257 252 257 245 254 c 1,140,-1
 245 254 l 1,141,142
 252 250 252 250 258 244 c 0,143,144
 272 230 272 230 272 212 c 256,145,146
 272 193 272 193 258 180 c 0,147,148
 252 174 252 174 245 171 c 1,149,-1
 245 171 l 1,150,151
 252 168 252 168 258 161 c 0,152,153
 272 147 272 147 272 129 c 256,154,155
 272 110 272 110 258 97 c 0,156,157
 252 91 252 91 245 87 c 1,158,-1
 245 87 l 1,159,160
 252 84 252 84 258 78 c 0,161,162
 272 64 272 64 272 46 c 128,-1,163
 272 28 272 28 258 14 c 128,-1,164
 244 0 244 0 226 0 c 1,165,-1
 226 0 l 1,45,46
EndSplineSet
EndChar

StartChar: two
Encoding: 50 50 18
Width: 600
VWidth: 750
Flags: W
LayerCount: 2
Fore
SplineSet
46 0 m 1,0,1
 28 0 28 0 14 14 c 128,-1,2
 0 28 0 28 0 46 c 0,3,4
 0 65 0 65 14 78 c 0,5,6
 28 92 28 92 46 92 c 256,7,8
 65 92 65 92 78 78 c 0,9,10
 92 64 92 64 92 46 c 128,-1,11
 92 28 92 28 78 14 c 128,-1,12
 64 0 64 0 46 0 c 1,13,-1
 46 0 l 1,0,1
166 0 m 1,14,15
 148 0 148 0 134 14 c 128,-1,16
 120 28 120 28 120 46 c 0,17,18
 120 65 120 65 134 78 c 256,19,20
 148 92 148 92 166 92 c 0,21,22
 185 92 185 92 198 78 c 256,23,24
 212 64 212 64 212 46 c 128,-1,25
 212 28 212 28 198 14 c 128,-1,26
 184 0 184 0 166 0 c 1,27,-1
 166 0 l 1,14,15
286 0 m 1,28,29
 267 0 267 0 253 14 c 0,30,31
 239.933333333 27.0666666667 239.933333333 27.0666666667 239.933333333 43.6177777778 c 0,32,33
 239.933333333 64.9333333333 239.933333333 64.9333333333 253 78 c 0,34,35
 267 92 267 92 286 92 c 256,36,37
 305 92 305 92 318 78 c 256,38,39
 332 64 332 64 332 46 c 128,-1,40
 332 28 332 28 318 14 c 128,-1,41
 304 0 304 0 286 0 c 1,42,-1
 286 0 l 1,28,29
406 0 m 1,43,44
 388 0 388 0 374 14 c 128,-1,45
 360 28 360 28 360 46 c 0,46,47
 360 65 360 65 374 78 c 0,48,49
 388 92 388 92 406 92 c 256,50,51
 425 92 425 92 438 78 c 0,52,53
 452 64 452 64 452 46 c 128,-1,54
 452 28 452 28 438 14 c 128,-1,55
 424 0 424 0 406 0 c 1,56,-1
 406 0 l 1,43,44
106 83 m 1,57,58
 88 83 88 83 74 97 c 128,-1,59
 60 111 60 111 60 129 c 256,60,61
 60 148 60 148 74 161 c 0,62,63
 88 175 88 175 106 175 c 256,64,65
 125 175 125 175 138 161 c 0,66,67
 152 147 152 147 152 129 c 256,68,69
 152 110 152 110 138 97 c 0,70,71
 124 83 124 83 106 83 c 1,72,-1
 106 83 l 1,57,58
166 166 m 1,73,74
 148 166 148 166 134 180 c 128,-1,75
 120 194 120 194 120 212 c 256,76,77
 120 230 120 230 134 244 c 128,-1,78
 148 258 148 258 166 258 c 0,79,80
 185 258 185 258 198 244 c 0,81,82
 212 230 212 230 212 212 c 256,83,84
 212 193 212 193 198 180 c 0,85,86
 184 166 184 166 166 166 c 1,87,-1
 166 166 l 1,73,74
286 250 m 1,88,89
 267 250 267 250 253 263 c 0,90,91
 239.933333333 277 239.933333333 277 239.933333333 293.613333333 c 0,92,93
 239.933333333 315.938461538 239.933333333 315.938461538 253 328 c 0,94,95
 266.066666667 341.066666667 266.066666667 341.066666667 283.488888889 341.066666667 c 0,96,97
 284.733333333 341.066666667 284.733333333 341.066666667 286 341 c 256,98,99
 287.266666667 341.066666667 287.266666667 341.066666667 288.506666667 341.066666667 c 0,100,101
 305.866666667 341.066666667 305.866666667 341.066666667 318 328 c 0,102,103
 332 314 332 314 332 296 c 0,104,105
 332 277 332 277 318 263 c 256,106,107
 304.933333333 249.933333333 304.933333333 249.933333333 288.382222222 249.933333333 c 0,108,109
 287.2 249.933333333 287.2 249.933333333 286 250 c 1,110,-1
 286 250 l 1,88,89
346 333 m 1,111,112
 344.733333333 332.933333333 344.733333333 332.933333333 343.488888889 332.933333333 c 0,113,114
 326.066666667 332.933333333 326.066666667 332.933333333 313 346 c 128,-1,115
 299.933333333 359.066666667 299.933333333 359.066666667 299.933333333 376.488888889 c 0,116,117
 299.933333333 397.933333333 299.933333333 397.933333333 313 411 c 0,118,119
 327 424 327 424 346 424 c 256,120,121
 365 424 365 424 378 411 c 0,122,123
 392 397 392 397 392 379 c 256,124,125
 392 360 392 360 378 346 c 0,126,127
 364.933333333 332.933333333 364.933333333 332.933333333 348.382222222 332.933333333 c 0,128,129
 347.2 332.933333333 347.2 332.933333333 346 333 c 1,130,-1
 346 333 l 1,111,112
46 416 m 1,131,132
 28 416 28 416 14 430 c 128,-1,133
 0 444 0 444 0 462 c 0,134,135
 0 481 0 481 14 495 c 0,136,137
 28 508 28 508 46 508 c 256,138,139
 65 508 65 508 78 495 c 0,140,141
 92 481 92 481 92 462 c 128,-1,142
 92 443 92 443 78 430 c 0,143,144
 64 416 64 416 46 416 c 1,145,-1
 46 416 l 1,131,132
406 416 m 1,146,147
 388 416 388 416 374 430 c 128,-1,148
 360 444 360 444 360 462 c 0,149,150
 360 481 360 481 374 495 c 0,151,152
 388 508 388 508 406 508 c 256,153,154
 425 508 425 508 438 495 c 0,155,156
 452 481 452 481 452 462 c 128,-1,157
 452 443 452 443 438 430 c 0,158,159
 424 416 424 416 406 416 c 1,160,-1
 406 416 l 1,146,147
106 500 m 1,161,162
 88 500 88 500 74 513 c 0,163,164
 60 527 60 527 60 546 c 256,165,166
 60 565 60 565 74 578 c 0,167,168
 88 592 88 592 106 592 c 256,169,170
 125 592 125 592 138 578 c 0,171,172
 152 564 152 564 152 546 c 256,173,174
 152 527 152 527 138 513 c 0,175,176
 124.933333333 499.933333333 124.933333333 499.933333333 108.382222222 499.933333333 c 0,177,178
 107.2 499.933333333 107.2 499.933333333 106 500 c 1,179,-1
 106 500 l 1,161,162
226 500 m 1,180,181
 208 500 208 500 194 513 c 0,182,183
 180 527 180 527 180 546 c 256,184,185
 180 565 180 565 194 578 c 0,186,187
 208 592 208 592 226 592 c 256,188,189
 245 592 245 592 258 578 c 0,190,191
 272 564 272 564 272 546 c 256,192,193
 272 527 272 527 258 513 c 0,194,195
 244.933333333 499.933333333 244.933333333 499.933333333 228.382222222 499.933333333 c 0,196,197
 227.2 499.933333333 227.2 499.933333333 226 500 c 1,198,-1
 226 500 l 1,180,181
346 500 m 1,199,200
 327 500 327 500 313 513 c 0,201,202
 299.933333333 526.066666667 299.933333333 526.066666667 299.933333333 543.488888889 c 0,203,204
 299.933333333 564.933333333 299.933333333 564.933333333 313 578 c 0,205,206
 327 592 327 592 346 592 c 256,207,208
 365 592 365 592 378 578 c 0,209,210
 392 564 392 564 392 546 c 256,211,212
 392 527 392 527 378 513 c 0,213,214
 364.933333333 499.933333333 364.933333333 499.933333333 348.382222222 499.933333333 c 0,215,216
 347.2 499.933333333 347.2 499.933333333 346 500 c 1,217,-1
 346 500 l 1,199,200
EndSplineSet
EndChar

StartChar: three
Encoding: 51 51 19
Width: 600
VWidth: 750
Flags: W
LayerCount: 2
Fore
SplineSet
106 0 m 1,0,1
 88 0 88 0 74 14 c 128,-1,2
 60 28 60 28 60 46 c 0,3,4
 60 65 60 65 74 78 c 256,5,6
 88 92 88 92 106 92 c 256,7,8
 125 92 125 92 138 78 c 0,9,10
 152 64 152 64 152 46 c 128,-1,11
 152 28 152 28 138 14 c 128,-1,12
 124 0 124 0 106 0 c 1,13,-1
 106 0 l 1,0,1
226 0 m 1,14,15
 208 0 208 0 194 14 c 128,-1,16
 180 28 180 28 180 46 c 0,17,18
 180 65 180 65 194 78 c 0,19,20
 208 92 208 92 226 92 c 256,21,22
 245 92 245 92 258 78 c 256,23,24
 272 64 272 64 272 46 c 128,-1,25
 272 28 272 28 258 14 c 128,-1,26
 244 0 244 0 226 0 c 1,27,-1
 226 0 l 1,14,15
346 0 m 1,28,29
 327 0 327 0 313 14 c 0,30,31
 299.933333333 27.0666666667 299.933333333 27.0666666667 299.933333333 43.6177777778 c 0,32,33
 299.933333333 64.9333333333 299.933333333 64.9333333333 313 78 c 0,34,35
 327 92 327 92 346 92 c 256,36,37
 365 92 365 92 378 78 c 0,38,39
 392 64 392 64 392 46 c 128,-1,40
 392 28 392 28 378 14 c 128,-1,41
 364 0 364 0 346 0 c 1,42,-1
 346 0 l 1,28,29
46 83 m 1,43,44
 28 83 28 83 14 97 c 128,-1,45
 0 111 0 111 0 129 c 256,46,47
 0 148 0 148 14 161 c 0,48,49
 28 175 28 175 46 175 c 256,50,51
 65 175 65 175 78 161 c 0,52,53
 92 147 92 147 92 129 c 256,54,55
 92 110 92 110 78 97 c 0,56,57
 64 83 64 83 46 83 c 1,58,-1
 46 83 l 1,43,44
406 83 m 1,59,60
 388 83 388 83 374 97 c 128,-1,61
 360 111 360 111 360 129 c 256,62,63
 360 148 360 148 374 161 c 0,64,65
 380 167 380 167 386 171 c 1,66,-1
 386 171 l 1,67,68
 378 174 378 174 374 180 c 0,69,70
 360 194 360 194 360 212 c 256,71,72
 360 230 360 230 374 244 c 128,-1,73
 388 258 388 258 406 258 c 256,74,75
 425 258 425 258 438 244 c 0,76,77
 452 230 452 230 452 212 c 256,78,79
 452 193 452 193 438 180 c 0,80,81
 432 174 432 174 425 171 c 1,82,-1
 425 171 l 1,83,84
 432 168 432 168 438 161 c 0,85,86
 452 147 452 147 452 129 c 256,87,88
 452 110 452 110 438 97 c 0,89,90
 424 83 424 83 406 83 c 1,91,-1
 406 83 l 1,59,60
226 250 m 1,92,93
 208 250 208 250 194 263 c 0,94,95
 180 278 180 278 180 296 c 0,96,97
 180 316 180 316 194 328 c 0,98,99
 207.066666667 341.066666667 207.066666667 341.066666667 223.617777778 341.066666667 c 0,100,101
 224.8 341.066666667 224.8 341.066666667 226 341 c 256,102,103
 227.266666667 341.066666667 227.266666667 341.066666667 228.506666667 341.066666667 c 0,104,105
 245.866666667 341.066666667 245.866666667 341.066666667 258 328 c 0,106,107
 272 314 272 314 272 296 c 0,108,109
 272 277 272 277 258 263 c 256,110,111
 244.933333333 249.933333333 244.933333333 249.933333333 228.382222222 249.933333333 c 0,112,113
 227.2 249.933333333 227.2 249.933333333 226 250 c 1,114,-1
 226 250 l 1,92,93
346 250 m 1,115,116
 327 250 327 250 313 263 c 0,117,118
 299.933333333 277 299.933333333 277 299.933333333 293.613333333 c 0,119,120
 299.933333333 315.938461538 299.933333333 315.938461538 313 328 c 0,121,122
 326.066666667 341.066666667 326.066666667 341.066666667 343.488888889 341.066666667 c 0,123,124
 344.733333333 341.066666667 344.733333333 341.066666667 346 341 c 256,125,126
 347.266666667 341.066666667 347.266666667 341.066666667 348.506666667 341.066666667 c 0,127,128
 365.866666667 341.066666667 365.866666667 341.066666667 378 328 c 0,129,130
 392 314 392 314 392 296 c 0,131,132
 392 277 392 277 378 263 c 0,133,134
 364.933333333 249.933333333 364.933333333 249.933333333 348.382222222 249.933333333 c 0,135,136
 347.2 249.933333333 347.2 249.933333333 346 250 c 1,137,-1
 346 250 l 1,115,116
46 416 m 1,138,139
 28 416 28 416 14 430 c 128,-1,140
 0 444 0 444 0 462 c 0,141,142
 0 481 0 481 14 495 c 0,143,144
 28 508 28 508 46 508 c 256,145,146
 65 508 65 508 78 495 c 0,147,148
 92 481 92 481 92 462 c 128,-1,149
 92 443 92 443 78 430 c 0,150,151
 64 416 64 416 46 416 c 1,152,-1
 46 416 l 1,138,139
406 333 m 1,153,154
 404.8 332.933333333 404.8 332.933333333 403.617777778 332.933333333 c 0,155,156
 387.066666667 332.933333333 387.066666667 332.933333333 374 346 c 0,157,158
 360 360 360 360 360 379 c 256,159,160
 360 398 360 398 374 411 c 0,161,162
 380 417 380 417 386 421 c 1,163,-1
 386 421 l 1,164,165
 378 424 378 424 374 430 c 0,166,167
 360 444 360 444 360 462 c 0,168,169
 360 481 360 481 374 495 c 0,170,171
 388 508 388 508 406 508 c 256,172,173
 425 508 425 508 438 495 c 0,174,175
 452 481 452 481 452 462 c 128,-1,176
 452 443 452 443 438 430 c 0,177,178
 432 424 432 424 425 421 c 1,179,-1
 425 421 l 1,180,181
 432 418 432 418 438 411 c 0,182,183
 452 397 452 397 452 379 c 256,184,185
 452 360 452 360 438 346 c 0,186,187
 424.933333333 332.933333333 424.933333333 332.933333333 408.382222222 332.933333333 c 0,188,189
 407.2 332.933333333 407.2 332.933333333 406 333 c 1,190,-1
 406 333 l 1,153,154
106 500 m 1,191,192
 88 500 88 500 74 513 c 0,193,194
 60 527 60 527 60 546 c 256,195,196
 60 565 60 565 74 578 c 0,197,198
 88 592 88 592 106 592 c 256,199,200
 125 592 125 592 138 578 c 0,201,202
 152 564 152 564 152 546 c 256,203,204
 152 527 152 527 138 513 c 0,205,206
 124.933333333 499.933333333 124.933333333 499.933333333 108.382222222 499.933333333 c 0,207,208
 107.2 499.933333333 107.2 499.933333333 106 500 c 1,209,-1
 106 500 l 1,191,192
226 500 m 1,210,211
 208 500 208 500 194 513 c 0,212,213
 180 527 180 527 180 546 c 256,214,215
 180 565 180 565 194 578 c 0,216,217
 208 592 208 592 226 592 c 256,218,219
 245 592 245 592 258 578 c 0,220,221
 272 564 272 564 272 546 c 256,222,223
 272 527 272 527 258 513 c 0,224,225
 244.933333333 499.933333333 244.933333333 499.933333333 228.382222222 499.933333333 c 0,226,227
 227.2 499.933333333 227.2 499.933333333 226 500 c 1,228,-1
 226 500 l 1,210,211
346 500 m 1,229,230
 327 500 327 500 313 513 c 0,231,232
 299.933333333 526.066666667 299.933333333 526.066666667 299.933333333 543.488888889 c 0,233,234
 299.933333333 564.933333333 299.933333333 564.933333333 313 578 c 0,235,236
 327 592 327 592 346 592 c 256,237,238
 365 592 365 592 378 578 c 0,239,240
 392 564 392 564 392 546 c 256,241,242
 392 527 392 527 378 513 c 0,243,244
 364.933333333 499.933333333 364.933333333 499.933333333 348.382222222 499.933333333 c 0,245,246
 347.2 499.933333333 347.2 499.933333333 346 500 c 1,247,-1
 346 500 l 1,229,230
EndSplineSet
EndChar

StartChar: four
Encoding: 52 52 20
Width: 600
VWidth: 750
Flags: W
LayerCount: 2
Fore
SplineSet
346 0 m 1,0,1
 327 0 327 0 313 14 c 0,2,3
 299.933333333 27.0666666667 299.933333333 27.0666666667 299.933333333 43.6177777778 c 0,4,5
 299.933333333 64.9333333333 299.933333333 64.9333333333 313 78 c 0,6,7
 319 84 319 84 326 87 c 1,8,-1
 326 87 l 1,9,10
 319 90 319 90 313 97 c 0,11,12
 299.933333333 110.066666667 299.933333333 110.066666667 299.933333333 126.617777778 c 0,13,14
 299.933333333 147.933333333 299.933333333 147.933333333 313 161 c 0,15,16
 319 167 319 167 326 171 c 1,17,-1
 326 171 l 1,18,19
 319 174 319 174 313 180 c 0,20,21
 299.933333333 193.066666667 299.933333333 193.066666667 299.933333333 209.617777778 c 0,22,23
 299.933333333 229.928205128 299.933333333 229.928205128 313 244 c 0,24,25
 327 258 327 258 346 258 c 256,26,27
 365 258 365 258 378 244 c 0,28,29
 392 230 392 230 392 212 c 256,30,31
 392 193 392 193 378 180 c 0,32,33
 372 174 372 174 365 171 c 1,34,-1
 365 171 l 1,35,36
 372 168 372 168 378 161 c 0,37,38
 392 147 392 147 392 129 c 256,39,40
 392 110 392 110 378 97 c 0,41,42
 372 91 372 91 365 87 c 1,43,-1
 365 87 l 1,44,45
 372 84 372 84 378 78 c 0,46,47
 392 64 392 64 392 46 c 128,-1,48
 392 28 392 28 378 14 c 128,-1,49
 364 0 364 0 346 0 c 1,50,-1
 346 0 l 1,0,1
46 250 m 1,51,52
 28 250 28 250 14 263 c 0,53,54
 0 278 0 278 0 296 c 0,55,56
 0 316 0 316 14 328 c 0,57,58
 27.0666666667 341.066666667 27.0666666667 341.066666667 43.6177777778 341.066666667 c 0,59,60
 44.8 341.066666667 44.8 341.066666667 46 341 c 256,61,62
 47.2666666667 341.066666667 47.2666666667 341.066666667 48.5066666667 341.066666667 c 0,63,64
 65.8666666667 341.066666667 65.8666666667 341.066666667 78 328 c 0,65,66
 92 314 92 314 92 296 c 0,67,68
 92 277 92 277 78 263 c 0,69,70
 64.9333333333 249.933333333 64.9333333333 249.933333333 48.3822222222 249.933333333 c 0,71,72
 47.2 249.933333333 47.2 249.933333333 46 250 c 1,73,-1
 46 250 l 1,51,52
166 250 m 1,74,75
 148 250 148 250 134 263 c 256,76,77
 120 278 120 278 120 296 c 0,78,79
 120 316 120 316 134 328 c 0,80,81
 147.066666667 341.066666667 147.066666667 341.066666667 163.617777778 341.066666667 c 0,82,83
 164.8 341.066666667 164.8 341.066666667 166 341 c 128,-1,84
 167.266666667 341.066666667 167.266666667 341.066666667 168.506666667 341.066666667 c 0,85,86
 185.866666667 341.066666667 185.866666667 341.066666667 198 328 c 0,87,88
 212 314 212 314 212 296 c 0,89,90
 212 277 212 277 198 263 c 256,91,92
 184.933333333 249.933333333 184.933333333 249.933333333 168.382222222 249.933333333 c 0,93,94
 167.2 249.933333333 167.2 249.933333333 166 250 c 1,95,-1
 166 250 l 1,74,75
286 250 m 1,96,97
 267 250 267 250 253 263 c 0,98,99
 239.933333333 277 239.933333333 277 239.933333333 293.613333333 c 0,100,101
 239.933333333 315.938461538 239.933333333 315.938461538 253 328 c 0,102,103
 266.066666667 341.066666667 266.066666667 341.066666667 283.488888889 341.066666667 c 0,104,105
 284.733333333 341.066666667 284.733333333 341.066666667 286 341 c 256,106,107
 287.266666667 341.066666667 287.266666667 341.066666667 288.506666667 341.066666667 c 0,108,109
 305.866666667 341.066666667 305.866666667 341.066666667 318 328 c 0,110,111
 332 314 332 314 332 296 c 0,112,113
 332 277 332 277 318 263 c 256,114,115
 304.933333333 249.933333333 304.933333333 249.933333333 288.382222222 249.933333333 c 0,116,117
 287.2 249.933333333 287.2 249.933333333 286 250 c 1,118,-1
 286 250 l 1,96,97
406 250 m 1,119,120
 388 250 388 250 374 263 c 0,121,122
 360 278 360 278 360 296 c 0,123,124
 360 316 360 316 374 328 c 0,125,126
 387.066666667 341.066666667 387.066666667 341.066666667 403.617777778 341.066666667 c 0,127,128
 404.8 341.066666667 404.8 341.066666667 406 341 c 256,129,130
 407.266666667 341.066666667 407.266666667 341.066666667 408.506666667 341.066666667 c 0,131,132
 425.866666667 341.066666667 425.866666667 341.066666667 438 328 c 0,133,134
 452 314 452 314 452 296 c 0,135,136
 452 277 452 277 438 263 c 0,137,138
 424.933333333 249.933333333 424.933333333 249.933333333 408.382222222 249.933333333 c 0,139,140
 407.2 249.933333333 407.2 249.933333333 406 250 c 1,141,-1
 406 250 l 1,119,120
106 333 m 1,142,143
 104.8 332.933333333 104.8 332.933333333 103.617777778 332.933333333 c 0,144,145
 87.0666666667 332.933333333 87.0666666667 332.933333333 74 346 c 0,146,147
 60 360 60 360 60 379 c 256,148,149
 60 398 60 398 74 411 c 128,-1,150
 88 424 88 424 106 424 c 256,151,152
 125 424 125 424 138 411 c 0,153,154
 152 397 152 397 152 379 c 256,155,156
 152 360 152 360 138 346 c 0,157,158
 124.933333333 332.933333333 124.933333333 332.933333333 108.382222222 332.933333333 c 0,159,160
 107.2 332.933333333 107.2 332.933333333 106 333 c 1,161,-1
 106 333 l 1,142,143
166 416 m 1,162,163
 148 416 148 416 134 430 c 256,164,165
 120 444 120 444 120 462 c 0,166,167
 120 481 120 481 134 495 c 256,168,169
 148 508 148 508 166 508 c 0,170,171
 185 508 185 508 198 495 c 256,172,173
 212 481 212 481 212 462 c 128,-1,174
 212 443 212 443 198 430 c 256,175,176
 184 416 184 416 166 416 c 1,177,-1
 166 416 l 1,162,163
226 500 m 1,178,179
 208 500 208 500 194 513 c 0,180,181
 180 527 180 527 180 546 c 256,182,183
 180 565 180 565 194 578 c 0,184,185
 208 592 208 592 226 592 c 256,186,187
 245 592 245 592 258 578 c 0,188,189
 272 564 272 564 272 546 c 256,190,191
 272 527 272 527 258 513 c 0,192,193
 244.933333333 499.933333333 244.933333333 499.933333333 228.382222222 499.933333333 c 0,194,195
 227.2 499.933333333 227.2 499.933333333 226 500 c 1,196,-1
 226 500 l 1,178,179
346 333 m 1,197,198
 344.733333333 332.933333333 344.733333333 332.933333333 343.488888889 332.933333333 c 0,199,200
 326.066666667 332.933333333 326.066666667 332.933333333 313 346 c 128,-1,201
 299.933333333 359.066666667 299.933333333 359.066666667 299.933333333 376.488888889 c 0,202,203
 299.933333333 397.933333333 299.933333333 397.933333333 313 411 c 0,204,205
 319 417 319 417 326 421 c 1,206,-1
 326 421 l 1,207,208
 319 424 319 424 313 430 c 0,209,210
 299.933333333 443.066666667 299.933333333 443.066666667 299.933333333 459.617777778 c 0,211,212
 299.933333333 480.928205128 299.933333333 480.928205128 313 495 c 0,213,214
 319 501 319 501 326 504 c 1,215,-1
 326 504 l 1,216,217
 319 507 319 507 313 513 c 0,218,219
 299.933333333 526.066666667 299.933333333 526.066666667 299.933333333 543.488888889 c 0,220,221
 299.933333333 564.933333333 299.933333333 564.933333333 313 578 c 0,222,223
 327 592 327 592 346 592 c 256,224,225
 365 592 365 592 378 578 c 0,226,227
 392 564 392 564 392 546 c 256,228,229
 392 527 392 527 378 513 c 0,230,231
 372 507 372 507 365 504 c 1,232,-1
 365 504 l 1,233,234
 372 501 372 501 378 495 c 0,235,236
 392 481 392 481 392 462 c 128,-1,237
 392 443 392 443 378 430 c 0,238,239
 372 424 372 424 365 421 c 1,240,-1
 365 421 l 1,241,242
 372 418 372 418 378 411 c 0,243,244
 392 397 392 397 392 379 c 256,245,246
 392 360 392 360 378 346 c 0,247,248
 364.933333333 332.933333333 364.933333333 332.933333333 348.382222222 332.933333333 c 0,249,250
 347.2 332.933333333 347.2 332.933333333 346 333 c 1,251,-1
 346 333 l 1,197,198
EndSplineSet
EndChar

StartChar: five
Encoding: 53 53 21
Width: 600
VWidth: 750
Flags: W
LayerCount: 2
Fore
SplineSet
106 0 m 1,0,1
 88 0 88 0 74 14 c 128,-1,2
 60 28 60 28 60 46 c 0,3,4
 60 65 60 65 74 78 c 256,5,6
 88 92 88 92 106 92 c 256,7,8
 125 92 125 92 138 78 c 0,9,10
 152 64 152 64 152 46 c 128,-1,11
 152 28 152 28 138 14 c 128,-1,12
 124 0 124 0 106 0 c 1,13,-1
 106 0 l 1,0,1
226 0 m 1,14,15
 208 0 208 0 194 14 c 128,-1,16
 180 28 180 28 180 46 c 0,17,18
 180 65 180 65 194 78 c 0,19,20
 208 92 208 92 226 92 c 256,21,22
 245 92 245 92 258 78 c 256,23,24
 272 64 272 64 272 46 c 128,-1,25
 272 28 272 28 258 14 c 128,-1,26
 244 0 244 0 226 0 c 1,27,-1
 226 0 l 1,14,15
346 0 m 1,28,29
 327 0 327 0 313 14 c 0,30,31
 299.933333333 27.0666666667 299.933333333 27.0666666667 299.933333333 43.6177777778 c 0,32,33
 299.933333333 64.9333333333 299.933333333 64.9333333333 313 78 c 0,34,35
 327 92 327 92 346 92 c 256,36,37
 365 92 365 92 378 78 c 0,38,39
 392 64 392 64 392 46 c 128,-1,40
 392 28 392 28 378 14 c 128,-1,41
 364 0 364 0 346 0 c 1,42,-1
 346 0 l 1,28,29
46 83 m 1,43,44
 28 83 28 83 14 97 c 128,-1,45
 0 111 0 111 0 129 c 256,46,47
 0 148 0 148 14 161 c 0,48,49
 28 175 28 175 46 175 c 256,50,51
 65 175 65 175 78 161 c 0,52,53
 92 147 92 147 92 129 c 256,54,55
 92 110 92 110 78 97 c 0,56,57
 64 83 64 83 46 83 c 1,58,-1
 46 83 l 1,43,44
406 83 m 1,59,60
 388 83 388 83 374 97 c 128,-1,61
 360 111 360 111 360 129 c 256,62,63
 360 148 360 148 374 161 c 0,64,65
 380 167 380 167 386 171 c 1,66,-1
 386 171 l 1,67,68
 378 174 378 174 374 180 c 0,69,70
 360 194 360 194 360 212 c 256,71,72
 360 230 360 230 374 244 c 0,73,74
 380 250 380 250 386 254 c 1,75,-1
 386 254 l 1,76,77
 378 257 378 257 374 263 c 0,78,79
 360 278 360 278 360 296 c 0,80,81
 360 316 360 316 374 328 c 0,82,83
 387.066666667 341.066666667 387.066666667 341.066666667 403.617777778 341.066666667 c 0,84,85
 404.8 341.066666667 404.8 341.066666667 406 341 c 256,86,87
 407.266666667 341.066666667 407.266666667 341.066666667 408.506666667 341.066666667 c 0,88,89
 425.866666667 341.066666667 425.866666667 341.066666667 438 328 c 0,90,91
 452 314 452 314 452 296 c 0,92,93
 452 277 452 277 438 263 c 0,94,95
 432 257 432 257 425 254 c 1,96,-1
 425 254 l 1,97,98
 432 250 432 250 438 244 c 0,99,100
 452 230 452 230 452 212 c 256,101,102
 452 193 452 193 438 180 c 0,103,104
 432 174 432 174 425 171 c 1,105,-1
 425 171 l 1,106,107
 432 168 432 168 438 161 c 0,108,109
 452 147 452 147 452 129 c 256,110,111
 452 110 452 110 438 97 c 0,112,113
 424 83 424 83 406 83 c 1,114,-1
 406 83 l 1,59,60
166 333 m 1,115,116
 164.8 332.933333333 164.8 332.933333333 163.617777778 332.933333333 c 0,117,118
 147.066666667 332.933333333 147.066666667 332.933333333 134 346 c 0,119,120
 120 360 120 360 120 379 c 256,121,122
 120 398 120 398 134 411 c 128,-1,123
 148 424 148 424 166 424 c 0,124,125
 185 424 185 424 198 411 c 0,126,127
 212 397 212 397 212 379 c 256,128,129
 212 360 212 360 198 346 c 0,130,131
 184.933333333 332.933333333 184.933333333 332.933333333 168.382222222 332.933333333 c 0,132,133
 167.2 332.933333333 167.2 332.933333333 166 333 c 1,134,-1
 166 333 l 1,115,116
286 333 m 1,135,136
 284.733333333 332.933333333 284.733333333 332.933333333 283.488888889 332.933333333 c 0,137,138
 266.066666667 332.933333333 266.066666667 332.933333333 253 346 c 128,-1,139
 239.933333333 359.066666667 239.933333333 359.066666667 239.933333333 376.488888889 c 0,140,141
 239.933333333 397.933333333 239.933333333 397.933333333 253 411 c 0,142,143
 267 424 267 424 286 424 c 256,144,145
 305 424 305 424 318 411 c 0,146,147
 332 397 332 397 332 379 c 256,148,149
 332 360 332 360 318 346 c 0,150,151
 304.933333333 332.933333333 304.933333333 332.933333333 288.382222222 332.933333333 c 0,152,153
 287.2 332.933333333 287.2 332.933333333 286 333 c 1,154,-1
 286 333 l 1,135,136
46 333 m 1,155,156
 44.8 332.933333333 44.8 332.933333333 43.6177777778 332.933333333 c 0,157,158
 27.0666666667 332.933333333 27.0666666667 332.933333333 14 346 c 0,159,160
 0 360 0 360 0 379 c 256,161,162
 0 398 0 398 14 411 c 0,163,164
 20 417 20 417 26 421 c 1,165,-1
 26 421 l 1,166,167
 18 424 18 424 14 430 c 0,168,169
 0 444 0 444 0 462 c 0,170,171
 0 481 0 481 14 495 c 0,172,173
 20 501 20 501 26 504 c 1,174,-1
 26 504 l 1,175,176
 18 507 18 507 14 513 c 0,177,178
 0 527 0 527 0 546 c 256,179,180
 0 565 0 565 14 578 c 0,181,182
 28 592 28 592 46 592 c 256,183,184
 65 592 65 592 78 578 c 0,185,186
 92 564 92 564 92 546 c 256,187,188
 92 527 92 527 78 513 c 0,189,190
 72 507 72 507 65 504 c 1,191,-1
 65 504 l 1,192,193
 72 501 72 501 78 495 c 0,194,195
 92 481 92 481 92 462 c 128,-1,196
 92 443 92 443 78 430 c 0,197,198
 72 424 72 424 65 421 c 1,199,-1
 65 421 l 1,200,201
 72 418 72 418 78 411 c 0,202,203
 92 397 92 397 92 379 c 256,204,205
 92 360 92 360 78 346 c 0,206,207
 64.9333333333 332.933333333 64.9333333333 332.933333333 48.3822222222 332.933333333 c 0,208,209
 47.2 332.933333333 47.2 332.933333333 46 333 c 1,210,-1
 46 333 l 1,155,156
166 500 m 1,211,212
 148 500 148 500 134 513 c 0,213,214
 120 527 120 527 120 546 c 256,215,216
 120 565 120 565 134 578 c 0,217,218
 148 592 148 592 166 592 c 0,219,220
 185 592 185 592 198 578 c 0,221,222
 212 564 212 564 212 546 c 256,223,224
 212 527 212 527 198 513 c 0,225,226
 184.933333333 499.933333333 184.933333333 499.933333333 168.382222222 499.933333333 c 0,227,228
 167.2 499.933333333 167.2 499.933333333 166 500 c 1,229,-1
 166 500 l 1,211,212
286 500 m 1,230,231
 267 500 267 500 253 513 c 0,232,233
 239.933333333 526.066666667 239.933333333 526.066666667 239.933333333 543.488888889 c 0,234,235
 239.933333333 564.933333333 239.933333333 564.933333333 253 578 c 0,236,237
 267 592 267 592 286 592 c 256,238,239
 305 592 305 592 318 578 c 0,240,241
 332 564 332 564 332 546 c 256,242,243
 332 527 332 527 318 513 c 0,244,245
 304.933333333 499.933333333 304.933333333 499.933333333 288.382222222 499.933333333 c 0,246,247
 287.2 499.933333333 287.2 499.933333333 286 500 c 1,248,-1
 286 500 l 1,230,231
406 500 m 1,249,250
 388 500 388 500 374 513 c 0,251,252
 360 527 360 527 360 546 c 256,253,254
 360 565 360 565 374 578 c 0,255,256
 388 592 388 592 406 592 c 256,257,258
 425 592 425 592 438 578 c 0,259,260
 452 564 452 564 452 546 c 256,261,262
 452 527 452 527 438 513 c 0,263,264
 424.933333333 499.933333333 424.933333333 499.933333333 408.382222222 499.933333333 c 0,265,266
 407.2 499.933333333 407.2 499.933333333 406 500 c 1,267,-1
 406 500 l 1,249,250
EndSplineSet
EndChar

StartChar: six
Encoding: 54 54 22
Width: 600
VWidth: 750
Flags: W
LayerCount: 2
Fore
SplineSet
106 0 m 1,0,1
 88 0 88 0 74 14 c 128,-1,2
 60 28 60 28 60 46 c 0,3,4
 60 65 60 65 74 78 c 256,5,6
 88 92 88 92 106 92 c 256,7,8
 125 92 125 92 138 78 c 0,9,10
 152 64 152 64 152 46 c 128,-1,11
 152 28 152 28 138 14 c 128,-1,12
 124 0 124 0 106 0 c 1,13,-1
 106 0 l 1,0,1
226 0 m 1,14,15
 208 0 208 0 194 14 c 128,-1,16
 180 28 180 28 180 46 c 0,17,18
 180 65 180 65 194 78 c 0,19,20
 208 92 208 92 226 92 c 256,21,22
 245 92 245 92 258 78 c 256,23,24
 272 64 272 64 272 46 c 128,-1,25
 272 28 272 28 258 14 c 128,-1,26
 244 0 244 0 226 0 c 1,27,-1
 226 0 l 1,14,15
346 0 m 1,28,29
 327 0 327 0 313 14 c 0,30,31
 299.933333333 27.0666666667 299.933333333 27.0666666667 299.933333333 43.6177777778 c 0,32,33
 299.933333333 64.9333333333 299.933333333 64.9333333333 313 78 c 0,34,35
 327 92 327 92 346 92 c 256,36,37
 365 92 365 92 378 78 c 0,38,39
 392 64 392 64 392 46 c 128,-1,40
 392 28 392 28 378 14 c 128,-1,41
 364 0 364 0 346 0 c 1,42,-1
 346 0 l 1,28,29
46 83 m 1,43,44
 28 83 28 83 14 97 c 128,-1,45
 0 111 0 111 0 129 c 256,46,47
 0 148 0 148 14 161 c 0,48,49
 20 167 20 167 26 171 c 1,50,-1
 26 171 l 1,51,52
 18 174 18 174 14 180 c 0,53,54
 0 194 0 194 0 212 c 256,55,56
 0 230 0 230 14 244 c 128,-1,57
 28 258 28 258 46 258 c 256,58,59
 65 258 65 258 78 244 c 0,60,61
 92 230 92 230 92 212 c 256,62,63
 92 193 92 193 78 180 c 0,64,65
 72 174 72 174 65 171 c 1,66,-1
 65 171 l 1,67,68
 72 168 72 168 78 161 c 0,69,70
 92 147 92 147 92 129 c 256,71,72
 92 110 92 110 78 97 c 0,73,74
 64 83 64 83 46 83 c 1,75,-1
 46 83 l 1,43,44
406 83 m 1,76,77
 388 83 388 83 374 97 c 128,-1,78
 360 111 360 111 360 129 c 256,79,80
 360 148 360 148 374 161 c 0,81,82
 380 167 380 167 386 171 c 1,83,-1
 386 171 l 1,84,85
 378 174 378 174 374 180 c 0,86,87
 360 194 360 194 360 212 c 256,88,89
 360 230 360 230 374 244 c 128,-1,90
 388 258 388 258 406 258 c 256,91,92
 425 258 425 258 438 244 c 0,93,94
 452 230 452 230 452 212 c 256,95,96
 452 193 452 193 438 180 c 0,97,98
 432 174 432 174 425 171 c 1,99,-1
 425 171 l 1,100,101
 432 168 432 168 438 161 c 0,102,103
 452 147 452 147 452 129 c 256,104,105
 452 110 452 110 438 97 c 0,106,107
 424 83 424 83 406 83 c 1,108,-1
 406 83 l 1,76,77
106 250 m 1,109,110
 88 250 88 250 74 263 c 256,111,112
 60 278 60 278 60 296 c 0,113,114
 60 316 60 316 74 328 c 0,115,116
 87.0666666667 341.066666667 87.0666666667 341.066666667 103.617777778 341.066666667 c 0,117,118
 104.8 341.066666667 104.8 341.066666667 106 341 c 256,119,120
 107.266666667 341.066666667 107.266666667 341.066666667 108.506666667 341.066666667 c 0,121,122
 125.866666667 341.066666667 125.866666667 341.066666667 138 328 c 0,123,124
 152 314 152 314 152 296 c 0,125,126
 152 277 152 277 138 263 c 0,127,128
 124.933333333 249.933333333 124.933333333 249.933333333 108.382222222 249.933333333 c 0,129,130
 107.2 249.933333333 107.2 249.933333333 106 250 c 1,131,-1
 106 250 l 1,109,110
226 250 m 1,132,133
 208 250 208 250 194 263 c 0,134,135
 180 278 180 278 180 296 c 0,136,137
 180 316 180 316 194 328 c 0,138,139
 207.066666667 341.066666667 207.066666667 341.066666667 223.617777778 341.066666667 c 0,140,141
 224.8 341.066666667 224.8 341.066666667 226 341 c 256,142,143
 227.266666667 341.066666667 227.266666667 341.066666667 228.506666667 341.066666667 c 0,144,145
 245.866666667 341.066666667 245.866666667 341.066666667 258 328 c 0,146,147
 272 314 272 314 272 296 c 0,148,149
 272 277 272 277 258 263 c 256,150,151
 244.933333333 249.933333333 244.933333333 249.933333333 228.382222222 249.933333333 c 0,152,153
 227.2 249.933333333 227.2 249.933333333 226 250 c 1,154,-1
 226 250 l 1,132,133
346 250 m 1,155,156
 327 250 327 250 313 263 c 0,157,158
 299.933333333 277 299.933333333 277 299.933333333 293.613333333 c 0,159,160
 299.933333333 315.938461538 299.933333333 315.938461538 313 328 c 0,161,162
 326.066666667 341.066666667 326.066666667 341.066666667 343.488888889 341.066666667 c 0,163,164
 344.733333333 341.066666667 344.733333333 341.066666667 346 341 c 256,165,166
 347.266666667 341.066666667 347.266666667 341.066666667 348.506666667 341.066666667 c 0,167,168
 365.866666667 341.066666667 365.866666667 341.066666667 378 328 c 0,169,170
 392 314 392 314 392 296 c 0,171,172
 392 277 392 277 378 263 c 0,173,174
 364.933333333 249.933333333 364.933333333 249.933333333 348.382222222 249.933333333 c 0,175,176
 347.2 249.933333333 347.2 249.933333333 346 250 c 1,177,-1
 346 250 l 1,155,156
166 333 m 1,178,179
 164.8 332.933333333 164.8 332.933333333 163.617777778 332.933333333 c 0,180,181
 147.066666667 332.933333333 147.066666667 332.933333333 134 346 c 0,182,183
 120 360 120 360 120 379 c 256,184,185
 120 398 120 398 134 411 c 128,-1,186
 148 424 148 424 166 424 c 0,187,188
 185 424 185 424 198 411 c 0,189,190
 212 397 212 397 212 379 c 256,191,192
 212 360 212 360 198 346 c 0,193,194
 184.933333333 332.933333333 184.933333333 332.933333333 168.382222222 332.933333333 c 0,195,196
 167.2 332.933333333 167.2 332.933333333 166 333 c 1,197,-1
 166 333 l 1,178,179
226 416 m 1,198,199
 208 416 208 416 194 430 c 128,-1,200
 180 444 180 444 180 462 c 0,201,202
 180 481 180 481 194 495 c 0,203,204
 208 508 208 508 226 508 c 256,205,206
 245 508 245 508 258 495 c 256,207,208
 272 481 272 481 272 462 c 128,-1,209
 272 443 272 443 258 430 c 256,210,211
 244 416 244 416 226 416 c 1,212,-1
 226 416 l 1,198,199
286 500 m 1,213,214
 267 500 267 500 253 513 c 0,215,216
 239.933333333 526.066666667 239.933333333 526.066666667 239.933333333 543.488888889 c 0,217,218
 239.933333333 564.933333333 239.933333333 564.933333333 253 578 c 0,219,220
 267 592 267 592 286 592 c 256,221,222
 305 592 305 592 318 578 c 0,223,224
 332 564 332 564 332 546 c 256,225,226
 332 527 332 527 318 513 c 0,227,228
 304.933333333 499.933333333 304.933333333 499.933333333 288.382222222 499.933333333 c 0,229,230
 287.2 499.933333333 287.2 499.933333333 286 500 c 1,231,-1
 286 500 l 1,213,214
EndSplineSet
EndChar

StartChar: seven
Encoding: 55 55 23
Width: 600
VWidth: 750
Flags: W
LayerCount: 2
Fore
SplineSet
46 0 m 1,0,1
 28 0 28 0 14 14 c 128,-1,2
 0 28 0 28 0 46 c 0,3,4
 0 65 0 65 14 78 c 0,5,6
 28 92 28 92 46 92 c 256,7,8
 65 92 65 92 78 78 c 0,9,10
 92 64 92 64 92 46 c 128,-1,11
 92 28 92 28 78 14 c 128,-1,12
 64 0 64 0 46 0 c 1,13,-1
 46 0 l 1,0,1
106 83 m 1,14,15
 88 83 88 83 74 97 c 128,-1,16
 60 111 60 111 60 129 c 256,17,18
 60 148 60 148 74 161 c 0,19,20
 88 175 88 175 106 175 c 256,21,22
 125 175 125 175 138 161 c 0,23,24
 152 147 152 147 152 129 c 256,25,26
 152 110 152 110 138 97 c 0,27,28
 124 83 124 83 106 83 c 1,29,-1
 106 83 l 1,14,15
166 166 m 1,30,31
 148 166 148 166 134 180 c 128,-1,32
 120 194 120 194 120 212 c 256,33,34
 120 230 120 230 134 244 c 128,-1,35
 148 258 148 258 166 258 c 0,36,37
 185 258 185 258 198 244 c 0,38,39
 212 230 212 230 212 212 c 256,40,41
 212 193 212 193 198 180 c 0,42,43
 184 166 184 166 166 166 c 1,44,-1
 166 166 l 1,30,31
226 250 m 1,45,46
 208 250 208 250 194 263 c 0,47,48
 180 278 180 278 180 296 c 0,49,50
 180 316 180 316 194 328 c 0,51,52
 207.066666667 341.066666667 207.066666667 341.066666667 223.617777778 341.066666667 c 0,53,54
 224.8 341.066666667 224.8 341.066666667 226 341 c 256,55,56
 227.266666667 341.066666667 227.266666667 341.066666667 228.506666667 341.066666667 c 0,57,58
 245.866666667 341.066666667 245.866666667 341.066666667 258 328 c 0,59,60
 272 314 272 314 272 296 c 0,61,62
 272 277 272 277 258 263 c 256,63,64
 244.933333333 249.933333333 244.933333333 249.933333333 228.382222222 249.933333333 c 0,65,66
 227.2 249.933333333 227.2 249.933333333 226 250 c 1,67,-1
 226 250 l 1,45,46
286 333 m 1,68,69
 284.733333333 332.933333333 284.733333333 332.933333333 283.488888889 332.933333333 c 0,70,71
 266.066666667 332.933333333 266.066666667 332.933333333 253 346 c 128,-1,72
 239.933333333 359.066666667 239.933333333 359.066666667 239.933333333 376.488888889 c 0,73,74
 239.933333333 397.933333333 239.933333333 397.933333333 253 411 c 0,75,76
 267 424 267 424 286 424 c 256,77,78
 305 424 305 424 318 411 c 0,79,80
 332 397 332 397 332 379 c 256,81,82
 332 360 332 360 318 346 c 0,83,84
 304.933333333 332.933333333 304.933333333 332.933333333 288.382222222 332.933333333 c 0,85,86
 287.2 332.933333333 287.2 332.933333333 286 333 c 1,87,-1
 286 333 l 1,68,69
346 416 m 1,88,89
 327 416 327 416 313 430 c 0,90,91
 299.933333333 443.066666667 299.933333333 443.066666667 299.933333333 459.617777778 c 0,92,93
 299.933333333 480.928205128 299.933333333 480.928205128 313 495 c 0,94,95
 327 508 327 508 346 508 c 256,96,97
 365 508 365 508 378 495 c 0,98,99
 392 481 392 481 392 462 c 128,-1,100
 392 443 392 443 378 430 c 0,101,102
 364 416 364 416 346 416 c 1,103,-1
 346 416 l 1,88,89
46 500 m 1,104,105
 28 500 28 500 14 513 c 0,106,107
 0 527 0 527 0 546 c 256,108,109
 0 565 0 565 14 578 c 0,110,111
 28 592 28 592 46 592 c 256,112,113
 65 592 65 592 78 578 c 0,114,115
 92 564 92 564 92 546 c 256,116,117
 92 527 92 527 78 513 c 0,118,119
 64.9333333333 499.933333333 64.9333333333 499.933333333 48.3822222222 499.933333333 c 0,120,121
 47.2 499.933333333 47.2 499.933333333 46 500 c 1,122,-1
 46 500 l 1,104,105
166 500 m 1,123,124
 148 500 148 500 134 513 c 0,125,126
 120 527 120 527 120 546 c 256,127,128
 120 565 120 565 134 578 c 0,129,130
 148 592 148 592 166 592 c 0,131,132
 185 592 185 592 198 578 c 0,133,134
 212 564 212 564 212 546 c 256,135,136
 212 527 212 527 198 513 c 0,137,138
 184.933333333 499.933333333 184.933333333 499.933333333 168.382222222 499.933333333 c 0,139,140
 167.2 499.933333333 167.2 499.933333333 166 500 c 1,141,-1
 166 500 l 1,123,124
286 500 m 1,142,143
 267 500 267 500 253 513 c 0,144,145
 239.933333333 526.066666667 239.933333333 526.066666667 239.933333333 543.488888889 c 0,146,147
 239.933333333 564.933333333 239.933333333 564.933333333 253 578 c 0,148,149
 267 592 267 592 286 592 c 256,150,151
 305 592 305 592 318 578 c 0,152,153
 332 564 332 564 332 546 c 256,154,155
 332 527 332 527 318 513 c 0,156,157
 304.933333333 499.933333333 304.933333333 499.933333333 288.382222222 499.933333333 c 0,158,159
 287.2 499.933333333 287.2 499.933333333 286 500 c 1,160,-1
 286 500 l 1,142,143
406 500 m 1,161,162
 388 500 388 500 374 513 c 0,163,164
 360 527 360 527 360 546 c 256,165,166
 360 565 360 565 374 578 c 0,167,168
 388 592 388 592 406 592 c 256,169,170
 425 592 425 592 438 578 c 0,171,172
 452 564 452 564 452 546 c 256,173,174
 452 527 452 527 438 513 c 0,175,176
 424.933333333 499.933333333 424.933333333 499.933333333 408.382222222 499.933333333 c 0,177,178
 407.2 499.933333333 407.2 499.933333333 406 500 c 1,179,-1
 406 500 l 1,161,162
EndSplineSet
EndChar

StartChar: eight
Encoding: 56 56 24
Width: 600
VWidth: 750
Flags: W
LayerCount: 2
Fore
SplineSet
106 0 m 1,0,1
 88 0 88 0 74 14 c 128,-1,2
 60 28 60 28 60 46 c 0,3,4
 60 65 60 65 74 78 c 256,5,6
 88 92 88 92 106 92 c 256,7,8
 125 92 125 92 138 78 c 0,9,10
 152 64 152 64 152 46 c 128,-1,11
 152 28 152 28 138 14 c 128,-1,12
 124 0 124 0 106 0 c 1,13,-1
 106 0 l 1,0,1
226 0 m 1,14,15
 208 0 208 0 194 14 c 128,-1,16
 180 28 180 28 180 46 c 0,17,18
 180 65 180 65 194 78 c 0,19,20
 208 92 208 92 226 92 c 256,21,22
 245 92 245 92 258 78 c 256,23,24
 272 64 272 64 272 46 c 128,-1,25
 272 28 272 28 258 14 c 128,-1,26
 244 0 244 0 226 0 c 1,27,-1
 226 0 l 1,14,15
346 0 m 1,28,29
 327 0 327 0 313 14 c 0,30,31
 299.933333333 27.0666666667 299.933333333 27.0666666667 299.933333333 43.6177777778 c 0,32,33
 299.933333333 64.9333333333 299.933333333 64.9333333333 313 78 c 0,34,35
 327 92 327 92 346 92 c 256,36,37
 365 92 365 92 378 78 c 0,38,39
 392 64 392 64 392 46 c 128,-1,40
 392 28 392 28 378 14 c 128,-1,41
 364 0 364 0 346 0 c 1,42,-1
 346 0 l 1,28,29
46 83 m 1,43,44
 28 83 28 83 14 97 c 128,-1,45
 0 111 0 111 0 129 c 256,46,47
 0 148 0 148 14 161 c 0,48,49
 20 167 20 167 26 171 c 1,50,-1
 26 171 l 1,51,52
 18 174 18 174 14 180 c 0,53,54
 0 194 0 194 0 212 c 256,55,56
 0 230 0 230 14 244 c 128,-1,57
 28 258 28 258 46 258 c 256,58,59
 65 258 65 258 78 244 c 0,60,61
 92 230 92 230 92 212 c 256,62,63
 92 193 92 193 78 180 c 0,64,65
 72 174 72 174 65 171 c 1,66,-1
 65 171 l 1,67,68
 72 168 72 168 78 161 c 0,69,70
 92 147 92 147 92 129 c 256,71,72
 92 110 92 110 78 97 c 0,73,74
 64 83 64 83 46 83 c 1,75,-1
 46 83 l 1,43,44
406 83 m 1,76,77
 388 83 388 83 374 97 c 128,-1,78
 360 111 360 111 360 129 c 256,79,80
 360 148 360 148 374 161 c 0,81,82
 380 167 380 167 386 171 c 1,83,-1
 386 171 l 1,84,85
 378 174 378 174 374 180 c 0,86,87
 360 194 360 194 360 212 c 256,88,89
 360 230 360 230 374 244 c 128,-1,90
 388 258 388 258 406 258 c 256,91,92
 425 258 425 258 438 244 c 0,93,94
 452 230 452 230 452 212 c 256,95,96
 452 193 452 193 438 180 c 0,97,98
 432 174 432 174 425 171 c 1,99,-1
 425 171 l 1,100,101
 432 168 432 168 438 161 c 0,102,103
 452 147 452 147 452 129 c 256,104,105
 452 110 452 110 438 97 c 0,106,107
 424 83 424 83 406 83 c 1,108,-1
 406 83 l 1,76,77
106 250 m 1,109,110
 88 250 88 250 74 263 c 256,111,112
 60 278 60 278 60 296 c 0,113,114
 60 316 60 316 74 328 c 0,115,116
 87.0666666667 341.066666667 87.0666666667 341.066666667 103.617777778 341.066666667 c 0,117,118
 104.8 341.066666667 104.8 341.066666667 106 341 c 256,119,120
 107.266666667 341.066666667 107.266666667 341.066666667 108.506666667 341.066666667 c 0,121,122
 125.866666667 341.066666667 125.866666667 341.066666667 138 328 c 0,123,124
 152 314 152 314 152 296 c 0,125,126
 152 277 152 277 138 263 c 0,127,128
 124.933333333 249.933333333 124.933333333 249.933333333 108.382222222 249.933333333 c 0,129,130
 107.2 249.933333333 107.2 249.933333333 106 250 c 1,131,-1
 106 250 l 1,109,110
226 250 m 1,132,133
 208 250 208 250 194 263 c 0,134,135
 180 278 180 278 180 296 c 0,136,137
 180 316 180 316 194 328 c 0,138,139
 207.066666667 341.066666667 207.066666667 341.066666667 223.617777778 341.066666667 c 0,140,141
 224.8 341.066666667 224.8 341.066666667 226 341 c 256,142,143
 227.266666667 341.066666667 227.266666667 341.066666667 228.506666667 341.066666667 c 0,144,145
 245.866666667 341.066666667 245.866666667 341.066666667 258 328 c 0,146,147
 272 314 272 314 272 296 c 0,148,149
 272 277 272 277 258 263 c 256,150,151
 244.933333333 249.933333333 244.933333333 249.933333333 228.382222222 249.933333333 c 0,152,153
 227.2 249.933333333 227.2 249.933333333 226 250 c 1,154,-1
 226 250 l 1,132,133
346 250 m 1,155,156
 327 250 327 250 313 263 c 0,157,158
 299.933333333 277 299.933333333 277 299.933333333 293.613333333 c 0,159,160
 299.933333333 315.938461538 299.933333333 315.938461538 313 328 c 0,161,162
 326.066666667 341.066666667 326.066666667 341.066666667 343.488888889 341.066666667 c 0,163,164
 344.733333333 341.066666667 344.733333333 341.066666667 346 341 c 256,165,166
 347.266666667 341.066666667 347.266666667 341.066666667 348.506666667 341.066666667 c 0,167,168
 365.866666667 341.066666667 365.866666667 341.066666667 378 328 c 0,169,170
 392 314 392 314 392 296 c 0,171,172
 392 277 392 277 378 263 c 0,173,174
 364.933333333 249.933333333 364.933333333 249.933333333 348.382222222 249.933333333 c 0,175,176
 347.2 249.933333333 347.2 249.933333333 346 250 c 1,177,-1
 346 250 l 1,155,156
46 333 m 1,178,179
 44.8 332.933333333 44.8 332.933333333 43.6177777778 332.933333333 c 0,180,181
 27.0666666667 332.933333333 27.0666666667 332.933333333 14 346 c 0,182,183
 0 360 0 360 0 379 c 256,184,185
 0 398 0 398 14 411 c 0,186,187
 20 417 20 417 26 421 c 1,188,-1
 26 421 l 1,189,190
 18 424 18 424 14 430 c 0,191,192
 0 444 0 444 0 462 c 0,193,194
 0 481 0 481 14 495 c 0,195,196
 28 508 28 508 46 508 c 256,197,198
 65 508 65 508 78 495 c 0,199,200
 92 481 92 481 92 462 c 128,-1,201
 92 443 92 443 78 430 c 0,202,203
 72 424 72 424 65 421 c 1,204,-1
 65 421 l 1,205,206
 72 418 72 418 78 411 c 0,207,208
 92 397 92 397 92 379 c 256,209,210
 92 360 92 360 78 346 c 0,211,212
 64.9333333333 332.933333333 64.9333333333 332.933333333 48.3822222222 332.933333333 c 0,213,214
 47.2 332.933333333 47.2 332.933333333 46 333 c 1,215,-1
 46 333 l 1,178,179
406 333 m 1,216,217
 404.8 332.933333333 404.8 332.933333333 403.617777778 332.933333333 c 0,218,219
 387.066666667 332.933333333 387.066666667 332.933333333 374 346 c 0,220,221
 360 360 360 360 360 379 c 256,222,223
 360 398 360 398 374 411 c 0,224,225
 380 417 380 417 386 421 c 1,226,-1
 386 421 l 1,227,228
 378 424 378 424 374 430 c 0,229,230
 360 444 360 444 360 462 c 0,231,232
 360 481 360 481 374 495 c 0,233,234
 388 508 388 508 406 508 c 256,235,236
 425 508 425 508 438 495 c 0,237,238
 452 481 452 481 452 462 c 128,-1,239
 452 443 452 443 438 430 c 0,240,241
 432 424 432 424 425 421 c 1,242,-1
 425 421 l 1,243,244
 432 418 432 418 438 411 c 0,245,246
 452 397 452 397 452 379 c 256,247,248
 452 360 452 360 438 346 c 0,249,250
 424.933333333 332.933333333 424.933333333 332.933333333 408.382222222 332.933333333 c 0,251,252
 407.2 332.933333333 407.2 332.933333333 406 333 c 1,253,-1
 406 333 l 1,216,217
106 500 m 1,254,255
 88 500 88 500 74 513 c 0,256,257
 60 527 60 527 60 546 c 256,258,259
 60 565 60 565 74 578 c 0,260,261
 88 592 88 592 106 592 c 256,262,263
 125 592 125 592 138 578 c 0,264,265
 152 564 152 564 152 546 c 256,266,267
 152 527 152 527 138 513 c 0,268,269
 124.933333333 499.933333333 124.933333333 499.933333333 108.382222222 499.933333333 c 0,270,271
 107.2 499.933333333 107.2 499.933333333 106 500 c 1,272,-1
 106 500 l 1,254,255
226 500 m 1,273,274
 208 500 208 500 194 513 c 0,275,276
 180 527 180 527 180 546 c 256,277,278
 180 565 180 565 194 578 c 0,279,280
 208 592 208 592 226 592 c 256,281,282
 245 592 245 592 258 578 c 0,283,284
 272 564 272 564 272 546 c 256,285,286
 272 527 272 527 258 513 c 0,287,288
 244.933333333 499.933333333 244.933333333 499.933333333 228.382222222 499.933333333 c 0,289,290
 227.2 499.933333333 227.2 499.933333333 226 500 c 1,291,-1
 226 500 l 1,273,274
346 500 m 1,292,293
 327 500 327 500 313 513 c 0,294,295
 299.933333333 526.066666667 299.933333333 526.066666667 299.933333333 543.488888889 c 0,296,297
 299.933333333 564.933333333 299.933333333 564.933333333 313 578 c 0,298,299
 327 592 327 592 346 592 c 256,300,301
 365 592 365 592 378 578 c 0,302,303
 392 564 392 564 392 546 c 256,304,305
 392 527 392 527 378 513 c 0,306,307
 364.933333333 499.933333333 364.933333333 499.933333333 348.382222222 499.933333333 c 0,308,309
 347.2 499.933333333 347.2 499.933333333 346 500 c 1,310,-1
 346 500 l 1,292,293
EndSplineSet
EndChar

StartChar: nine
Encoding: 57 57 25
Width: 600
VWidth: 750
Flags: W
LayerCount: 2
Fore
SplineSet
166 0 m 1,0,1
 148 0 148 0 134 14 c 128,-1,2
 120 28 120 28 120 46 c 0,3,4
 120 65 120 65 134 78 c 256,5,6
 148 92 148 92 166 92 c 0,7,8
 185 92 185 92 198 78 c 256,9,10
 212 64 212 64 212 46 c 128,-1,11
 212 28 212 28 198 14 c 128,-1,12
 184 0 184 0 166 0 c 1,13,-1
 166 0 l 1,0,1
226 83 m 1,14,15
 208 83 208 83 194 97 c 128,-1,16
 180 111 180 111 180 129 c 256,17,18
 180 148 180 148 194 161 c 0,19,20
 208 175 208 175 226 175 c 256,21,22
 245 175 245 175 258 161 c 0,23,24
 272 147 272 147 272 129 c 256,25,26
 272 110 272 110 258 97 c 0,27,28
 244 83 244 83 226 83 c 1,29,-1
 226 83 l 1,14,15
286 166 m 1,30,31
 267 166 267 166 253 180 c 0,32,33
 239.933333333 193.066666667 239.933333333 193.066666667 239.933333333 209.617777778 c 0,34,35
 239.933333333 229.928205128 239.933333333 229.928205128 253 244 c 0,36,37
 267 258 267 258 286 258 c 256,38,39
 305 258 305 258 318 244 c 0,40,41
 332 230 332 230 332 212 c 256,42,43
 332 193 332 193 318 180 c 0,44,45
 304 166 304 166 286 166 c 1,46,-1
 286 166 l 1,30,31
106 250 m 1,47,48
 88 250 88 250 74 263 c 256,49,50
 60 278 60 278 60 296 c 0,51,52
 60 316 60 316 74 328 c 0,53,54
 87.0666666667 341.066666667 87.0666666667 341.066666667 103.617777778 341.066666667 c 0,55,56
 104.8 341.066666667 104.8 341.066666667 106 341 c 256,57,58
 107.266666667 341.066666667 107.266666667 341.066666667 108.506666667 341.066666667 c 0,59,60
 125.866666667 341.066666667 125.866666667 341.066666667 138 328 c 0,61,62
 152 314 152 314 152 296 c 0,63,64
 152 277 152 277 138 263 c 0,65,66
 124.933333333 249.933333333 124.933333333 249.933333333 108.382222222 249.933333333 c 0,67,68
 107.2 249.933333333 107.2 249.933333333 106 250 c 1,69,-1
 106 250 l 1,47,48
226 250 m 1,70,71
 208 250 208 250 194 263 c 0,72,73
 180 278 180 278 180 296 c 0,74,75
 180 316 180 316 194 328 c 0,76,77
 207.066666667 341.066666667 207.066666667 341.066666667 223.617777778 341.066666667 c 0,78,79
 224.8 341.066666667 224.8 341.066666667 226 341 c 256,80,81
 227.266666667 341.066666667 227.266666667 341.066666667 228.506666667 341.066666667 c 0,82,83
 245.866666667 341.066666667 245.866666667 341.066666667 258 328 c 0,84,85
 272 314 272 314 272 296 c 0,86,87
 272 277 272 277 258 263 c 256,88,89
 244.933333333 249.933333333 244.933333333 249.933333333 228.382222222 249.933333333 c 0,90,91
 227.2 249.933333333 227.2 249.933333333 226 250 c 1,92,-1
 226 250 l 1,70,71
346 250 m 1,93,94
 327 250 327 250 313 263 c 0,95,96
 299.933333333 277 299.933333333 277 299.933333333 293.613333333 c 0,97,98
 299.933333333 315.938461538 299.933333333 315.938461538 313 328 c 0,99,100
 326.066666667 341.066666667 326.066666667 341.066666667 343.488888889 341.066666667 c 0,101,102
 344.733333333 341.066666667 344.733333333 341.066666667 346 341 c 256,103,104
 347.266666667 341.066666667 347.266666667 341.066666667 348.506666667 341.066666667 c 0,105,106
 365.866666667 341.066666667 365.866666667 341.066666667 378 328 c 0,107,108
 392 314 392 314 392 296 c 0,109,110
 392 277 392 277 378 263 c 0,111,112
 364.933333333 249.933333333 364.933333333 249.933333333 348.382222222 249.933333333 c 0,113,114
 347.2 249.933333333 347.2 249.933333333 346 250 c 1,115,-1
 346 250 l 1,93,94
46 333 m 1,116,117
 44.8 332.933333333 44.8 332.933333333 43.6177777778 332.933333333 c 0,118,119
 27.0666666667 332.933333333 27.0666666667 332.933333333 14 346 c 0,120,121
 0 360 0 360 0 379 c 256,122,123
 0 398 0 398 14 411 c 0,124,125
 20 417 20 417 26 421 c 1,126,-1
 26 421 l 1,127,128
 18 424 18 424 14 430 c 0,129,130
 0 444 0 444 0 462 c 0,131,132
 0 481 0 481 14 495 c 0,133,134
 28 508 28 508 46 508 c 256,135,136
 65 508 65 508 78 495 c 0,137,138
 92 481 92 481 92 462 c 128,-1,139
 92 443 92 443 78 430 c 0,140,141
 72 424 72 424 65 421 c 1,142,-1
 65 421 l 1,143,144
 72 418 72 418 78 411 c 0,145,146
 92 397 92 397 92 379 c 256,147,148
 92 360 92 360 78 346 c 0,149,150
 64.9333333333 332.933333333 64.9333333333 332.933333333 48.3822222222 332.933333333 c 0,151,152
 47.2 332.933333333 47.2 332.933333333 46 333 c 1,153,-1
 46 333 l 1,116,117
406 333 m 1,154,155
 404.8 332.933333333 404.8 332.933333333 403.617777778 332.933333333 c 0,156,157
 387.066666667 332.933333333 387.066666667 332.933333333 374 346 c 0,158,159
 360 360 360 360 360 379 c 256,160,161
 360 398 360 398 374 411 c 0,162,163
 380 417 380 417 386 421 c 1,164,-1
 386 421 l 1,165,166
 378 424 378 424 374 430 c 0,167,168
 360 444 360 444 360 462 c 0,169,170
 360 481 360 481 374 495 c 0,171,172
 388 508 388 508 406 508 c 256,173,174
 425 508 425 508 438 495 c 0,175,176
 452 481 452 481 452 462 c 128,-1,177
 452 443 452 443 438 430 c 0,178,179
 432 424 432 424 425 421 c 1,180,-1
 425 421 l 1,181,182
 432 418 432 418 438 411 c 0,183,184
 452 397 452 397 452 379 c 256,185,186
 452 360 452 360 438 346 c 0,187,188
 424.933333333 332.933333333 424.933333333 332.933333333 408.382222222 332.933333333 c 0,189,190
 407.2 332.933333333 407.2 332.933333333 406 333 c 1,191,-1
 406 333 l 1,154,155
106 500 m 1,192,193
 88 500 88 500 74 513 c 0,194,195
 60 527 60 527 60 546 c 256,196,197
 60 565 60 565 74 578 c 0,198,199
 88 592 88 592 106 592 c 256,200,201
 125 592 125 592 138 578 c 0,202,203
 152 564 152 564 152 546 c 256,204,205
 152 527 152 527 138 513 c 0,206,207
 124.933333333 499.933333333 124.933333333 499.933333333 108.382222222 499.933333333 c 0,208,209
 107.2 499.933333333 107.2 499.933333333 106 500 c 1,210,-1
 106 500 l 1,192,193
226 500 m 1,211,212
 208 500 208 500 194 513 c 0,213,214
 180 527 180 527 180 546 c 256,215,216
 180 565 180 565 194 578 c 0,217,218
 208 592 208 592 226 592 c 256,219,220
 245 592 245 592 258 578 c 0,221,222
 272 564 272 564 272 546 c 256,223,224
 272 527 272 527 258 513 c 0,225,226
 244.933333333 499.933333333 244.933333333 499.933333333 228.382222222 499.933333333 c 0,227,228
 227.2 499.933333333 227.2 499.933333333 226 500 c 1,229,-1
 226 500 l 1,211,212
346 500 m 1,230,231
 327 500 327 500 313 513 c 0,232,233
 299.933333333 526.066666667 299.933333333 526.066666667 299.933333333 543.488888889 c 0,234,235
 299.933333333 564.933333333 299.933333333 564.933333333 313 578 c 0,236,237
 327 592 327 592 346 592 c 256,238,239
 365 592 365 592 378 578 c 0,240,241
 392 564 392 564 392 546 c 256,242,243
 392 527 392 527 378 513 c 0,244,245
 364.933333333 499.933333333 364.933333333 499.933333333 348.382222222 499.933333333 c 0,246,247
 347.2 499.933333333 347.2 499.933333333 346 500 c 1,248,-1
 346 500 l 1,230,231
EndSplineSet
EndChar

StartChar: colon
Encoding: 58 58 26
Width: 600
VWidth: 750
Flags: W
LayerCount: 2
Fore
SplineSet
226 0 m 1,0,1
 208 0 208 0 194 14 c 128,-1,2
 180 28 180 28 180 46 c 0,3,4
 180 65 180 65 194 78 c 0,5,6
 208 92 208 92 226 92 c 256,7,8
 245 92 245 92 258 78 c 256,9,10
 272 64 272 64 272 46 c 128,-1,11
 272 28 272 28 258 14 c 128,-1,12
 244 0 244 0 226 0 c 1,13,-1
 226 0 l 1,0,1
166 83 m 1,14,15
 148 83 148 83 134 97 c 128,-1,16
 120 111 120 111 120 129 c 256,17,18
 120 148 120 148 134 161 c 0,19,20
 148 175 148 175 166 175 c 0,21,22
 185 175 185 175 198 161 c 0,23,24
 212 147 212 147 212 129 c 256,25,26
 212 110 212 110 198 97 c 0,27,28
 184 83 184 83 166 83 c 1,29,-1
 166 83 l 1,14,15
286 83 m 1,30,31
 267 83 267 83 253 97 c 0,32,33
 239.933333333 110.066666667 239.933333333 110.066666667 239.933333333 126.617777778 c 0,34,35
 239.933333333 147.933333333 239.933333333 147.933333333 253 161 c 0,36,37
 267 175 267 175 286 175 c 256,38,39
 305 175 305 175 318 161 c 0,40,41
 332 147 332 147 332 129 c 256,42,43
 332 110 332 110 318 97 c 0,44,45
 304 83 304 83 286 83 c 1,46,-1
 286 83 l 1,30,31
226 166 m 1,47,48
 208 166 208 166 194 180 c 128,-1,49
 180 194 180 194 180 212 c 256,50,51
 180 230 180 230 194 244 c 128,-1,52
 208 258 208 258 226 258 c 256,53,54
 245 258 245 258 258 244 c 0,55,56
 272 230 272 230 272 212 c 256,57,58
 272 193 272 193 258 180 c 0,59,60
 244 166 244 166 226 166 c 1,61,-1
 226 166 l 1,47,48
226 333 m 1,62,63
 224.8 332.933333333 224.8 332.933333333 223.617777778 332.933333333 c 0,64,65
 207.066666667 332.933333333 207.066666667 332.933333333 194 346 c 0,66,67
 180 360 180 360 180 379 c 256,68,69
 180 398 180 398 194 411 c 128,-1,70
 208 424 208 424 226 424 c 256,71,72
 245 424 245 424 258 411 c 0,73,74
 272 397 272 397 272 379 c 256,75,76
 272 360 272 360 258 346 c 0,77,78
 244.933333333 332.933333333 244.933333333 332.933333333 228.382222222 332.933333333 c 0,79,80
 227.2 332.933333333 227.2 332.933333333 226 333 c 1,81,-1
 226 333 l 1,62,63
166 416 m 1,82,83
 148 416 148 416 134 430 c 256,84,85
 120 444 120 444 120 462 c 0,86,87
 120 481 120 481 134 495 c 256,88,89
 148 508 148 508 166 508 c 0,90,91
 185 508 185 508 198 495 c 256,92,93
 212 481 212 481 212 462 c 128,-1,94
 212 443 212 443 198 430 c 256,95,96
 184 416 184 416 166 416 c 1,97,-1
 166 416 l 1,82,83
286 416 m 1,98,99
 267 416 267 416 253 430 c 0,100,101
 239.933333333 443.066666667 239.933333333 443.066666667 239.933333333 459.617777778 c 0,102,103
 239.933333333 480.928205128 239.933333333 480.928205128 253 495 c 0,104,105
 267 508 267 508 286 508 c 256,106,107
 305 508 305 508 318 495 c 256,108,109
 332 481 332 481 332 462 c 128,-1,110
 332 443 332 443 318 430 c 256,111,112
 304 416 304 416 286 416 c 1,113,-1
 286 416 l 1,98,99
226 500 m 1,114,115
 208 500 208 500 194 513 c 0,116,117
 180 527 180 527 180 546 c 256,118,119
 180 565 180 565 194 578 c 0,120,121
 208 592 208 592 226 592 c 256,122,123
 245 592 245 592 258 578 c 0,124,125
 272 564 272 564 272 546 c 256,126,127
 272 527 272 527 258 513 c 0,128,129
 244.933333333 499.933333333 244.933333333 499.933333333 228.382222222 499.933333333 c 0,130,131
 227.2 499.933333333 227.2 499.933333333 226 500 c 1,132,-1
 226 500 l 1,114,115
EndSplineSet
EndChar

StartChar: semicolon
Encoding: 59 59 27
Width: 600
VWidth: 750
Flags: W
LayerCount: 2
Fore
SplineSet
166 -83 m 1,0,1
 148 -83 148 -83 134 -70 c 0,2,3
 120 -56 120 -56 120 -38 c 256,4,5
 120 -18 120 -18 134 -4 c 0,6,7
 147 8.07142857143 147 8.07142857143 163.448979592 8.07142857143 c 0,8,9
 164.714285714 8.07142857143 164.714285714 8.07142857143 166 8 c 0,10,11
 185 8 185 8 198 -4 c 0,12,13
 212 -18 212 -18 212 -38 c 256,14,15
 212 -57 212 -57 198 -70 c 0,16,17
 184.933333333 -83.0666666667 184.933333333 -83.0666666667 168.382222222 -83.0666666667 c 0,18,19
 167.2 -83.0666666667 167.2 -83.0666666667 166 -83 c 1,20,-1
 166 -83 l 1,0,1
226 0 m 1,21,22
 208 0 208 0 194 14 c 128,-1,23
 180 28 180 28 180 46 c 0,24,25
 180 65 180 65 194 78 c 0,26,27
 208 92 208 92 226 92 c 256,28,29
 245 92 245 92 258 78 c 256,30,31
 272 64 272 64 272 46 c 128,-1,32
 272 28 272 28 258 14 c 128,-1,33
 244 0 244 0 226 0 c 1,34,-1
 226 0 l 1,21,22
166 83 m 1,35,36
 148 83 148 83 134 97 c 128,-1,37
 120 111 120 111 120 129 c 256,38,39
 120 148 120 148 134 161 c 0,40,41
 148 175 148 175 166 175 c 0,42,43
 185 175 185 175 198 161 c 0,44,45
 212 147 212 147 212 129 c 256,46,47
 212 110 212 110 198 97 c 0,48,49
 184 83 184 83 166 83 c 1,50,-1
 166 83 l 1,35,36
286 83 m 1,51,52
 267 83 267 83 253 97 c 0,53,54
 239.933333333 110.066666667 239.933333333 110.066666667 239.933333333 126.617777778 c 0,55,56
 239.933333333 147.933333333 239.933333333 147.933333333 253 161 c 0,57,58
 267 175 267 175 286 175 c 256,59,60
 305 175 305 175 318 161 c 0,61,62
 332 147 332 147 332 129 c 256,63,64
 332 110 332 110 318 97 c 0,65,66
 304 83 304 83 286 83 c 1,67,-1
 286 83 l 1,51,52
226 166 m 1,68,69
 208 166 208 166 194 180 c 128,-1,70
 180 194 180 194 180 212 c 256,71,72
 180 230 180 230 194 244 c 128,-1,73
 208 258 208 258 226 258 c 256,74,75
 245 258 245 258 258 244 c 0,76,77
 272 230 272 230 272 212 c 256,78,79
 272 193 272 193 258 180 c 0,80,81
 244 166 244 166 226 166 c 1,82,-1
 226 166 l 1,68,69
226 333 m 1,83,84
 224.8 332.933333333 224.8 332.933333333 223.617777778 332.933333333 c 0,85,86
 207.066666667 332.933333333 207.066666667 332.933333333 194 346 c 0,87,88
 180 360 180 360 180 379 c 256,89,90
 180 398 180 398 194 411 c 128,-1,91
 208 424 208 424 226 424 c 256,92,93
 245 424 245 424 258 411 c 0,94,95
 272 397 272 397 272 379 c 256,96,97
 272 360 272 360 258 346 c 0,98,99
 244.933333333 332.933333333 244.933333333 332.933333333 228.382222222 332.933333333 c 0,100,101
 227.2 332.933333333 227.2 332.933333333 226 333 c 1,102,-1
 226 333 l 1,83,84
166 416 m 1,103,104
 148 416 148 416 134 430 c 256,105,106
 120 444 120 444 120 462 c 0,107,108
 120 481 120 481 134 495 c 256,109,110
 148 508 148 508 166 508 c 0,111,112
 185 508 185 508 198 495 c 256,113,114
 212 481 212 481 212 462 c 128,-1,115
 212 443 212 443 198 430 c 256,116,117
 184 416 184 416 166 416 c 1,118,-1
 166 416 l 1,103,104
286 416 m 1,119,120
 267 416 267 416 253 430 c 0,121,122
 239.933333333 443.066666667 239.933333333 443.066666667 239.933333333 459.617777778 c 0,123,124
 239.933333333 480.928205128 239.933333333 480.928205128 253 495 c 0,125,126
 267 508 267 508 286 508 c 256,127,128
 305 508 305 508 318 495 c 256,129,130
 332 481 332 481 332 462 c 128,-1,131
 332 443 332 443 318 430 c 256,132,133
 304 416 304 416 286 416 c 1,134,-1
 286 416 l 1,119,120
226 500 m 1,135,136
 208 500 208 500 194 513 c 0,137,138
 180 527 180 527 180 546 c 256,139,140
 180 565 180 565 194 578 c 0,141,142
 208 592 208 592 226 592 c 256,143,144
 245 592 245 592 258 578 c 0,145,146
 272 564 272 564 272 546 c 256,147,148
 272 527 272 527 258 513 c 0,149,150
 244.933333333 499.933333333 244.933333333 499.933333333 228.382222222 499.933333333 c 0,151,152
 227.2 499.933333333 227.2 499.933333333 226 500 c 1,153,-1
 226 500 l 1,135,136
EndSplineSet
EndChar

StartChar: less
Encoding: 60 60 28
Width: 600
VWidth: 750
Flags: W
LayerCount: 2
Fore
SplineSet
466 0 m 1,0,1
 448 0 448 0 434 14 c 128,-1,2
 420 28 420 28 420 46 c 0,3,4
 420 65 420 65 434 78 c 256,5,6
 448 92 448 92 466 92 c 256,7,8
 485 92 485 92 498 78 c 0,9,10
 512 64 512 64 512 46 c 128,-1,11
 512 28 512 28 498 14 c 128,-1,12
 484 0 484 0 466 0 c 1,13,-1
 466 0 l 1,0,1
346 83 m 1,14,15
 327 83 327 83 313 97 c 0,16,17
 299.933333333 110.066666667 299.933333333 110.066666667 299.933333333 126.617777778 c 0,18,19
 299.933333333 147.933333333 299.933333333 147.933333333 313 161 c 0,20,21
 327 175 327 175 346 175 c 256,22,23
 365 175 365 175 378 161 c 0,24,25
 392 147 392 147 392 129 c 256,26,27
 392 110 392 110 378 97 c 0,28,29
 364 83 364 83 346 83 c 1,30,-1
 346 83 l 1,14,15
226 166 m 1,31,32
 208 166 208 166 194 180 c 128,-1,33
 180 194 180 194 180 212 c 256,34,35
 180 230 180 230 194 244 c 128,-1,36
 208 258 208 258 226 258 c 256,37,38
 245 258 245 258 258 244 c 0,39,40
 272 230 272 230 272 212 c 256,41,42
 272 193 272 193 258 180 c 0,43,44
 244 166 244 166 226 166 c 1,45,-1
 226 166 l 1,31,32
106 250 m 1,46,47
 88 250 88 250 74 263 c 256,48,49
 60 278 60 278 60 296 c 0,50,51
 60 316 60 316 74 328 c 0,52,53
 87.0666666667 341.066666667 87.0666666667 341.066666667 103.617777778 341.066666667 c 0,54,55
 104.8 341.066666667 104.8 341.066666667 106 341 c 256,56,57
 107.266666667 341.066666667 107.266666667 341.066666667 108.506666667 341.066666667 c 0,58,59
 125.866666667 341.066666667 125.866666667 341.066666667 138 328 c 0,60,61
 152 314 152 314 152 296 c 0,62,63
 152 277 152 277 138 263 c 0,64,65
 124.933333333 249.933333333 124.933333333 249.933333333 108.382222222 249.933333333 c 0,66,67
 107.2 249.933333333 107.2 249.933333333 106 250 c 1,68,-1
 106 250 l 1,46,47
226 333 m 1,69,70
 224.8 332.933333333 224.8 332.933333333 223.617777778 332.933333333 c 0,71,72
 207.066666667 332.933333333 207.066666667 332.933333333 194 346 c 0,73,74
 180 360 180 360 180 379 c 256,75,76
 180 398 180 398 194 411 c 128,-1,77
 208 424 208 424 226 424 c 256,78,79
 245 424 245 424 258 411 c 0,80,81
 272 397 272 397 272 379 c 256,82,83
 272 360 272 360 258 346 c 0,84,85
 244.933333333 332.933333333 244.933333333 332.933333333 228.382222222 332.933333333 c 0,86,87
 227.2 332.933333333 227.2 332.933333333 226 333 c 1,88,-1
 226 333 l 1,69,70
346 416 m 1,89,90
 327 416 327 416 313 430 c 0,91,92
 299.933333333 443.066666667 299.933333333 443.066666667 299.933333333 459.617777778 c 0,93,94
 299.933333333 480.928205128 299.933333333 480.928205128 313 495 c 0,95,96
 327 508 327 508 346 508 c 256,97,98
 365 508 365 508 378 495 c 0,99,100
 392 481 392 481 392 462 c 128,-1,101
 392 443 392 443 378 430 c 0,102,103
 364 416 364 416 346 416 c 1,104,-1
 346 416 l 1,89,90
466 500 m 1,105,106
 448 500 448 500 434 513 c 0,107,108
 420 527 420 527 420 546 c 256,109,110
 420 565 420 565 434 578 c 0,111,112
 448 592 448 592 466 592 c 256,113,114
 485 592 485 592 498 578 c 0,115,116
 512 564 512 564 512 546 c 256,117,118
 512 527 512 527 498 513 c 0,119,120
 484.933333333 499.933333333 484.933333333 499.933333333 468.382222222 499.933333333 c 0,121,122
 467.2 499.933333333 467.2 499.933333333 466 500 c 1,123,-1
 466 500 l 1,105,106
EndSplineSet
EndChar

StartChar: equal
Encoding: 61 61 29
Width: 600
VWidth: 750
Flags: W
LayerCount: 2
Fore
SplineSet
46 166 m 1,0,1
 28 166 28 166 14 180 c 128,-1,2
 0 194 0 194 0 212 c 256,3,4
 0 230 0 230 14 244 c 128,-1,5
 28 258 28 258 46 258 c 256,6,7
 65 258 65 258 78 244 c 0,8,9
 92 230 92 230 92 212 c 256,10,11
 92 193 92 193 78 180 c 0,12,13
 64 166 64 166 46 166 c 1,14,-1
 46 166 l 1,0,1
166 166 m 1,15,16
 148 166 148 166 134 180 c 128,-1,17
 120 194 120 194 120 212 c 256,18,19
 120 230 120 230 134 244 c 128,-1,20
 148 258 148 258 166 258 c 0,21,22
 185 258 185 258 198 244 c 0,23,24
 212 230 212 230 212 212 c 256,25,26
 212 193 212 193 198 180 c 0,27,28
 184 166 184 166 166 166 c 1,29,-1
 166 166 l 1,15,16
286 166 m 1,30,31
 267 166 267 166 253 180 c 0,32,33
 239.933333333 193.066666667 239.933333333 193.066666667 239.933333333 209.617777778 c 0,34,35
 239.933333333 229.928205128 239.933333333 229.928205128 253 244 c 0,36,37
 267 258 267 258 286 258 c 256,38,39
 305 258 305 258 318 244 c 0,40,41
 332 230 332 230 332 212 c 256,42,43
 332 193 332 193 318 180 c 0,44,45
 304 166 304 166 286 166 c 1,46,-1
 286 166 l 1,30,31
406 166 m 1,47,48
 388 166 388 166 374 180 c 128,-1,49
 360 194 360 194 360 212 c 256,50,51
 360 230 360 230 374 244 c 128,-1,52
 388 258 388 258 406 258 c 256,53,54
 425 258 425 258 438 244 c 0,55,56
 452 230 452 230 452 212 c 256,57,58
 452 193 452 193 438 180 c 0,59,60
 424 166 424 166 406 166 c 1,61,-1
 406 166 l 1,47,48
46 333 m 1,62,63
 44.8 332.933333333 44.8 332.933333333 43.6177777778 332.933333333 c 0,64,65
 27.0666666667 332.933333333 27.0666666667 332.933333333 14 346 c 0,66,67
 0 360 0 360 0 379 c 256,68,69
 0 398 0 398 14 411 c 128,-1,70
 28 424 28 424 46 424 c 256,71,72
 65 424 65 424 78 411 c 0,73,74
 92 397 92 397 92 379 c 256,75,76
 92 360 92 360 78 346 c 0,77,78
 64.9333333333 332.933333333 64.9333333333 332.933333333 48.3822222222 332.933333333 c 0,79,80
 47.2 332.933333333 47.2 332.933333333 46 333 c 1,81,-1
 46 333 l 1,62,63
166 333 m 1,82,83
 164.8 332.933333333 164.8 332.933333333 163.617777778 332.933333333 c 0,84,85
 147.066666667 332.933333333 147.066666667 332.933333333 134 346 c 0,86,87
 120 360 120 360 120 379 c 256,88,89
 120 398 120 398 134 411 c 128,-1,90
 148 424 148 424 166 424 c 0,91,92
 185 424 185 424 198 411 c 0,93,94
 212 397 212 397 212 379 c 256,95,96
 212 360 212 360 198 346 c 0,97,98
 184.933333333 332.933333333 184.933333333 332.933333333 168.382222222 332.933333333 c 0,99,100
 167.2 332.933333333 167.2 332.933333333 166 333 c 1,101,-1
 166 333 l 1,82,83
286 333 m 1,102,103
 284.733333333 332.933333333 284.733333333 332.933333333 283.488888889 332.933333333 c 0,104,105
 266.066666667 332.933333333 266.066666667 332.933333333 253 346 c 128,-1,106
 239.933333333 359.066666667 239.933333333 359.066666667 239.933333333 376.488888889 c 0,107,108
 239.933333333 397.933333333 239.933333333 397.933333333 253 411 c 0,109,110
 267 424 267 424 286 424 c 256,111,112
 305 424 305 424 318 411 c 0,113,114
 332 397 332 397 332 379 c 256,115,116
 332 360 332 360 318 346 c 0,117,118
 304.933333333 332.933333333 304.933333333 332.933333333 288.382222222 332.933333333 c 0,119,120
 287.2 332.933333333 287.2 332.933333333 286 333 c 1,121,-1
 286 333 l 1,102,103
406 333 m 1,122,123
 404.8 332.933333333 404.8 332.933333333 403.617777778 332.933333333 c 0,124,125
 387.066666667 332.933333333 387.066666667 332.933333333 374 346 c 0,126,127
 360 360 360 360 360 379 c 256,128,129
 360 398 360 398 374 411 c 128,-1,130
 388 424 388 424 406 424 c 256,131,132
 425 424 425 424 438 411 c 0,133,134
 452 397 452 397 452 379 c 256,135,136
 452 360 452 360 438 346 c 0,137,138
 424.933333333 332.933333333 424.933333333 332.933333333 408.382222222 332.933333333 c 0,139,140
 407.2 332.933333333 407.2 332.933333333 406 333 c 1,141,-1
 406 333 l 1,122,123
EndSplineSet
EndChar

StartChar: greater
Encoding: 62 62 30
Width: 600
VWidth: 750
Flags: W
LayerCount: 2
Fore
SplineSet
106 0 m 1,0,1
 88 0 88 0 74 14 c 128,-1,2
 60 28 60 28 60 46 c 0,3,4
 60 65 60 65 74 78 c 256,5,6
 88 92 88 92 106 92 c 256,7,8
 125 92 125 92 138 78 c 0,9,10
 152 64 152 64 152 46 c 128,-1,11
 152 28 152 28 138 14 c 128,-1,12
 124 0 124 0 106 0 c 1,13,-1
 106 0 l 1,0,1
226 83 m 1,14,15
 208 83 208 83 194 97 c 128,-1,16
 180 111 180 111 180 129 c 256,17,18
 180 148 180 148 194 161 c 0,19,20
 208 175 208 175 226 175 c 256,21,22
 245 175 245 175 258 161 c 0,23,24
 272 147 272 147 272 129 c 256,25,26
 272 110 272 110 258 97 c 0,27,28
 244 83 244 83 226 83 c 1,29,-1
 226 83 l 1,14,15
346 166 m 1,30,31
 327 166 327 166 313 180 c 0,32,33
 299.933333333 193.066666667 299.933333333 193.066666667 299.933333333 209.617777778 c 0,34,35
 299.933333333 229.928205128 299.933333333 229.928205128 313 244 c 0,36,37
 327 258 327 258 346 258 c 256,38,39
 365 258 365 258 378 244 c 0,40,41
 392 230 392 230 392 212 c 256,42,43
 392 193 392 193 378 180 c 0,44,45
 364 166 364 166 346 166 c 1,46,-1
 346 166 l 1,30,31
466 250 m 1,47,48
 448 250 448 250 434 263 c 256,49,50
 420 278 420 278 420 296 c 0,51,52
 420 316 420 316 434 328 c 0,53,54
 447.066666667 341.066666667 447.066666667 341.066666667 463.617777778 341.066666667 c 0,55,56
 464.8 341.066666667 464.8 341.066666667 466 341 c 256,57,58
 467.266666667 341.066666667 467.266666667 341.066666667 468.506666667 341.066666667 c 0,59,60
 485.866666667 341.066666667 485.866666667 341.066666667 498 328 c 0,61,62
 512 314 512 314 512 296 c 0,63,64
 512 277 512 277 498 263 c 0,65,66
 484.933333333 249.933333333 484.933333333 249.933333333 468.382222222 249.933333333 c 0,67,68
 467.2 249.933333333 467.2 249.933333333 466 250 c 1,69,-1
 466 250 l 1,47,48
346 333 m 1,70,71
 344.733333333 332.933333333 344.733333333 332.933333333 343.488888889 332.933333333 c 0,72,73
 326.066666667 332.933333333 326.066666667 332.933333333 313 346 c 128,-1,74
 299.933333333 359.066666667 299.933333333 359.066666667 299.933333333 376.488888889 c 0,75,76
 299.933333333 397.933333333 299.933333333 397.933333333 313 411 c 0,77,78
 327 424 327 424 346 424 c 256,79,80
 365 424 365 424 378 411 c 0,81,82
 392 397 392 397 392 379 c 256,83,84
 392 360 392 360 378 346 c 0,85,86
 364.933333333 332.933333333 364.933333333 332.933333333 348.382222222 332.933333333 c 0,87,88
 347.2 332.933333333 347.2 332.933333333 346 333 c 1,89,-1
 346 333 l 1,70,71
226 416 m 1,90,91
 208 416 208 416 194 430 c 128,-1,92
 180 444 180 444 180 462 c 0,93,94
 180 481 180 481 194 495 c 0,95,96
 208 508 208 508 226 508 c 256,97,98
 245 508 245 508 258 495 c 256,99,100
 272 481 272 481 272 462 c 128,-1,101
 272 443 272 443 258 430 c 256,102,103
 244 416 244 416 226 416 c 1,104,-1
 226 416 l 1,90,91
106 500 m 1,105,106
 88 500 88 500 74 513 c 0,107,108
 60 527 60 527 60 546 c 256,109,110
 60 565 60 565 74 578 c 0,111,112
 88 592 88 592 106 592 c 256,113,114
 125 592 125 592 138 578 c 0,115,116
 152 564 152 564 152 546 c 256,117,118
 152 527 152 527 138 513 c 0,119,120
 124.933333333 499.933333333 124.933333333 499.933333333 108.382222222 499.933333333 c 0,121,122
 107.2 499.933333333 107.2 499.933333333 106 500 c 1,123,-1
 106 500 l 1,105,106
EndSplineSet
EndChar

StartChar: question
Encoding: 63 63 31
Width: 600
VWidth: 750
Flags: W
LayerCount: 2
Fore
SplineSet
226 0 m 1,0,1
 208 0 208 0 194 14 c 128,-1,2
 180 28 180 28 180 46 c 0,3,4
 180 65 180 65 194 78 c 0,5,6
 208 92 208 92 226 92 c 256,7,8
 245 92 245 92 258 78 c 256,9,10
 272 64 272 64 272 46 c 128,-1,11
 272 28 272 28 258 14 c 128,-1,12
 244 0 244 0 226 0 c 1,13,-1
 226 0 l 1,0,1
226 166 m 1,14,15
 208 166 208 166 194 180 c 128,-1,16
 180 194 180 194 180 212 c 256,17,18
 180 230 180 230 194 244 c 0,19,20
 200 250 200 250 206 254 c 1,21,-1
 206 254 l 1,22,23
 200 257 200 257 194 263 c 0,24,25
 180 278 180 278 180 296 c 0,26,27
 180 316 180 316 194 328 c 0,28,29
 207.066666667 341.066666667 207.066666667 341.066666667 223.617777778 341.066666667 c 0,30,31
 224.8 341.066666667 224.8 341.066666667 226 341 c 256,32,33
 227.266666667 341.066666667 227.266666667 341.066666667 228.506666667 341.066666667 c 0,34,35
 245.866666667 341.066666667 245.866666667 341.066666667 258 328 c 0,36,37
 272 314 272 314 272 296 c 0,38,39
 272 277 272 277 258 263 c 0,40,41
 252 257 252 257 245 254 c 1,42,-1
 245 254 l 1,43,44
 252 250 252 250 258 244 c 0,45,46
 272 230 272 230 272 212 c 256,47,48
 272 193 272 193 258 180 c 0,49,50
 244 166 244 166 226 166 c 1,51,-1
 226 166 l 1,14,15
346 250 m 1,52,53
 327 250 327 250 313 263 c 0,54,55
 299.933333333 277 299.933333333 277 299.933333333 293.613333333 c 0,56,57
 299.933333333 315.938461538 299.933333333 315.938461538 313 328 c 0,58,59
 326.066666667 341.066666667 326.066666667 341.066666667 343.488888889 341.066666667 c 0,60,61
 344.733333333 341.066666667 344.733333333 341.066666667 346 341 c 256,62,63
 347.266666667 341.066666667 347.266666667 341.066666667 348.506666667 341.066666667 c 0,64,65
 365.866666667 341.066666667 365.866666667 341.066666667 378 328 c 0,66,67
 392 314 392 314 392 296 c 0,68,69
 392 277 392 277 378 263 c 0,70,71
 364.933333333 249.933333333 364.933333333 249.933333333 348.382222222 249.933333333 c 0,72,73
 347.2 249.933333333 347.2 249.933333333 346 250 c 1,74,-1
 346 250 l 1,52,53
46 416 m 1,75,76
 28 416 28 416 14 430 c 128,-1,77
 0 444 0 444 0 462 c 0,78,79
 0 481 0 481 14 495 c 0,80,81
 28 508 28 508 46 508 c 256,82,83
 65 508 65 508 78 495 c 0,84,85
 92 481 92 481 92 462 c 128,-1,86
 92 443 92 443 78 430 c 0,87,88
 64 416 64 416 46 416 c 1,89,-1
 46 416 l 1,75,76
406 333 m 1,90,91
 404.8 332.933333333 404.8 332.933333333 403.617777778 332.933333333 c 0,92,93
 387.066666667 332.933333333 387.066666667 332.933333333 374 346 c 0,94,95
 360 360 360 360 360 379 c 256,96,97
 360 398 360 398 374 411 c 0,98,99
 380 417 380 417 386 421 c 1,100,-1
 386 421 l 1,101,102
 378 424 378 424 374 430 c 0,103,104
 360 444 360 444 360 462 c 0,105,106
 360 481 360 481 374 495 c 0,107,108
 388 508 388 508 406 508 c 256,109,110
 425 508 425 508 438 495 c 0,111,112
 452 481 452 481 452 462 c 128,-1,113
 452 443 452 443 438 430 c 0,114,115
 432 424 432 424 425 421 c 1,116,-1
 425 421 l 1,117,118
 432 418 432 418 438 411 c 0,119,120
 452 397 452 397 452 379 c 256,121,122
 452 360 452 360 438 346 c 0,123,124
 424.933333333 332.933333333 424.933333333 332.933333333 408.382222222 332.933333333 c 0,125,126
 407.2 332.933333333 407.2 332.933333333 406 333 c 1,127,-1
 406 333 l 1,90,91
106 500 m 1,128,129
 88 500 88 500 74 513 c 0,130,131
 60 527 60 527 60 546 c 256,132,133
 60 565 60 565 74 578 c 0,134,135
 88 592 88 592 106 592 c 256,136,137
 125 592 125 592 138 578 c 0,138,139
 152 564 152 564 152 546 c 256,140,141
 152 527 152 527 138 513 c 0,142,143
 124.933333333 499.933333333 124.933333333 499.933333333 108.382222222 499.933333333 c 0,144,145
 107.2 499.933333333 107.2 499.933333333 106 500 c 1,146,-1
 106 500 l 1,128,129
226 500 m 1,147,148
 208 500 208 500 194 513 c 0,149,150
 180 527 180 527 180 546 c 256,151,152
 180 565 180 565 194 578 c 0,153,154
 208 592 208 592 226 592 c 256,155,156
 245 592 245 592 258 578 c 0,157,158
 272 564 272 564 272 546 c 256,159,160
 272 527 272 527 258 513 c 0,161,162
 244.933333333 499.933333333 244.933333333 499.933333333 228.382222222 499.933333333 c 0,163,164
 227.2 499.933333333 227.2 499.933333333 226 500 c 1,165,-1
 226 500 l 1,147,148
346 500 m 1,166,167
 327 500 327 500 313 513 c 0,168,169
 299.933333333 526.066666667 299.933333333 526.066666667 299.933333333 543.488888889 c 0,170,171
 299.933333333 564.933333333 299.933333333 564.933333333 313 578 c 0,172,173
 327 592 327 592 346 592 c 256,174,175
 365 592 365 592 378 578 c 0,176,177
 392 564 392 564 392 546 c 256,178,179
 392 527 392 527 378 513 c 0,180,181
 364.933333333 499.933333333 364.933333333 499.933333333 348.382222222 499.933333333 c 0,182,183
 347.2 499.933333333 347.2 499.933333333 346 500 c 1,184,-1
 346 500 l 1,166,167
EndSplineSet
EndChar

StartChar: at
Encoding: 64 64 32
Width: 600
VWidth: 750
Flags: W
LayerCount: 2
Fore
SplineSet
106 0 m 1,0,1
 88 0 88 0 74 14 c 128,-1,2
 60 28 60 28 60 46 c 0,3,4
 60 65 60 65 74 78 c 256,5,6
 88 92 88 92 106 92 c 256,7,8
 125 92 125 92 138 78 c 0,9,10
 152 64 152 64 152 46 c 128,-1,11
 152 28 152 28 138 14 c 128,-1,12
 124 0 124 0 106 0 c 1,13,-1
 106 0 l 1,0,1
226 0 m 1,14,15
 208 0 208 0 194 14 c 128,-1,16
 180 28 180 28 180 46 c 0,17,18
 180 65 180 65 194 78 c 0,19,20
 208 92 208 92 226 92 c 256,21,22
 245 92 245 92 258 78 c 256,23,24
 272 64 272 64 272 46 c 128,-1,25
 272 28 272 28 258 14 c 128,-1,26
 244 0 244 0 226 0 c 1,27,-1
 226 0 l 1,14,15
346 0 m 1,28,29
 327 0 327 0 313 14 c 0,30,31
 299.933333333 27.0666666667 299.933333333 27.0666666667 299.933333333 43.6177777778 c 0,32,33
 299.933333333 64.9333333333 299.933333333 64.9333333333 313 78 c 0,34,35
 327 92 327 92 346 92 c 256,36,37
 365 92 365 92 378 78 c 0,38,39
 392 64 392 64 392 46 c 128,-1,40
 392 28 392 28 378 14 c 128,-1,41
 364 0 364 0 346 0 c 1,42,-1
 346 0 l 1,28,29
346 166 m 1,43,44
 327 166 327 166 313 180 c 0,45,46
 299.933333333 193.066666667 299.933333333 193.066666667 299.933333333 209.617777778 c 0,47,48
 299.933333333 229.928205128 299.933333333 229.928205128 313 244 c 0,49,50
 327 258 327 258 346 258 c 256,51,52
 365 258 365 258 378 244 c 0,53,54
 392 230 392 230 392 212 c 256,55,56
 392 193 392 193 378 180 c 0,57,58
 364 166 364 166 346 166 c 1,59,-1
 346 166 l 1,43,44
226 166 m 1,60,61
 208 166 208 166 194 180 c 128,-1,62
 180 194 180 194 180 212 c 256,63,64
 180 230 180 230 194 244 c 0,65,66
 200 250 200 250 206 254 c 1,67,-1
 206 254 l 1,68,69
 200 257 200 257 194 263 c 0,70,71
 180 278 180 278 180 296 c 0,72,73
 180 316 180 316 194 328 c 0,74,75
 207.066666667 341.066666667 207.066666667 341.066666667 223.617777778 341.066666667 c 0,76,77
 224.8 341.066666667 224.8 341.066666667 226 341 c 256,78,79
 227.266666667 341.066666667 227.266666667 341.066666667 228.506666667 341.066666667 c 0,80,81
 245.866666667 341.066666667 245.866666667 341.066666667 258 328 c 0,82,83
 272 314 272 314 272 296 c 0,84,85
 272 277 272 277 258 263 c 0,86,87
 252 257 252 257 245 254 c 1,88,-1
 245 254 l 1,89,90
 252 250 252 250 258 244 c 0,91,92
 272 230 272 230 272 212 c 256,93,94
 272 193 272 193 258 180 c 0,95,96
 244 166 244 166 226 166 c 1,97,-1
 226 166 l 1,60,61
286 333 m 1,98,99
 284.733333333 332.933333333 284.733333333 332.933333333 283.488888889 332.933333333 c 0,100,101
 266.066666667 332.933333333 266.066666667 332.933333333 253 346 c 128,-1,102
 239.933333333 359.066666667 239.933333333 359.066666667 239.933333333 376.488888889 c 0,103,104
 239.933333333 397.933333333 239.933333333 397.933333333 253 411 c 0,105,106
 267 424 267 424 286 424 c 256,107,108
 305 424 305 424 318 411 c 0,109,110
 332 397 332 397 332 379 c 256,111,112
 332 360 332 360 318 346 c 0,113,114
 304.933333333 332.933333333 304.933333333 332.933333333 288.382222222 332.933333333 c 0,115,116
 287.2 332.933333333 287.2 332.933333333 286 333 c 1,117,-1
 286 333 l 1,98,99
46 83 m 1,118,119
 28 83 28 83 14 97 c 128,-1,120
 0 111 0 111 0 129 c 256,121,122
 0 148 0 148 14 161 c 0,123,124
 20 167 20 167 26 171 c 1,125,-1
 26 171 l 1,126,127
 18 174 18 174 14 180 c 0,128,129
 0 194 0 194 0 212 c 256,130,131
 0 230 0 230 14 244 c 0,132,133
 20 250 20 250 26 254 c 1,134,-1
 26 254 l 1,135,136
 18 257 18 257 14 263 c 0,137,138
 0 278 0 278 0 296 c 0,139,140
 0 316 0 316 14 328 c 0,141,142
 20 334 20 334 26 338 c 1,143,-1
 26 338 l 1,144,145
 18 340 18 340 14 346 c 0,146,147
 0 360 0 360 0 379 c 256,148,149
 0 398 0 398 14 411 c 0,150,151
 20 417 20 417 26 421 c 1,152,-1
 26 421 l 1,153,154
 18 424 18 424 14 430 c 0,155,156
 0 444 0 444 0 462 c 0,157,158
 0 481 0 481 14 495 c 0,159,160
 28 508 28 508 46 508 c 256,161,162
 65 508 65 508 78 495 c 0,163,164
 92 481 92 481 92 462 c 128,-1,165
 92 443 92 443 78 430 c 0,166,167
 72 424 72 424 65 421 c 1,168,-1
 65 421 l 1,169,170
 72 418 72 418 78 411 c 0,171,172
 92 397 92 397 92 379 c 256,173,174
 92 360 92 360 78 346 c 0,175,176
 72 340 72 340 65 338 c 1,177,-1
 65 338 l 1,178,179
 72 334 72 334 78 328 c 0,180,181
 92 314 92 314 92 296 c 0,182,183
 92 277 92 277 78 263 c 0,184,185
 72 257 72 257 65 254 c 1,186,-1
 65 254 l 1,187,188
 72 250 72 250 78 244 c 0,189,190
 92 230 92 230 92 212 c 256,191,192
 92 193 92 193 78 180 c 0,193,194
 72 174 72 174 65 171 c 1,195,-1
 65 171 l 1,196,197
 72 168 72 168 78 161 c 0,198,199
 92 147 92 147 92 129 c 256,200,201
 92 110 92 110 78 97 c 0,202,203
 64 83 64 83 46 83 c 1,204,-1
 46 83 l 1,118,119
406 250 m 1,205,206
 388 250 388 250 374 263 c 0,207,208
 360 278 360 278 360 296 c 0,209,210
 360 316 360 316 374 328 c 0,211,212
 380 334 380 334 386 338 c 1,213,-1
 386 338 l 1,214,215
 378 340 378 340 374 346 c 0,216,217
 360 360 360 360 360 379 c 256,218,219
 360 398 360 398 374 411 c 0,220,221
 380 417 380 417 386 421 c 1,222,-1
 386 421 l 1,223,224
 378 424 378 424 374 430 c 0,225,226
 360 444 360 444 360 462 c 0,227,228
 360 481 360 481 374 495 c 0,229,230
 388 508 388 508 406 508 c 256,231,232
 425 508 425 508 438 495 c 0,233,234
 452 481 452 481 452 462 c 128,-1,235
 452 443 452 443 438 430 c 0,236,237
 432 424 432 424 425 421 c 1,238,-1
 425 421 l 1,239,240
 432 418 432 418 438 411 c 0,241,242
 452 397 452 397 452 379 c 256,243,244
 452 360 452 360 438 346 c 0,245,246
 432 340 432 340 425 338 c 1,247,-1
 425 338 l 1,248,249
 432 334 432 334 438 328 c 0,250,251
 452 314 452 314 452 296 c 0,252,253
 452 277 452 277 438 263 c 0,254,255
 424.933333333 249.933333333 424.933333333 249.933333333 408.382222222 249.933333333 c 0,256,257
 407.2 249.933333333 407.2 249.933333333 406 250 c 1,258,-1
 406 250 l 1,205,206
106 500 m 1,259,260
 88 500 88 500 74 513 c 0,261,262
 60 527 60 527 60 546 c 256,263,264
 60 565 60 565 74 578 c 0,265,266
 88 592 88 592 106 592 c 256,267,268
 125 592 125 592 138 578 c 0,269,270
 152 564 152 564 152 546 c 256,271,272
 152 527 152 527 138 513 c 0,273,274
 124.933333333 499.933333333 124.933333333 499.933333333 108.382222222 499.933333333 c 0,275,276
 107.2 499.933333333 107.2 499.933333333 106 500 c 1,277,-1
 106 500 l 1,259,260
226 500 m 1,278,279
 208 500 208 500 194 513 c 0,280,281
 180 527 180 527 180 546 c 256,282,283
 180 565 180 565 194 578 c 0,284,285
 208 592 208 592 226 592 c 256,286,287
 245 592 245 592 258 578 c 0,288,289
 272 564 272 564 272 546 c 256,290,291
 272 527 272 527 258 513 c 0,292,293
 244.933333333 499.933333333 244.933333333 499.933333333 228.382222222 499.933333333 c 0,294,295
 227.2 499.933333333 227.2 499.933333333 226 500 c 1,296,-1
 226 500 l 1,278,279
346 500 m 1,297,298
 327 500 327 500 313 513 c 0,299,300
 299.933333333 526.066666667 299.933333333 526.066666667 299.933333333 543.488888889 c 0,301,302
 299.933333333 564.933333333 299.933333333 564.933333333 313 578 c 0,303,304
 327 592 327 592 346 592 c 256,305,306
 365 592 365 592 378 578 c 0,307,308
 392 564 392 564 392 546 c 256,309,310
 392 527 392 527 378 513 c 0,311,312
 364.933333333 499.933333333 364.933333333 499.933333333 348.382222222 499.933333333 c 0,313,314
 347.2 499.933333333 347.2 499.933333333 346 500 c 1,315,-1
 346 500 l 1,297,298
EndSplineSet
EndChar

StartChar: A
Encoding: 65 65 33
Width: 600
VWidth: 750
Flags: W
LayerCount: 2
Fore
SplineSet
166 166 m 1,0,1
 148 166 148 166 134 180 c 128,-1,2
 120 194 120 194 120 212 c 256,3,4
 120 230 120 230 134 244 c 128,-1,5
 148 258 148 258 166 258 c 0,6,7
 185 258 185 258 198 244 c 0,8,9
 212 230 212 230 212 212 c 256,10,11
 212 193 212 193 198 180 c 0,12,13
 184 166 184 166 166 166 c 1,14,-1
 166 166 l 1,0,1
286 166 m 1,15,16
 267 166 267 166 253 180 c 0,17,18
 239.933333333 193.066666667 239.933333333 193.066666667 239.933333333 209.617777778 c 0,19,20
 239.933333333 229.928205128 239.933333333 229.928205128 253 244 c 0,21,22
 267 258 267 258 286 258 c 256,23,24
 305 258 305 258 318 244 c 0,25,26
 332 230 332 230 332 212 c 256,27,28
 332 193 332 193 318 180 c 0,29,30
 304 166 304 166 286 166 c 1,31,-1
 286 166 l 1,15,16
46 0 m 1,32,33
 28 0 28 0 14 14 c 128,-1,34
 0 28 0 28 0 46 c 0,35,36
 0 65 0 65 14 78 c 0,37,38
 20 84 20 84 26 87 c 1,39,-1
 26 87 l 1,40,41
 18 90 18 90 14 97 c 0,42,43
 0 111 0 111 0 129 c 256,44,45
 0 148 0 148 14 161 c 0,46,47
 20 167 20 167 26 171 c 1,48,-1
 26 171 l 1,49,50
 18 174 18 174 14 180 c 0,51,52
 0 194 0 194 0 212 c 256,53,54
 0 230 0 230 14 244 c 0,55,56
 20 250 20 250 26 254 c 1,57,-1
 26 254 l 1,58,59
 18 257 18 257 14 263 c 0,60,61
 0 278 0 278 0 296 c 0,62,63
 0 316 0 316 14 328 c 0,64,65
 27.0666666667 341.066666667 27.0666666667 341.066666667 43.6177777778 341.066666667 c 0,66,67
 44.8 341.066666667 44.8 341.066666667 46 341 c 256,68,69
 47.2666666667 341.066666667 47.2666666667 341.066666667 48.5066666667 341.066666667 c 0,70,71
 65.8666666667 341.066666667 65.8666666667 341.066666667 78 328 c 0,72,73
 92 314 92 314 92 296 c 0,74,75
 92 277 92 277 78 263 c 0,76,77
 72 257 72 257 65 254 c 1,78,-1
 65 254 l 1,79,80
 72 250 72 250 78 244 c 0,81,82
 92 230 92 230 92 212 c 256,83,84
 92 193 92 193 78 180 c 0,85,86
 72 174 72 174 65 171 c 1,87,-1
 65 171 l 1,88,89
 72 168 72 168 78 161 c 0,90,91
 92 147 92 147 92 129 c 256,92,93
 92 110 92 110 78 97 c 0,94,95
 72 91 72 91 65 87 c 1,96,-1
 65 87 l 1,97,98
 72 84 72 84 78 78 c 0,99,100
 92 64 92 64 92 46 c 128,-1,101
 92 28 92 28 78 14 c 128,-1,102
 64 0 64 0 46 0 c 1,103,-1
 46 0 l 1,32,33
406 0 m 1,104,105
 388 0 388 0 374 14 c 128,-1,106
 360 28 360 28 360 46 c 0,107,108
 360 65 360 65 374 78 c 0,109,110
 380 84 380 84 386 87 c 1,111,-1
 386 87 l 1,112,113
 378 90 378 90 374 97 c 0,114,115
 360 111 360 111 360 129 c 256,116,117
 360 148 360 148 374 161 c 0,118,119
 380 167 380 167 386 171 c 1,120,-1
 386 171 l 1,121,122
 378 174 378 174 374 180 c 0,123,124
 360 194 360 194 360 212 c 256,125,126
 360 230 360 230 374 244 c 0,127,128
 380 250 380 250 386 254 c 1,129,-1
 386 254 l 1,130,131
 378 257 378 257 374 263 c 0,132,133
 360 278 360 278 360 296 c 0,134,135
 360 316 360 316 374 328 c 0,136,137
 387.066666667 341.066666667 387.066666667 341.066666667 403.617777778 341.066666667 c 0,138,139
 404.8 341.066666667 404.8 341.066666667 406 341 c 256,140,141
 407.266666667 341.066666667 407.266666667 341.066666667 408.506666667 341.066666667 c 0,142,143
 425.866666667 341.066666667 425.866666667 341.066666667 438 328 c 0,144,145
 452 314 452 314 452 296 c 0,146,147
 452 277 452 277 438 263 c 0,148,149
 432 257 432 257 425 254 c 1,150,-1
 425 254 l 1,151,152
 432 250 432 250 438 244 c 0,153,154
 452 230 452 230 452 212 c 256,155,156
 452 193 452 193 438 180 c 0,157,158
 432 174 432 174 425 171 c 1,159,-1
 425 171 l 1,160,161
 432 168 432 168 438 161 c 0,162,163
 452 147 452 147 452 129 c 256,164,165
 452 110 452 110 438 97 c 0,166,167
 432 91 432 91 425 87 c 1,168,-1
 425 87 l 1,169,170
 432 84 432 84 438 78 c 0,171,172
 452 64 452 64 452 46 c 128,-1,173
 452 28 452 28 438 14 c 128,-1,174
 424 0 424 0 406 0 c 1,175,-1
 406 0 l 1,104,105
106 333 m 1,176,177
 104.8 332.933333333 104.8 332.933333333 103.617777778 332.933333333 c 0,178,179
 87.0666666667 332.933333333 87.0666666667 332.933333333 74 346 c 0,180,181
 60 360 60 360 60 379 c 256,182,183
 60 398 60 398 74 411 c 128,-1,184
 88 424 88 424 106 424 c 256,185,186
 125 424 125 424 138 411 c 0,187,188
 152 397 152 397 152 379 c 256,189,190
 152 360 152 360 138 346 c 0,191,192
 124.933333333 332.933333333 124.933333333 332.933333333 108.382222222 332.933333333 c 0,193,194
 107.2 332.933333333 107.2 332.933333333 106 333 c 1,195,-1
 106 333 l 1,176,177
346 333 m 1,196,197
 344.733333333 332.933333333 344.733333333 332.933333333 343.488888889 332.933333333 c 0,198,199
 326.066666667 332.933333333 326.066666667 332.933333333 313 346 c 128,-1,200
 299.933333333 359.066666667 299.933333333 359.066666667 299.933333333 376.488888889 c 0,201,202
 299.933333333 397.933333333 299.933333333 397.933333333 313 411 c 0,203,204
 327 424 327 424 346 424 c 256,205,206
 365 424 365 424 378 411 c 0,207,208
 392 397 392 397 392 379 c 256,209,210
 392 360 392 360 378 346 c 0,211,212
 364.933333333 332.933333333 364.933333333 332.933333333 348.382222222 332.933333333 c 0,213,214
 347.2 332.933333333 347.2 332.933333333 346 333 c 1,215,-1
 346 333 l 1,196,197
166 416 m 1,216,217
 148 416 148 416 134 430 c 256,218,219
 120 444 120 444 120 462 c 0,220,221
 120 481 120 481 134 495 c 256,222,223
 148 508 148 508 166 508 c 0,224,225
 185 508 185 508 198 495 c 256,226,227
 212 481 212 481 212 462 c 128,-1,228
 212 443 212 443 198 430 c 256,229,230
 184 416 184 416 166 416 c 1,231,-1
 166 416 l 1,216,217
286 416 m 1,232,233
 267 416 267 416 253 430 c 0,234,235
 239.933333333 443.066666667 239.933333333 443.066666667 239.933333333 459.617777778 c 0,236,237
 239.933333333 480.928205128 239.933333333 480.928205128 253 495 c 0,238,239
 267 508 267 508 286 508 c 256,240,241
 305 508 305 508 318 495 c 256,242,243
 332 481 332 481 332 462 c 128,-1,244
 332 443 332 443 318 430 c 256,245,246
 304 416 304 416 286 416 c 1,247,-1
 286 416 l 1,232,233
226 500 m 1,248,249
 208 500 208 500 194 513 c 0,250,251
 180 527 180 527 180 546 c 256,252,253
 180 565 180 565 194 578 c 0,254,255
 208 592 208 592 226 592 c 256,256,257
 245 592 245 592 258 578 c 0,258,259
 272 564 272 564 272 546 c 256,260,261
 272 527 272 527 258 513 c 0,262,263
 244.933333333 499.933333333 244.933333333 499.933333333 228.382222222 499.933333333 c 0,264,265
 227.2 499.933333333 227.2 499.933333333 226 500 c 1,266,-1
 226 500 l 1,248,249
EndSplineSet
EndChar

StartChar: B
Encoding: 66 66 34
Width: 600
VWidth: 750
Flags: W
LayerCount: 2
Fore
SplineSet
166 0 m 1,0,1
 148 0 148 0 134 14 c 128,-1,2
 120 28 120 28 120 46 c 0,3,4
 120 65 120 65 134 78 c 256,5,6
 148 92 148 92 166 92 c 0,7,8
 185 92 185 92 198 78 c 256,9,10
 212 64 212 64 212 46 c 128,-1,11
 212 28 212 28 198 14 c 128,-1,12
 184 0 184 0 166 0 c 1,13,-1
 166 0 l 1,0,1
286 0 m 1,14,15
 267 0 267 0 253 14 c 0,16,17
 239.933333333 27.0666666667 239.933333333 27.0666666667 239.933333333 43.6177777778 c 0,18,19
 239.933333333 64.9333333333 239.933333333 64.9333333333 253 78 c 0,20,21
 267 92 267 92 286 92 c 256,22,23
 305 92 305 92 318 78 c 256,24,25
 332 64 332 64 332 46 c 128,-1,26
 332 28 332 28 318 14 c 128,-1,27
 304 0 304 0 286 0 c 1,28,-1
 286 0 l 1,14,15
406 83 m 1,29,30
 388 83 388 83 374 97 c 128,-1,31
 360 111 360 111 360 129 c 256,32,33
 360 148 360 148 374 161 c 0,34,35
 380 167 380 167 386 171 c 1,36,-1
 386 171 l 1,37,38
 378 174 378 174 374 180 c 0,39,40
 360 194 360 194 360 212 c 256,41,42
 360 230 360 230 374 244 c 128,-1,43
 388 258 388 258 406 258 c 256,44,45
 425 258 425 258 438 244 c 0,46,47
 452 230 452 230 452 212 c 256,48,49
 452 193 452 193 438 180 c 0,50,51
 432 174 432 174 425 171 c 1,52,-1
 425 171 l 1,53,54
 432 168 432 168 438 161 c 0,55,56
 452 147 452 147 452 129 c 256,57,58
 452 110 452 110 438 97 c 0,59,60
 424 83 424 83 406 83 c 1,61,-1
 406 83 l 1,29,30
166 250 m 1,62,63
 148 250 148 250 134 263 c 256,64,65
 120 278 120 278 120 296 c 0,66,67
 120 316 120 316 134 328 c 0,68,69
 147.066666667 341.066666667 147.066666667 341.066666667 163.617777778 341.066666667 c 0,70,71
 164.8 341.066666667 164.8 341.066666667 166 341 c 128,-1,72
 167.266666667 341.066666667 167.266666667 341.066666667 168.506666667 341.066666667 c 0,73,74
 185.866666667 341.066666667 185.866666667 341.066666667 198 328 c 0,75,76
 212 314 212 314 212 296 c 0,77,78
 212 277 212 277 198 263 c 256,79,80
 184.933333333 249.933333333 184.933333333 249.933333333 168.382222222 249.933333333 c 0,81,82
 167.2 249.933333333 167.2 249.933333333 166 250 c 1,83,-1
 166 250 l 1,62,63
286 250 m 1,84,85
 267 250 267 250 253 263 c 0,86,87
 239.933333333 277 239.933333333 277 239.933333333 293.613333333 c 0,88,89
 239.933333333 315.938461538 239.933333333 315.938461538 253 328 c 0,90,91
 266.066666667 341.066666667 266.066666667 341.066666667 283.488888889 341.066666667 c 0,92,93
 284.733333333 341.066666667 284.733333333 341.066666667 286 341 c 256,94,95
 287.266666667 341.066666667 287.266666667 341.066666667 288.506666667 341.066666667 c 0,96,97
 305.866666667 341.066666667 305.866666667 341.066666667 318 328 c 0,98,99
 332 314 332 314 332 296 c 0,100,101
 332 277 332 277 318 263 c 256,102,103
 304.933333333 249.933333333 304.933333333 249.933333333 288.382222222 249.933333333 c 0,104,105
 287.2 249.933333333 287.2 249.933333333 286 250 c 1,106,-1
 286 250 l 1,84,85
406 333 m 1,107,108
 404.8 332.933333333 404.8 332.933333333 403.617777778 332.933333333 c 0,109,110
 387.066666667 332.933333333 387.066666667 332.933333333 374 346 c 0,111,112
 360 360 360 360 360 379 c 256,113,114
 360 398 360 398 374 411 c 0,115,116
 380 417 380 417 386 421 c 1,117,-1
 386 421 l 1,118,119
 378 424 378 424 374 430 c 0,120,121
 360 444 360 444 360 462 c 0,122,123
 360 481 360 481 374 495 c 0,124,125
 388 508 388 508 406 508 c 256,126,127
 425 508 425 508 438 495 c 0,128,129
 452 481 452 481 452 462 c 128,-1,130
 452 443 452 443 438 430 c 0,131,132
 432 424 432 424 425 421 c 1,133,-1
 425 421 l 1,134,135
 432 418 432 418 438 411 c 0,136,137
 452 397 452 397 452 379 c 256,138,139
 452 360 452 360 438 346 c 0,140,141
 424.933333333 332.933333333 424.933333333 332.933333333 408.382222222 332.933333333 c 0,142,143
 407.2 332.933333333 407.2 332.933333333 406 333 c 1,144,-1
 406 333 l 1,107,108
46 0 m 1,145,146
 28 0 28 0 14 14 c 128,-1,147
 0 28 0 28 0 46 c 0,148,149
 0 65 0 65 14 78 c 0,150,151
 20 84 20 84 26 87 c 1,152,-1
 26 87 l 1,153,154
 18 90 18 90 14 97 c 0,155,156
 0 111 0 111 0 129 c 256,157,158
 0 148 0 148 14 161 c 0,159,160
 20 167 20 167 26 171 c 1,161,-1
 26 171 l 1,162,163
 18 174 18 174 14 180 c 0,164,165
 0 194 0 194 0 212 c 256,166,167
 0 230 0 230 14 244 c 0,168,169
 20 250 20 250 26 254 c 1,170,-1
 26 254 l 1,171,172
 18 257 18 257 14 263 c 0,173,174
 0 278 0 278 0 296 c 0,175,176
 0 316 0 316 14 328 c 0,177,178
 20 334 20 334 26 338 c 1,179,-1
 26 338 l 1,180,181
 18 340 18 340 14 346 c 0,182,183
 0 360 0 360 0 379 c 256,184,185
 0 398 0 398 14 411 c 0,186,187
 20 417 20 417 26 421 c 1,188,-1
 26 421 l 1,189,190
 18 424 18 424 14 430 c 0,191,192
 0 444 0 444 0 462 c 0,193,194
 0 481 0 481 14 495 c 0,195,196
 20 501 20 501 26 504 c 1,197,-1
 26 504 l 1,198,199
 18 507 18 507 14 513 c 0,200,201
 0 527 0 527 0 546 c 256,202,203
 0 565 0 565 14 578 c 0,204,205
 28 592 28 592 46 592 c 256,206,207
 65 592 65 592 78 578 c 0,208,209
 92 564 92 564 92 546 c 256,210,211
 92 527 92 527 78 513 c 0,212,213
 72 507 72 507 65 504 c 1,214,-1
 65 504 l 1,215,216
 72 501 72 501 78 495 c 0,217,218
 92 481 92 481 92 462 c 128,-1,219
 92 443 92 443 78 430 c 0,220,221
 72 424 72 424 65 421 c 1,222,-1
 65 421 l 1,223,224
 72 418 72 418 78 411 c 0,225,226
 92 397 92 397 92 379 c 256,227,228
 92 360 92 360 78 346 c 0,229,230
 72 340 72 340 65 338 c 1,231,-1
 65 338 l 1,232,233
 72 334 72 334 78 328 c 0,234,235
 92 314 92 314 92 296 c 0,236,237
 92 277 92 277 78 263 c 0,238,239
 72 257 72 257 65 254 c 1,240,-1
 65 254 l 1,241,242
 72 250 72 250 78 244 c 0,243,244
 92 230 92 230 92 212 c 256,245,246
 92 193 92 193 78 180 c 0,247,248
 72 174 72 174 65 171 c 1,249,-1
 65 171 l 1,250,251
 72 168 72 168 78 161 c 0,252,253
 92 147 92 147 92 129 c 256,254,255
 92 110 92 110 78 97 c 0,256,257
 72 91 72 91 65 87 c 1,258,-1
 65 87 l 1,259,260
 72 84 72 84 78 78 c 0,261,262
 92 64 92 64 92 46 c 128,-1,263
 92 28 92 28 78 14 c 128,-1,264
 64 0 64 0 46 0 c 1,265,-1
 46 0 l 1,145,146
166 500 m 1,266,267
 148 500 148 500 134 513 c 0,268,269
 120 527 120 527 120 546 c 256,270,271
 120 565 120 565 134 578 c 0,272,273
 148 592 148 592 166 592 c 0,274,275
 185 592 185 592 198 578 c 0,276,277
 212 564 212 564 212 546 c 256,278,279
 212 527 212 527 198 513 c 0,280,281
 184.933333333 499.933333333 184.933333333 499.933333333 168.382222222 499.933333333 c 0,282,283
 167.2 499.933333333 167.2 499.933333333 166 500 c 1,284,-1
 166 500 l 1,266,267
286 500 m 1,285,286
 267 500 267 500 253 513 c 0,287,288
 239.933333333 526.066666667 239.933333333 526.066666667 239.933333333 543.488888889 c 0,289,290
 239.933333333 564.933333333 239.933333333 564.933333333 253 578 c 0,291,292
 267 592 267 592 286 592 c 256,293,294
 305 592 305 592 318 578 c 0,295,296
 332 564 332 564 332 546 c 256,297,298
 332 527 332 527 318 513 c 0,299,300
 304.933333333 499.933333333 304.933333333 499.933333333 288.382222222 499.933333333 c 0,301,302
 287.2 499.933333333 287.2 499.933333333 286 500 c 1,303,-1
 286 500 l 1,285,286
EndSplineSet
EndChar

StartChar: C
Encoding: 67 67 35
Width: 600
VWidth: 750
Flags: W
LayerCount: 2
Fore
SplineSet
106 0 m 1,0,1
 88 0 88 0 74 14 c 128,-1,2
 60 28 60 28 60 46 c 0,3,4
 60 65 60 65 74 78 c 256,5,6
 88 92 88 92 106 92 c 256,7,8
 125 92 125 92 138 78 c 0,9,10
 152 64 152 64 152 46 c 128,-1,11
 152 28 152 28 138 14 c 128,-1,12
 124 0 124 0 106 0 c 1,13,-1
 106 0 l 1,0,1
226 0 m 1,14,15
 208 0 208 0 194 14 c 128,-1,16
 180 28 180 28 180 46 c 0,17,18
 180 65 180 65 194 78 c 0,19,20
 208 92 208 92 226 92 c 256,21,22
 245 92 245 92 258 78 c 256,23,24
 272 64 272 64 272 46 c 128,-1,25
 272 28 272 28 258 14 c 128,-1,26
 244 0 244 0 226 0 c 1,27,-1
 226 0 l 1,14,15
346 0 m 1,28,29
 327 0 327 0 313 14 c 0,30,31
 299.933333333 27.0666666667 299.933333333 27.0666666667 299.933333333 43.6177777778 c 0,32,33
 299.933333333 64.9333333333 299.933333333 64.9333333333 313 78 c 0,34,35
 327 92 327 92 346 92 c 256,36,37
 365 92 365 92 378 78 c 0,38,39
 392 64 392 64 392 46 c 128,-1,40
 392 28 392 28 378 14 c 128,-1,41
 364 0 364 0 346 0 c 1,42,-1
 346 0 l 1,28,29
406 83 m 1,43,44
 388 83 388 83 374 97 c 128,-1,45
 360 111 360 111 360 129 c 256,46,47
 360 148 360 148 374 161 c 0,48,49
 388 175 388 175 406 175 c 256,50,51
 425 175 425 175 438 161 c 0,52,53
 452 147 452 147 452 129 c 256,54,55
 452 110 452 110 438 97 c 0,56,57
 424 83 424 83 406 83 c 1,58,-1
 406 83 l 1,43,44
46 83 m 1,59,60
 28 83 28 83 14 97 c 128,-1,61
 0 111 0 111 0 129 c 256,62,63
 0 148 0 148 14 161 c 0,64,65
 20 167 20 167 26 171 c 1,66,-1
 26 171 l 1,67,68
 18 174 18 174 14 180 c 0,69,70
 0 194 0 194 0 212 c 256,71,72
 0 230 0 230 14 244 c 0,73,74
 20 250 20 250 26 254 c 1,75,-1
 26 254 l 1,76,77
 18 257 18 257 14 263 c 0,78,79
 0 278 0 278 0 296 c 0,80,81
 0 316 0 316 14 328 c 0,82,83
 20 334 20 334 26 338 c 1,84,-1
 26 338 l 1,85,86
 18 340 18 340 14 346 c 0,87,88
 0 360 0 360 0 379 c 256,89,90
 0 398 0 398 14 411 c 0,91,92
 20 417 20 417 26 421 c 1,93,-1
 26 421 l 1,94,95
 18 424 18 424 14 430 c 0,96,97
 0 444 0 444 0 462 c 0,98,99
 0 481 0 481 14 495 c 0,100,101
 28 508 28 508 46 508 c 256,102,103
 65 508 65 508 78 495 c 0,104,105
 92 481 92 481 92 462 c 128,-1,106
 92 443 92 443 78 430 c 0,107,108
 72 424 72 424 65 421 c 1,109,-1
 65 421 l 1,110,111
 72 418 72 418 78 411 c 0,112,113
 92 397 92 397 92 379 c 256,114,115
 92 360 92 360 78 346 c 0,116,117
 72 340 72 340 65 338 c 1,118,-1
 65 338 l 1,119,120
 72 334 72 334 78 328 c 0,121,122
 92 314 92 314 92 296 c 0,123,124
 92 277 92 277 78 263 c 0,125,126
 72 257 72 257 65 254 c 1,127,-1
 65 254 l 1,128,129
 72 250 72 250 78 244 c 0,130,131
 92 230 92 230 92 212 c 256,132,133
 92 193 92 193 78 180 c 0,134,135
 72 174 72 174 65 171 c 1,136,-1
 65 171 l 1,137,138
 72 168 72 168 78 161 c 0,139,140
 92 147 92 147 92 129 c 256,141,142
 92 110 92 110 78 97 c 0,143,144
 64 83 64 83 46 83 c 1,145,-1
 46 83 l 1,59,60
406 416 m 1,146,147
 388 416 388 416 374 430 c 128,-1,148
 360 444 360 444 360 462 c 0,149,150
 360 481 360 481 374 495 c 0,151,152
 388 508 388 508 406 508 c 256,153,154
 425 508 425 508 438 495 c 0,155,156
 452 481 452 481 452 462 c 128,-1,157
 452 443 452 443 438 430 c 0,158,159
 424 416 424 416 406 416 c 1,160,-1
 406 416 l 1,146,147
106 500 m 1,161,162
 88 500 88 500 74 513 c 0,163,164
 60 527 60 527 60 546 c 256,165,166
 60 565 60 565 74 578 c 0,167,168
 88 592 88 592 106 592 c 256,169,170
 125 592 125 592 138 578 c 0,171,172
 152 564 152 564 152 546 c 256,173,174
 152 527 152 527 138 513 c 0,175,176
 124.933333333 499.933333333 124.933333333 499.933333333 108.382222222 499.933333333 c 0,177,178
 107.2 499.933333333 107.2 499.933333333 106 500 c 1,179,-1
 106 500 l 1,161,162
226 500 m 1,180,181
 208 500 208 500 194 513 c 0,182,183
 180 527 180 527 180 546 c 256,184,185
 180 565 180 565 194 578 c 0,186,187
 208 592 208 592 226 592 c 256,188,189
 245 592 245 592 258 578 c 0,190,191
 272 564 272 564 272 546 c 256,192,193
 272 527 272 527 258 513 c 0,194,195
 244.933333333 499.933333333 244.933333333 499.933333333 228.382222222 499.933333333 c 0,196,197
 227.2 499.933333333 227.2 499.933333333 226 500 c 1,198,-1
 226 500 l 1,180,181
346 500 m 1,199,200
 327 500 327 500 313 513 c 0,201,202
 299.933333333 526.066666667 299.933333333 526.066666667 299.933333333 543.488888889 c 0,203,204
 299.933333333 564.933333333 299.933333333 564.933333333 313 578 c 0,205,206
 327 592 327 592 346 592 c 256,207,208
 365 592 365 592 378 578 c 0,209,210
 392 564 392 564 392 546 c 256,211,212
 392 527 392 527 378 513 c 0,213,214
 364.933333333 499.933333333 364.933333333 499.933333333 348.382222222 499.933333333 c 0,215,216
 347.2 499.933333333 347.2 499.933333333 346 500 c 1,217,-1
 346 500 l 1,199,200
EndSplineSet
EndChar

StartChar: D
Encoding: 68 68 36
Width: 600
VWidth: 750
Flags: W
LayerCount: 2
Fore
SplineSet
166 0 m 1,0,1
 148 0 148 0 134 14 c 128,-1,2
 120 28 120 28 120 46 c 0,3,4
 120 65 120 65 134 78 c 256,5,6
 148 92 148 92 166 92 c 0,7,8
 185 92 185 92 198 78 c 256,9,10
 212 64 212 64 212 46 c 128,-1,11
 212 28 212 28 198 14 c 128,-1,12
 184 0 184 0 166 0 c 1,13,-1
 166 0 l 1,0,1
286 0 m 1,14,15
 267 0 267 0 253 14 c 0,16,17
 239.933333333 27.0666666667 239.933333333 27.0666666667 239.933333333 43.6177777778 c 0,18,19
 239.933333333 64.9333333333 239.933333333 64.9333333333 253 78 c 0,20,21
 267 92 267 92 286 92 c 256,22,23
 305 92 305 92 318 78 c 256,24,25
 332 64 332 64 332 46 c 128,-1,26
 332 28 332 28 318 14 c 128,-1,27
 304 0 304 0 286 0 c 1,28,-1
 286 0 l 1,14,15
346 83 m 1,29,30
 327 83 327 83 313 97 c 0,31,32
 299.933333333 110.066666667 299.933333333 110.066666667 299.933333333 126.617777778 c 0,33,34
 299.933333333 147.933333333 299.933333333 147.933333333 313 161 c 0,35,36
 327 175 327 175 346 175 c 256,37,38
 365 175 365 175 378 161 c 0,39,40
 392 147 392 147 392 129 c 256,41,42
 392 110 392 110 378 97 c 0,43,44
 364 83 364 83 346 83 c 1,45,-1
 346 83 l 1,29,30
406 166 m 1,46,47
 388 166 388 166 374 180 c 128,-1,48
 360 194 360 194 360 212 c 256,49,50
 360 230 360 230 374 244 c 0,51,52
 380 250 380 250 386 254 c 1,53,-1
 386 254 l 1,54,55
 378 257 378 257 374 263 c 0,56,57
 360 278 360 278 360 296 c 0,58,59
 360 316 360 316 374 328 c 0,60,61
 380 334 380 334 386 338 c 1,62,-1
 386 338 l 1,63,64
 378 340 378 340 374 346 c 0,65,66
 360 360 360 360 360 379 c 256,67,68
 360 398 360 398 374 411 c 128,-1,69
 388 424 388 424 406 424 c 256,70,71
 425 424 425 424 438 411 c 0,72,73
 452 397 452 397 452 379 c 256,74,75
 452 360 452 360 438 346 c 0,76,77
 432 340 432 340 425 338 c 1,78,-1
 425 338 l 1,79,80
 432 334 432 334 438 328 c 0,81,82
 452 314 452 314 452 296 c 0,83,84
 452 277 452 277 438 263 c 0,85,86
 432 257 432 257 425 254 c 1,87,-1
 425 254 l 1,88,89
 432 250 432 250 438 244 c 0,90,91
 452 230 452 230 452 212 c 256,92,93
 452 193 452 193 438 180 c 0,94,95
 424 166 424 166 406 166 c 1,96,-1
 406 166 l 1,46,47
346 416 m 1,97,98
 327 416 327 416 313 430 c 0,99,100
 299.933333333 443.066666667 299.933333333 443.066666667 299.933333333 459.617777778 c 0,101,102
 299.933333333 480.928205128 299.933333333 480.928205128 313 495 c 0,103,104
 327 508 327 508 346 508 c 256,105,106
 365 508 365 508 378 495 c 0,107,108
 392 481 392 481 392 462 c 128,-1,109
 392 443 392 443 378 430 c 0,110,111
 364 416 364 416 346 416 c 1,112,-1
 346 416 l 1,97,98
46 0 m 1,113,114
 28 0 28 0 14 14 c 128,-1,115
 0 28 0 28 0 46 c 0,116,117
 0 65 0 65 14 78 c 0,118,119
 20 84 20 84 26 87 c 1,120,-1
 26 87 l 1,121,122
 18 90 18 90 14 97 c 0,123,124
 0 111 0 111 0 129 c 256,125,126
 0 148 0 148 14 161 c 0,127,128
 20 167 20 167 26 171 c 1,129,-1
 26 171 l 1,130,131
 18 174 18 174 14 180 c 0,132,133
 0 194 0 194 0 212 c 256,134,135
 0 230 0 230 14 244 c 0,136,137
 20 250 20 250 26 254 c 1,138,-1
 26 254 l 1,139,140
 18 257 18 257 14 263 c 0,141,142
 0 278 0 278 0 296 c 0,143,144
 0 316 0 316 14 328 c 0,145,146
 20 334 20 334 26 338 c 1,147,-1
 26 338 l 1,148,149
 18 340 18 340 14 346 c 0,150,151
 0 360 0 360 0 379 c 256,152,153
 0 398 0 398 14 411 c 0,154,155
 20 417 20 417 26 421 c 1,156,-1
 26 421 l 1,157,158
 18 424 18 424 14 430 c 0,159,160
 0 444 0 444 0 462 c 0,161,162
 0 481 0 481 14 495 c 0,163,164
 20 501 20 501 26 504 c 1,165,-1
 26 504 l 1,166,167
 18 507 18 507 14 513 c 0,168,169
 0 527 0 527 0 546 c 256,170,171
 0 565 0 565 14 578 c 0,172,173
 28 592 28 592 46 592 c 256,174,175
 65 592 65 592 78 578 c 0,176,177
 92 564 92 564 92 546 c 256,178,179
 92 527 92 527 78 513 c 0,180,181
 72 507 72 507 65 504 c 1,182,-1
 65 504 l 1,183,184
 72 501 72 501 78 495 c 0,185,186
 92 481 92 481 92 462 c 128,-1,187
 92 443 92 443 78 430 c 0,188,189
 72 424 72 424 65 421 c 1,190,-1
 65 421 l 1,191,192
 72 418 72 418 78 411 c 0,193,194
 92 397 92 397 92 379 c 256,195,196
 92 360 92 360 78 346 c 0,197,198
 72 340 72 340 65 338 c 1,199,-1
 65 338 l 1,200,201
 72 334 72 334 78 328 c 0,202,203
 92 314 92 314 92 296 c 0,204,205
 92 277 92 277 78 263 c 0,206,207
 72 257 72 257 65 254 c 1,208,-1
 65 254 l 1,209,210
 72 250 72 250 78 244 c 0,211,212
 92 230 92 230 92 212 c 256,213,214
 92 193 92 193 78 180 c 0,215,216
 72 174 72 174 65 171 c 1,217,-1
 65 171 l 1,218,219
 72 168 72 168 78 161 c 0,220,221
 92 147 92 147 92 129 c 256,222,223
 92 110 92 110 78 97 c 0,224,225
 72 91 72 91 65 87 c 1,226,-1
 65 87 l 1,227,228
 72 84 72 84 78 78 c 0,229,230
 92 64 92 64 92 46 c 128,-1,231
 92 28 92 28 78 14 c 128,-1,232
 64 0 64 0 46 0 c 1,233,-1
 46 0 l 1,113,114
166 500 m 1,234,235
 148 500 148 500 134 513 c 0,236,237
 120 527 120 527 120 546 c 256,238,239
 120 565 120 565 134 578 c 0,240,241
 148 592 148 592 166 592 c 0,242,243
 185 592 185 592 198 578 c 0,244,245
 212 564 212 564 212 546 c 256,246,247
 212 527 212 527 198 513 c 0,248,249
 184.933333333 499.933333333 184.933333333 499.933333333 168.382222222 499.933333333 c 0,250,251
 167.2 499.933333333 167.2 499.933333333 166 500 c 1,252,-1
 166 500 l 1,234,235
286 500 m 1,253,254
 267 500 267 500 253 513 c 0,255,256
 239.933333333 526.066666667 239.933333333 526.066666667 239.933333333 543.488888889 c 0,257,258
 239.933333333 564.933333333 239.933333333 564.933333333 253 578 c 0,259,260
 267 592 267 592 286 592 c 256,261,262
 305 592 305 592 318 578 c 0,263,264
 332 564 332 564 332 546 c 256,265,266
 332 527 332 527 318 513 c 0,267,268
 304.933333333 499.933333333 304.933333333 499.933333333 288.382222222 499.933333333 c 0,269,270
 287.2 499.933333333 287.2 499.933333333 286 500 c 1,271,-1
 286 500 l 1,253,254
EndSplineSet
EndChar

StartChar: E
Encoding: 69 69 37
Width: 600
VWidth: 750
Flags: W
LayerCount: 2
Fore
SplineSet
166 0 m 1,0,1
 148 0 148 0 134 14 c 128,-1,2
 120 28 120 28 120 46 c 0,3,4
 120 65 120 65 134 78 c 256,5,6
 148 92 148 92 166 92 c 0,7,8
 185 92 185 92 198 78 c 256,9,10
 212 64 212 64 212 46 c 128,-1,11
 212 28 212 28 198 14 c 128,-1,12
 184 0 184 0 166 0 c 1,13,-1
 166 0 l 1,0,1
286 0 m 1,14,15
 267 0 267 0 253 14 c 0,16,17
 239.933333333 27.0666666667 239.933333333 27.0666666667 239.933333333 43.6177777778 c 0,18,19
 239.933333333 64.9333333333 239.933333333 64.9333333333 253 78 c 0,20,21
 267 92 267 92 286 92 c 256,22,23
 305 92 305 92 318 78 c 256,24,25
 332 64 332 64 332 46 c 128,-1,26
 332 28 332 28 318 14 c 128,-1,27
 304 0 304 0 286 0 c 1,28,-1
 286 0 l 1,14,15
406 0 m 1,29,30
 388 0 388 0 374 14 c 128,-1,31
 360 28 360 28 360 46 c 0,32,33
 360 65 360 65 374 78 c 0,34,35
 388 92 388 92 406 92 c 256,36,37
 425 92 425 92 438 78 c 0,38,39
 452 64 452 64 452 46 c 128,-1,40
 452 28 452 28 438 14 c 128,-1,41
 424 0 424 0 406 0 c 1,42,-1
 406 0 l 1,29,30
166 250 m 1,43,44
 148 250 148 250 134 263 c 256,45,46
 120 278 120 278 120 296 c 0,47,48
 120 316 120 316 134 328 c 0,49,50
 147.066666667 341.066666667 147.066666667 341.066666667 163.617777778 341.066666667 c 0,51,52
 164.8 341.066666667 164.8 341.066666667 166 341 c 128,-1,53
 167.266666667 341.066666667 167.266666667 341.066666667 168.506666667 341.066666667 c 0,54,55
 185.866666667 341.066666667 185.866666667 341.066666667 198 328 c 0,56,57
 212 314 212 314 212 296 c 0,58,59
 212 277 212 277 198 263 c 256,60,61
 184.933333333 249.933333333 184.933333333 249.933333333 168.382222222 249.933333333 c 0,62,63
 167.2 249.933333333 167.2 249.933333333 166 250 c 1,64,-1
 166 250 l 1,43,44
286 250 m 1,65,66
 267 250 267 250 253 263 c 0,67,68
 239.933333333 277 239.933333333 277 239.933333333 293.613333333 c 0,69,70
 239.933333333 315.938461538 239.933333333 315.938461538 253 328 c 0,71,72
 266.066666667 341.066666667 266.066666667 341.066666667 283.488888889 341.066666667 c 0,73,74
 284.733333333 341.066666667 284.733333333 341.066666667 286 341 c 256,75,76
 287.266666667 341.066666667 287.266666667 341.066666667 288.506666667 341.066666667 c 0,77,78
 305.866666667 341.066666667 305.866666667 341.066666667 318 328 c 0,79,80
 332 314 332 314 332 296 c 0,81,82
 332 277 332 277 318 263 c 256,83,84
 304.933333333 249.933333333 304.933333333 249.933333333 288.382222222 249.933333333 c 0,85,86
 287.2 249.933333333 287.2 249.933333333 286 250 c 1,87,-1
 286 250 l 1,65,66
46 0 m 1,88,89
 28 0 28 0 14 14 c 128,-1,90
 0 28 0 28 0 46 c 0,91,92
 0 65 0 65 14 78 c 0,93,94
 20 84 20 84 26 87 c 1,95,-1
 26 87 l 1,96,97
 18 90 18 90 14 97 c 0,98,99
 0 111 0 111 0 129 c 256,100,101
 0 148 0 148 14 161 c 0,102,103
 20 167 20 167 26 171 c 1,104,-1
 26 171 l 1,105,106
 18 174 18 174 14 180 c 0,107,108
 0 194 0 194 0 212 c 256,109,110
 0 230 0 230 14 244 c 0,111,112
 20 250 20 250 26 254 c 1,113,-1
 26 254 l 1,114,115
 18 257 18 257 14 263 c 0,116,117
 0 278 0 278 0 296 c 0,118,119
 0 316 0 316 14 328 c 0,120,121
 20 334 20 334 26 338 c 1,122,-1
 26 338 l 1,123,124
 18 340 18 340 14 346 c 0,125,126
 0 360 0 360 0 379 c 256,127,128
 0 398 0 398 14 411 c 0,129,130
 20 417 20 417 26 421 c 1,131,-1
 26 421 l 1,132,133
 18 424 18 424 14 430 c 0,134,135
 0 444 0 444 0 462 c 0,136,137
 0 481 0 481 14 495 c 0,138,139
 20 501 20 501 26 504 c 1,140,-1
 26 504 l 1,141,142
 18 507 18 507 14 513 c 0,143,144
 0 527 0 527 0 546 c 256,145,146
 0 565 0 565 14 578 c 0,147,148
 28 592 28 592 46 592 c 256,149,150
 65 592 65 592 78 578 c 0,151,152
 92 564 92 564 92 546 c 256,153,154
 92 527 92 527 78 513 c 0,155,156
 72 507 72 507 65 504 c 1,157,-1
 65 504 l 1,158,159
 72 501 72 501 78 495 c 0,160,161
 92 481 92 481 92 462 c 128,-1,162
 92 443 92 443 78 430 c 0,163,164
 72 424 72 424 65 421 c 1,165,-1
 65 421 l 1,166,167
 72 418 72 418 78 411 c 0,168,169
 92 397 92 397 92 379 c 256,170,171
 92 360 92 360 78 346 c 0,172,173
 72 340 72 340 65 338 c 1,174,-1
 65 338 l 1,175,176
 72 334 72 334 78 328 c 0,177,178
 92 314 92 314 92 296 c 0,179,180
 92 277 92 277 78 263 c 0,181,182
 72 257 72 257 65 254 c 1,183,-1
 65 254 l 1,184,185
 72 250 72 250 78 244 c 0,186,187
 92 230 92 230 92 212 c 256,188,189
 92 193 92 193 78 180 c 0,190,191
 72 174 72 174 65 171 c 1,192,-1
 65 171 l 1,193,194
 72 168 72 168 78 161 c 0,195,196
 92 147 92 147 92 129 c 256,197,198
 92 110 92 110 78 97 c 0,199,200
 72 91 72 91 65 87 c 1,201,-1
 65 87 l 1,202,203
 72 84 72 84 78 78 c 0,204,205
 92 64 92 64 92 46 c 128,-1,206
 92 28 92 28 78 14 c 128,-1,207
 64 0 64 0 46 0 c 1,208,-1
 46 0 l 1,88,89
166 500 m 1,209,210
 148 500 148 500 134 513 c 0,211,212
 120 527 120 527 120 546 c 256,213,214
 120 565 120 565 134 578 c 0,215,216
 148 592 148 592 166 592 c 0,217,218
 185 592 185 592 198 578 c 0,219,220
 212 564 212 564 212 546 c 256,221,222
 212 527 212 527 198 513 c 0,223,224
 184.933333333 499.933333333 184.933333333 499.933333333 168.382222222 499.933333333 c 0,225,226
 167.2 499.933333333 167.2 499.933333333 166 500 c 1,227,-1
 166 500 l 1,209,210
286 500 m 1,228,229
 267 500 267 500 253 513 c 0,230,231
 239.933333333 526.066666667 239.933333333 526.066666667 239.933333333 543.488888889 c 0,232,233
 239.933333333 564.933333333 239.933333333 564.933333333 253 578 c 0,234,235
 267 592 267 592 286 592 c 256,236,237
 305 592 305 592 318 578 c 0,238,239
 332 564 332 564 332 546 c 256,240,241
 332 527 332 527 318 513 c 0,242,243
 304.933333333 499.933333333 304.933333333 499.933333333 288.382222222 499.933333333 c 0,244,245
 287.2 499.933333333 287.2 499.933333333 286 500 c 1,246,-1
 286 500 l 1,228,229
406 500 m 1,247,248
 388 500 388 500 374 513 c 0,249,250
 360 527 360 527 360 546 c 256,251,252
 360 565 360 565 374 578 c 0,253,254
 388 592 388 592 406 592 c 256,255,256
 425 592 425 592 438 578 c 0,257,258
 452 564 452 564 452 546 c 256,259,260
 452 527 452 527 438 513 c 0,261,262
 424.933333333 499.933333333 424.933333333 499.933333333 408.382222222 499.933333333 c 0,263,264
 407.2 499.933333333 407.2 499.933333333 406 500 c 1,265,-1
 406 500 l 1,247,248
EndSplineSet
EndChar

StartChar: F
Encoding: 70 70 38
Width: 600
VWidth: 750
Flags: W
LayerCount: 2
Fore
SplineSet
166 250 m 1,0,1
 148 250 148 250 134 263 c 256,2,3
 120 278 120 278 120 296 c 0,4,5
 120 316 120 316 134 328 c 0,6,7
 147.066666667 341.066666667 147.066666667 341.066666667 163.617777778 341.066666667 c 0,8,9
 164.8 341.066666667 164.8 341.066666667 166 341 c 128,-1,10
 167.266666667 341.066666667 167.266666667 341.066666667 168.506666667 341.066666667 c 0,11,12
 185.866666667 341.066666667 185.866666667 341.066666667 198 328 c 0,13,14
 212 314 212 314 212 296 c 0,15,16
 212 277 212 277 198 263 c 256,17,18
 184.933333333 249.933333333 184.933333333 249.933333333 168.382222222 249.933333333 c 0,19,20
 167.2 249.933333333 167.2 249.933333333 166 250 c 1,21,-1
 166 250 l 1,0,1
286 250 m 1,22,23
 267 250 267 250 253 263 c 0,24,25
 239.933333333 277 239.933333333 277 239.933333333 293.613333333 c 0,26,27
 239.933333333 315.938461538 239.933333333 315.938461538 253 328 c 0,28,29
 266.066666667 341.066666667 266.066666667 341.066666667 283.488888889 341.066666667 c 0,30,31
 284.733333333 341.066666667 284.733333333 341.066666667 286 341 c 256,32,33
 287.266666667 341.066666667 287.266666667 341.066666667 288.506666667 341.066666667 c 0,34,35
 305.866666667 341.066666667 305.866666667 341.066666667 318 328 c 0,36,37
 332 314 332 314 332 296 c 0,38,39
 332 277 332 277 318 263 c 256,40,41
 304.933333333 249.933333333 304.933333333 249.933333333 288.382222222 249.933333333 c 0,42,43
 287.2 249.933333333 287.2 249.933333333 286 250 c 1,44,-1
 286 250 l 1,22,23
46 0 m 1,45,46
 28 0 28 0 14 14 c 128,-1,47
 0 28 0 28 0 46 c 0,48,49
 0 65 0 65 14 78 c 0,50,51
 20 84 20 84 26 87 c 1,52,-1
 26 87 l 1,53,54
 18 90 18 90 14 97 c 0,55,56
 0 111 0 111 0 129 c 256,57,58
 0 148 0 148 14 161 c 0,59,60
 20 167 20 167 26 171 c 1,61,-1
 26 171 l 1,62,63
 18 174 18 174 14 180 c 0,64,65
 0 194 0 194 0 212 c 256,66,67
 0 230 0 230 14 244 c 0,68,69
 20 250 20 250 26 254 c 1,70,-1
 26 254 l 1,71,72
 18 257 18 257 14 263 c 0,73,74
 0 278 0 278 0 296 c 0,75,76
 0 316 0 316 14 328 c 0,77,78
 20 334 20 334 26 338 c 1,79,-1
 26 338 l 1,80,81
 18 340 18 340 14 346 c 0,82,83
 0 360 0 360 0 379 c 256,84,85
 0 398 0 398 14 411 c 0,86,87
 20 417 20 417 26 421 c 1,88,-1
 26 421 l 1,89,90
 18 424 18 424 14 430 c 0,91,92
 0 444 0 444 0 462 c 0,93,94
 0 481 0 481 14 495 c 0,95,96
 20 501 20 501 26 504 c 1,97,-1
 26 504 l 1,98,99
 18 507 18 507 14 513 c 0,100,101
 0 527 0 527 0 546 c 256,102,103
 0 565 0 565 14 578 c 0,104,105
 28 592 28 592 46 592 c 256,106,107
 65 592 65 592 78 578 c 0,108,109
 92 564 92 564 92 546 c 256,110,111
 92 527 92 527 78 513 c 0,112,113
 72 507 72 507 65 504 c 1,114,-1
 65 504 l 1,115,116
 72 501 72 501 78 495 c 0,117,118
 92 481 92 481 92 462 c 128,-1,119
 92 443 92 443 78 430 c 0,120,121
 72 424 72 424 65 421 c 1,122,-1
 65 421 l 1,123,124
 72 418 72 418 78 411 c 0,125,126
 92 397 92 397 92 379 c 256,127,128
 92 360 92 360 78 346 c 0,129,130
 72 340 72 340 65 338 c 1,131,-1
 65 338 l 1,132,133
 72 334 72 334 78 328 c 0,134,135
 92 314 92 314 92 296 c 0,136,137
 92 277 92 277 78 263 c 0,138,139
 72 257 72 257 65 254 c 1,140,-1
 65 254 l 1,141,142
 72 250 72 250 78 244 c 0,143,144
 92 230 92 230 92 212 c 256,145,146
 92 193 92 193 78 180 c 0,147,148
 72 174 72 174 65 171 c 1,149,-1
 65 171 l 1,150,151
 72 168 72 168 78 161 c 0,152,153
 92 147 92 147 92 129 c 256,154,155
 92 110 92 110 78 97 c 0,156,157
 72 91 72 91 65 87 c 1,158,-1
 65 87 l 1,159,160
 72 84 72 84 78 78 c 0,161,162
 92 64 92 64 92 46 c 128,-1,163
 92 28 92 28 78 14 c 128,-1,164
 64 0 64 0 46 0 c 1,165,-1
 46 0 l 1,45,46
166 500 m 1,166,167
 148 500 148 500 134 513 c 0,168,169
 120 527 120 527 120 546 c 256,170,171
 120 565 120 565 134 578 c 0,172,173
 148 592 148 592 166 592 c 0,174,175
 185 592 185 592 198 578 c 0,176,177
 212 564 212 564 212 546 c 256,178,179
 212 527 212 527 198 513 c 0,180,181
 184.933333333 499.933333333 184.933333333 499.933333333 168.382222222 499.933333333 c 0,182,183
 167.2 499.933333333 167.2 499.933333333 166 500 c 1,184,-1
 166 500 l 1,166,167
286 500 m 1,185,186
 267 500 267 500 253 513 c 0,187,188
 239.933333333 526.066666667 239.933333333 526.066666667 239.933333333 543.488888889 c 0,189,190
 239.933333333 564.933333333 239.933333333 564.933333333 253 578 c 0,191,192
 267 592 267 592 286 592 c 256,193,194
 305 592 305 592 318 578 c 0,195,196
 332 564 332 564 332 546 c 256,197,198
 332 527 332 527 318 513 c 0,199,200
 304.933333333 499.933333333 304.933333333 499.933333333 288.382222222 499.933333333 c 0,201,202
 287.2 499.933333333 287.2 499.933333333 286 500 c 1,203,-1
 286 500 l 1,185,186
406 500 m 1,204,205
 388 500 388 500 374 513 c 0,206,207
 360 527 360 527 360 546 c 256,208,209
 360 565 360 565 374 578 c 0,210,211
 388 592 388 592 406 592 c 256,212,213
 425 592 425 592 438 578 c 0,214,215
 452 564 452 564 452 546 c 256,216,217
 452 527 452 527 438 513 c 0,218,219
 424.933333333 499.933333333 424.933333333 499.933333333 408.382222222 499.933333333 c 0,220,221
 407.2 499.933333333 407.2 499.933333333 406 500 c 1,222,-1
 406 500 l 1,204,205
EndSplineSet
EndChar

StartChar: G
Encoding: 71 71 39
Width: 600
VWidth: 750
Flags: W
LayerCount: 2
Fore
SplineSet
106 0 m 1,0,1
 88 0 88 0 74 14 c 128,-1,2
 60 28 60 28 60 46 c 0,3,4
 60 65 60 65 74 78 c 256,5,6
 88 92 88 92 106 92 c 256,7,8
 125 92 125 92 138 78 c 0,9,10
 152 64 152 64 152 46 c 128,-1,11
 152 28 152 28 138 14 c 128,-1,12
 124 0 124 0 106 0 c 1,13,-1
 106 0 l 1,0,1
226 0 m 1,14,15
 208 0 208 0 194 14 c 128,-1,16
 180 28 180 28 180 46 c 0,17,18
 180 65 180 65 194 78 c 0,19,20
 208 92 208 92 226 92 c 256,21,22
 245 92 245 92 258 78 c 256,23,24
 272 64 272 64 272 46 c 128,-1,25
 272 28 272 28 258 14 c 128,-1,26
 244 0 244 0 226 0 c 1,27,-1
 226 0 l 1,14,15
346 0 m 1,28,29
 327 0 327 0 313 14 c 0,30,31
 299.933333333 27.0666666667 299.933333333 27.0666666667 299.933333333 43.6177777778 c 0,32,33
 299.933333333 64.9333333333 299.933333333 64.9333333333 313 78 c 0,34,35
 327 92 327 92 346 92 c 256,36,37
 365 92 365 92 378 78 c 0,38,39
 392 64 392 64 392 46 c 128,-1,40
 392 28 392 28 378 14 c 128,-1,41
 364 0 364 0 346 0 c 1,42,-1
 346 0 l 1,28,29
286 166 m 1,43,44
 267 166 267 166 253 180 c 0,45,46
 239.933333333 193.066666667 239.933333333 193.066666667 239.933333333 209.617777778 c 0,47,48
 239.933333333 229.928205128 239.933333333 229.928205128 253 244 c 0,49,50
 267 258 267 258 286 258 c 256,51,52
 305 258 305 258 318 244 c 0,53,54
 332 230 332 230 332 212 c 256,55,56
 332 193 332 193 318 180 c 0,57,58
 304 166 304 166 286 166 c 1,59,-1
 286 166 l 1,43,44
406 83 m 1,60,61
 388 83 388 83 374 97 c 128,-1,62
 360 111 360 111 360 129 c 256,63,64
 360 148 360 148 374 161 c 0,65,66
 380 167 380 167 386 171 c 1,67,-1
 386 171 l 1,68,69
 378 174 378 174 374 180 c 0,70,71
 360 194 360 194 360 212 c 256,72,73
 360 230 360 230 374 244 c 128,-1,74
 388 258 388 258 406 258 c 256,75,76
 425 258 425 258 438 244 c 0,77,78
 452 230 452 230 452 212 c 256,79,80
 452 193 452 193 438 180 c 0,81,82
 432 174 432 174 425 171 c 1,83,-1
 425 171 l 1,84,85
 432 168 432 168 438 161 c 0,86,87
 452 147 452 147 452 129 c 256,88,89
 452 110 452 110 438 97 c 0,90,91
 424 83 424 83 406 83 c 1,92,-1
 406 83 l 1,60,61
46 83 m 1,93,94
 28 83 28 83 14 97 c 128,-1,95
 0 111 0 111 0 129 c 256,96,97
 0 148 0 148 14 161 c 0,98,99
 20 167 20 167 26 171 c 1,100,-1
 26 171 l 1,101,102
 18 174 18 174 14 180 c 0,103,104
 0 194 0 194 0 212 c 256,105,106
 0 230 0 230 14 244 c 0,107,108
 20 250 20 250 26 254 c 1,109,-1
 26 254 l 1,110,111
 18 257 18 257 14 263 c 0,112,113
 0 278 0 278 0 296 c 0,114,115
 0 316 0 316 14 328 c 0,116,117
 20 334 20 334 26 338 c 1,118,-1
 26 338 l 1,119,120
 18 340 18 340 14 346 c 0,121,122
 0 360 0 360 0 379 c 256,123,124
 0 398 0 398 14 411 c 0,125,126
 20 417 20 417 26 421 c 1,127,-1
 26 421 l 1,128,129
 18 424 18 424 14 430 c 0,130,131
 0 444 0 444 0 462 c 0,132,133
 0 481 0 481 14 495 c 0,134,135
 28 508 28 508 46 508 c 256,136,137
 65 508 65 508 78 495 c 0,138,139
 92 481 92 481 92 462 c 128,-1,140
 92 443 92 443 78 430 c 0,141,142
 72 424 72 424 65 421 c 1,143,-1
 65 421 l 1,144,145
 72 418 72 418 78 411 c 0,146,147
 92 397 92 397 92 379 c 256,148,149
 92 360 92 360 78 346 c 0,150,151
 72 340 72 340 65 338 c 1,152,-1
 65 338 l 1,153,154
 72 334 72 334 78 328 c 0,155,156
 92 314 92 314 92 296 c 0,157,158
 92 277 92 277 78 263 c 0,159,160
 72 257 72 257 65 254 c 1,161,-1
 65 254 l 1,162,163
 72 250 72 250 78 244 c 0,164,165
 92 230 92 230 92 212 c 256,166,167
 92 193 92 193 78 180 c 0,168,169
 72 174 72 174 65 171 c 1,170,-1
 65 171 l 1,171,172
 72 168 72 168 78 161 c 0,173,174
 92 147 92 147 92 129 c 256,175,176
 92 110 92 110 78 97 c 0,177,178
 64 83 64 83 46 83 c 1,179,-1
 46 83 l 1,93,94
406 416 m 1,180,181
 388 416 388 416 374 430 c 128,-1,182
 360 444 360 444 360 462 c 0,183,184
 360 481 360 481 374 495 c 0,185,186
 388 508 388 508 406 508 c 256,187,188
 425 508 425 508 438 495 c 0,189,190
 452 481 452 481 452 462 c 128,-1,191
 452 443 452 443 438 430 c 0,192,193
 424 416 424 416 406 416 c 1,194,-1
 406 416 l 1,180,181
106 500 m 1,195,196
 88 500 88 500 74 513 c 0,197,198
 60 527 60 527 60 546 c 256,199,200
 60 565 60 565 74 578 c 0,201,202
 88 592 88 592 106 592 c 256,203,204
 125 592 125 592 138 578 c 0,205,206
 152 564 152 564 152 546 c 256,207,208
 152 527 152 527 138 513 c 0,209,210
 124.933333333 499.933333333 124.933333333 499.933333333 108.382222222 499.933333333 c 0,211,212
 107.2 499.933333333 107.2 499.933333333 106 500 c 1,213,-1
 106 500 l 1,195,196
226 500 m 1,214,215
 208 500 208 500 194 513 c 0,216,217
 180 527 180 527 180 546 c 256,218,219
 180 565 180 565 194 578 c 0,220,221
 208 592 208 592 226 592 c 256,222,223
 245 592 245 592 258 578 c 0,224,225
 272 564 272 564 272 546 c 256,226,227
 272 527 272 527 258 513 c 0,228,229
 244.933333333 499.933333333 244.933333333 499.933333333 228.382222222 499.933333333 c 0,230,231
 227.2 499.933333333 227.2 499.933333333 226 500 c 1,232,-1
 226 500 l 1,214,215
346 500 m 1,233,234
 327 500 327 500 313 513 c 0,235,236
 299.933333333 526.066666667 299.933333333 526.066666667 299.933333333 543.488888889 c 0,237,238
 299.933333333 564.933333333 299.933333333 564.933333333 313 578 c 0,239,240
 327 592 327 592 346 592 c 256,241,242
 365 592 365 592 378 578 c 0,243,244
 392 564 392 564 392 546 c 256,245,246
 392 527 392 527 378 513 c 0,247,248
 364.933333333 499.933333333 364.933333333 499.933333333 348.382222222 499.933333333 c 0,249,250
 347.2 499.933333333 347.2 499.933333333 346 500 c 1,251,-1
 346 500 l 1,233,234
EndSplineSet
EndChar

StartChar: H
Encoding: 72 72 40
Width: 600
VWidth: 750
Flags: W
LayerCount: 2
Fore
SplineSet
166 250 m 1,0,1
 148 250 148 250 134 263 c 256,2,3
 120 278 120 278 120 296 c 0,4,5
 120 316 120 316 134 328 c 0,6,7
 147.066666667 341.066666667 147.066666667 341.066666667 163.617777778 341.066666667 c 0,8,9
 164.8 341.066666667 164.8 341.066666667 166 341 c 128,-1,10
 167.266666667 341.066666667 167.266666667 341.066666667 168.506666667 341.066666667 c 0,11,12
 185.866666667 341.066666667 185.866666667 341.066666667 198 328 c 0,13,14
 212 314 212 314 212 296 c 0,15,16
 212 277 212 277 198 263 c 256,17,18
 184.933333333 249.933333333 184.933333333 249.933333333 168.382222222 249.933333333 c 0,19,20
 167.2 249.933333333 167.2 249.933333333 166 250 c 1,21,-1
 166 250 l 1,0,1
286 250 m 1,22,23
 267 250 267 250 253 263 c 0,24,25
 239.933333333 277 239.933333333 277 239.933333333 293.613333333 c 0,26,27
 239.933333333 315.938461538 239.933333333 315.938461538 253 328 c 0,28,29
 266.066666667 341.066666667 266.066666667 341.066666667 283.488888889 341.066666667 c 0,30,31
 284.733333333 341.066666667 284.733333333 341.066666667 286 341 c 256,32,33
 287.266666667 341.066666667 287.266666667 341.066666667 288.506666667 341.066666667 c 0,34,35
 305.866666667 341.066666667 305.866666667 341.066666667 318 328 c 0,36,37
 332 314 332 314 332 296 c 0,38,39
 332 277 332 277 318 263 c 256,40,41
 304.933333333 249.933333333 304.933333333 249.933333333 288.382222222 249.933333333 c 0,42,43
 287.2 249.933333333 287.2 249.933333333 286 250 c 1,44,-1
 286 250 l 1,22,23
46 0 m 1,45,46
 28 0 28 0 14 14 c 128,-1,47
 0 28 0 28 0 46 c 0,48,49
 0 65 0 65 14 78 c 0,50,51
 20 84 20 84 26 87 c 1,52,-1
 26 87 l 1,53,54
 18 90 18 90 14 97 c 0,55,56
 0 111 0 111 0 129 c 256,57,58
 0 148 0 148 14 161 c 0,59,60
 20 167 20 167 26 171 c 1,61,-1
 26 171 l 1,62,63
 18 174 18 174 14 180 c 0,64,65
 0 194 0 194 0 212 c 256,66,67
 0 230 0 230 14 244 c 0,68,69
 20 250 20 250 26 254 c 1,70,-1
 26 254 l 1,71,72
 18 257 18 257 14 263 c 0,73,74
 0 278 0 278 0 296 c 0,75,76
 0 316 0 316 14 328 c 0,77,78
 20 334 20 334 26 338 c 1,79,-1
 26 338 l 1,80,81
 18 340 18 340 14 346 c 0,82,83
 0 360 0 360 0 379 c 256,84,85
 0 398 0 398 14 411 c 0,86,87
 20 417 20 417 26 421 c 1,88,-1
 26 421 l 1,89,90
 18 424 18 424 14 430 c 0,91,92
 0 444 0 444 0 462 c 0,93,94
 0 481 0 481 14 495 c 0,95,96
 20 501 20 501 26 504 c 1,97,-1
 26 504 l 1,98,99
 18 507 18 507 14 513 c 0,100,101
 0 527 0 527 0 546 c 256,102,103
 0 565 0 565 14 578 c 0,104,105
 28 592 28 592 46 592 c 256,106,107
 65 592 65 592 78 578 c 0,108,109
 92 564 92 564 92 546 c 256,110,111
 92 527 92 527 78 513 c 0,112,113
 72 507 72 507 65 504 c 1,114,-1
 65 504 l 1,115,116
 72 501 72 501 78 495 c 0,117,118
 92 481 92 481 92 462 c 128,-1,119
 92 443 92 443 78 430 c 0,120,121
 72 424 72 424 65 421 c 1,122,-1
 65 421 l 1,123,124
 72 418 72 418 78 411 c 0,125,126
 92 397 92 397 92 379 c 256,127,128
 92 360 92 360 78 346 c 0,129,130
 72 340 72 340 65 338 c 1,131,-1
 65 338 l 1,132,133
 72 334 72 334 78 328 c 0,134,135
 92 314 92 314 92 296 c 0,136,137
 92 277 92 277 78 263 c 0,138,139
 72 257 72 257 65 254 c 1,140,-1
 65 254 l 1,141,142
 72 250 72 250 78 244 c 0,143,144
 92 230 92 230 92 212 c 256,145,146
 92 193 92 193 78 180 c 0,147,148
 72 174 72 174 65 171 c 1,149,-1
 65 171 l 1,150,151
 72 168 72 168 78 161 c 0,152,153
 92 147 92 147 92 129 c 256,154,155
 92 110 92 110 78 97 c 0,156,157
 72 91 72 91 65 87 c 1,158,-1
 65 87 l 1,159,160
 72 84 72 84 78 78 c 0,161,162
 92 64 92 64 92 46 c 128,-1,163
 92 28 92 28 78 14 c 128,-1,164
 64 0 64 0 46 0 c 1,165,-1
 46 0 l 1,45,46
406 0 m 1,166,167
 388 0 388 0 374 14 c 128,-1,168
 360 28 360 28 360 46 c 0,169,170
 360 65 360 65 374 78 c 0,171,172
 380 84 380 84 386 87 c 1,173,-1
 386 87 l 1,174,175
 378 90 378 90 374 97 c 0,176,177
 360 111 360 111 360 129 c 256,178,179
 360 148 360 148 374 161 c 0,180,181
 380 167 380 167 386 171 c 1,182,-1
 386 171 l 1,183,184
 378 174 378 174 374 180 c 0,185,186
 360 194 360 194 360 212 c 256,187,188
 360 230 360 230 374 244 c 0,189,190
 380 250 380 250 386 254 c 1,191,-1
 386 254 l 1,192,193
 378 257 378 257 374 263 c 0,194,195
 360 278 360 278 360 296 c 0,196,197
 360 316 360 316 374 328 c 0,198,199
 380 334 380 334 386 338 c 1,200,-1
 386 338 l 1,201,202
 378 340 378 340 374 346 c 0,203,204
 360 360 360 360 360 379 c 256,205,206
 360 398 360 398 374 411 c 0,207,208
 380 417 380 417 386 421 c 1,209,-1
 386 421 l 1,210,211
 378 424 378 424 374 430 c 0,212,213
 360 444 360 444 360 462 c 0,214,215
 360 481 360 481 374 495 c 0,216,217
 380 501 380 501 386 504 c 1,218,-1
 386 504 l 1,219,220
 378 507 378 507 374 513 c 0,221,222
 360 527 360 527 360 546 c 256,223,224
 360 565 360 565 374 578 c 0,225,226
 388 592 388 592 406 592 c 256,227,228
 425 592 425 592 438 578 c 0,229,230
 452 564 452 564 452 546 c 256,231,232
 452 527 452 527 438 513 c 0,233,234
 432 507 432 507 425 504 c 1,235,-1
 425 504 l 1,236,237
 432 501 432 501 438 495 c 0,238,239
 452 481 452 481 452 462 c 128,-1,240
 452 443 452 443 438 430 c 0,241,242
 432 424 432 424 425 421 c 1,243,-1
 425 421 l 1,244,245
 432 418 432 418 438 411 c 0,246,247
 452 397 452 397 452 379 c 256,248,249
 452 360 452 360 438 346 c 0,250,251
 432 340 432 340 425 338 c 1,252,-1
 425 338 l 1,253,254
 432 334 432 334 438 328 c 0,255,256
 452 314 452 314 452 296 c 0,257,258
 452 277 452 277 438 263 c 0,259,260
 432 257 432 257 425 254 c 1,261,-1
 425 254 l 1,262,263
 432 250 432 250 438 244 c 0,264,265
 452 230 452 230 452 212 c 256,266,267
 452 193 452 193 438 180 c 0,268,269
 432 174 432 174 425 171 c 1,270,-1
 425 171 l 1,271,272
 432 168 432 168 438 161 c 0,273,274
 452 147 452 147 452 129 c 256,275,276
 452 110 452 110 438 97 c 0,277,278
 432 91 432 91 425 87 c 1,279,-1
 425 87 l 1,280,281
 432 84 432 84 438 78 c 0,282,283
 452 64 452 64 452 46 c 128,-1,284
 452 28 452 28 438 14 c 128,-1,285
 424 0 424 0 406 0 c 1,286,-1
 406 0 l 1,166,167
EndSplineSet
EndChar

